<?xml version="1.0" encoding="iso-8859-1"?>
<!-- Generator: Adobe Illustrator 16.0.0, SVG Export Plug-In . SVG Version: 6.00 Build 0)  -->
<!DOCTYPE svg PUBLIC "-//W3C//DTD SVG 1.1//EN" "http://www.w3.org/Graphics/SVG/1.1/DTD/svg11.dtd">
<svg version="1.1" id="Capa_1" xmlns="http://www.w3.org/2000/svg" xmlns:xlink="http://www.w3.org/1999/xlink" x="0px" y="0px"
	 viewBox="0 0 44.502 44.502" style="enable-background:new 0 0 44.502 44.502;"
	 xml:space="preserve">
<g>
	<g>
		<path stroke="#606060" fill="#606060" d="M28.678,26.797c0.775-0.159,1.488-0.373,2.137-0.638l1.957,4.121c0.256,0.541,0.795,0.857,1.355,0.857
			c0.217,0,0.436-0.047,0.643-0.146c0.748-0.354,1.066-1.25,0.711-1.998l-2.057-4.334c0.836-0.651,1.531-1.383,2.133-2.127
			l1.266,1.977c0.285,0.447,0.771,0.689,1.266,0.689c0.275,0,0.561-0.076,0.811-0.235c0.695-0.447,0.898-1.375,0.451-2.072
			l-1.93-3.013c0.486-0.755,0.916-1.407,1.318-1.813c0.586-0.586,0.586-1.536,0-2.122c-0.586-0.585-1.535-0.585-2.121,0.001
			c-0.646,0.649-1.195,1.499-1.775,2.398c-0.145,0.221-0.289,0.449-0.441,0.679c0,0.001,0,0.002-0.002,0.004
			c-2.742,4.136-7.441,9.285-26.881-0.793c-0.731-0.381-1.639-0.094-2.021,0.643c-0.381,0.734-0.094,1.641,0.643,2.021
			c0.365,0.189,0.719,0.367,1.076,0.546c-0.02,0.136-0.023,0.272-0.004,0.413l0.553,3.744c0.109,0.746,0.75,1.281,1.48,1.281
			c0.073,0,0.146-0.005,0.223-0.018c0.818-0.119,1.385-0.883,1.266-1.701l-0.321-2.188c0.909,0.414,1.788,0.791,2.637,1.136
			l0.643,3.83c0.123,0.733,0.759,1.252,1.479,1.252c0.082,0,0.166-0.006,0.25-0.021c0.813-0.138,1.367-0.91,1.229-1.729
			l-0.354-2.123c1.041,0.352,2.021,0.637,2.957,0.875l0.432,2.944c0.109,0.745,0.75,1.282,1.482,1.282
			c0.07,0,0.145-0.006,0.219-0.018c0.818-0.119,1.387-0.883,1.268-1.701l-0.272-1.865c1.172,0.175,2.252,0.261,3.241,0.261
			l0.929,2.729c0.213,0.625,0.795,1.019,1.42,1.019c0.16,0,0.322-0.024,0.48-0.08c0.783-0.267,1.203-1.118,0.938-1.901
			L28.678,26.797z"/>
	</g>
</g>
<g>
</g>
<g>
</g>
<g>
</g>
<g>
</g>
<g>
</g>
<g>
</g>
<g>
</g>
<g>
</g>
<g>
</g>
<g>
</g>
<g>
</g>
<g>
</g>
<g>
</g>
<g>
</g>
<g>
</g>
</svg>
