<svg width="100" height="100" viewBox="0 0 100 100" fill="none" xmlns="http://www.w3.org/2000/svg">
<path d="M50.2891 16C38.2079 16 27.1229 20.8639 18.5586 28.8789C18.3587 29.0563 18.1963 29.2719 18.0812 29.5131C17.966 29.7542 17.9003 30.016 17.888 30.283C17.8757 30.5499 17.917 30.8167 18.0095 31.0674C18.102 31.3181 18.2438 31.5478 18.4265 31.7428C18.6093 31.9378 18.8293 32.0942 19.0735 32.2028C19.3177 32.3114 19.5811 32.3699 19.8483 32.375C20.1155 32.38 20.381 32.3314 20.6292 32.2321C20.8773 32.1329 21.103 31.9849 21.293 31.7969C29.1927 24.4039 39.2782 20 50.2891 20C61.2448 20 71.2822 24.3603 79.1641 31.6875C79.3552 31.8729 79.5814 32.0182 79.8295 32.115C80.0775 32.2118 80.3424 32.2581 80.6085 32.2512C80.8747 32.2443 81.1368 32.1843 81.3795 32.0748C81.6222 31.9652 81.8405 31.8084 82.0218 31.6133C82.2031 31.4183 82.3435 31.189 82.435 30.939C82.5265 30.6889 82.5672 30.4231 82.5546 30.1572C82.542 29.8912 82.4765 29.6304 82.3618 29.3901C82.2471 29.1498 82.0856 28.9349 81.8867 28.7578C73.3405 20.813 62.3093 16 50.2891 16ZM90.9805 41.875C90.565 41.8818 90.1619 42.0179 89.8273 42.2643C89.4927 42.5107 89.2431 42.8552 89.1133 43.25C81.0914 58.1438 66.6748 68 50.2344 68C33.8305 68 19.4431 58.1834 11.4102 43.3438C11.2576 42.8936 10.9497 42.5124 10.5417 42.2687C10.1336 42.0249 9.65213 41.9343 9.18342 42.0133C8.7147 42.0923 8.28944 42.3356 7.98382 42.6997C7.67821 43.0637 7.51223 43.5247 7.51563 44V44.0977C7.51467 44.4273 7.59518 44.752 7.75 45.043C10.4664 50.115 13.9024 54.661 17.8945 58.5156L6.53906 70.6328C6.17646 71.0203 5.98263 71.5359 6.00021 72.0663C6.0178 72.5967 6.24535 73.0983 6.63281 73.4609C7.02028 73.8235 7.53592 74.0174 8.06629 73.9998C8.59667 73.9822 9.09834 73.7547 9.46094 73.3672L20.8828 61.1758C24.1816 63.8968 27.7886 66.1852 31.6445 67.9375L24.2031 83.1211C24.0876 83.3571 24.0198 83.6135 24.0034 83.8757C23.987 84.1379 24.0225 84.4008 24.1077 84.6493C24.1929 84.8978 24.3263 85.1271 24.5001 85.3241C24.674 85.521 24.8849 85.6818 25.1209 85.7973C25.3569 85.9127 25.6133 85.9805 25.8756 85.9968C26.1378 86.0131 26.4006 85.9777 26.6491 85.8924C26.8976 85.8071 27.1269 85.6737 27.3238 85.4998C27.5207 85.3259 27.6815 85.1149 27.7969 84.8789L35.3672 69.4258C39.3824 70.8418 43.616 71.6992 48.0039 71.918C48.002 71.9453 48.0007 71.9726 48 72V88C47.9963 88.265 48.0452 88.5281 48.144 88.7741C48.2429 89.02 48.3896 89.2439 48.5757 89.4326C48.7618 89.6213 48.9835 89.7712 49.228 89.8735C49.4725 89.9758 49.7349 90.0285 50 90.0285C50.2651 90.0285 50.5275 89.9758 50.772 89.8735C51.0165 89.7712 51.2382 89.6213 51.4243 89.4326C51.6104 89.2439 51.7571 89.02 51.856 88.7741C51.9548 88.5281 52.0037 88.265 52 88V72C51.9991 71.9778 51.9978 71.9557 51.9961 71.9336C56.5281 71.7552 60.8991 70.8831 65.0391 69.4336L72.1875 84.8398C72.2889 85.0914 72.4404 85.3197 72.6328 85.5109C72.8251 85.7021 73.0544 85.8521 73.3066 85.9519C73.5588 86.0517 73.8286 86.0992 74.0997 86.0915C74.3708 86.0838 74.6375 86.021 74.8836 85.907C75.1297 85.7929 75.35 85.63 75.5312 85.4282C75.7124 85.2264 75.8506 84.9898 75.9375 84.7329C76.0244 84.476 76.0581 84.204 76.0366 83.9337C76.0151 83.6633 75.9389 83.4001 75.8125 83.1602L68.7539 67.9375C72.3688 66.3052 75.7688 64.2162 78.8984 61.7266L90.5859 73.4141C90.7949 73.6315 91.0502 73.799 91.333 73.9038C91.6157 74.0087 91.9185 74.0482 92.2188 74.0195C92.2843 74.0136 92.3494 74.0045 92.4141 73.9922C92.7734 73.9218 93.1066 73.754 93.3772 73.5072C93.6478 73.2605 93.8454 72.9441 93.9486 72.5928C94.0517 72.2414 94.0564 71.8684 93.9622 71.5145C93.8679 71.1607 93.6783 70.8395 93.4141 70.5859L81.9297 59.1016C86.2192 55.0978 89.9064 50.3217 92.7734 44.9414C92.929 44.6519 93.0108 44.3286 93.0117 44V43.9023C93.0154 43.6348 92.9653 43.3692 92.8645 43.1213C92.7637 42.8734 92.6141 42.6483 92.4247 42.4592C92.2353 42.2702 92.0099 42.1211 91.7618 42.0207C91.5137 41.9204 91.248 41.8708 90.9805 41.875Z" fill="#606060"/>
</svg>
