<svg width="100" height="91" viewBox="0 0 100 91" fill="none" xmlns="http://www.w3.org/2000/svg">
<path d="M50 15C23.3359 15 2.5 39.6875 2.5 39.6875C1.84375 40.4375 1.84375 41.5625 2.5 42.3125C2.5 42.3125 23.3359 67 50 67C76.6641 67 97.5 42.3125 97.5 42.3125C98.1562 41.5625 98.1562 40.4375 97.5 39.6875C97.5 39.6875 76.6641 15 50 15ZM50 19C55.2578 19 60.2812 20.0859 64.9375 21.75C68.0625 25.2812 70 29.8984 70 35C70 46.0703 61.0703 55 50 55C38.9297 55 30 46.0703 30 35C30 29.8984 31.875 25.2812 35 21.75C39.6719 20.0781 44.7266 19 50 19ZM28.375 24.6875C26.875 27.8125 26 31.3125 26 35C26 48.2344 36.7656 59 50 59C63.2344 59 74 48.2344 74 35C74 31.3281 73.1641 27.8125 71.6875 24.6875C82.9844 30.4297 91.1094 38.7578 93.1875 41C89.9375 44.5156 71.9453 63 50 63C28.0547 63 10.0625 44.5156 6.8125 41C8.89063 38.75 17.0547 30.4297 28.375 24.6875ZM50 25C44.4766 25 40 29.4766 40 35C40 40.5234 44.4766 45 50 45C55.5234 45 60 40.5234 60 35C60 29.4766 55.5234 25 50 25Z" fill="#606060"/>
</svg>
