<svg width="40" height="40" viewBox="0 0 40 40" fill="none" xmlns="http://www.w3.org/2000/svg">
<g clip-path="url(#clip0_503_23)">
<path d="M1.19998 34.265C4.82629 31.3895 7.11715 27.1611 7.11715 22.4471V16.5647C7.11715 10.0673 12.9199 4.80002 20.078 4.80002C27.2361 4.80002 33.0388 10.0673 33.0388 16.5647V22.4471C33.0388 27.1611 35.3297 31.3895 38.956 34.265" stroke="#4FB4ED" stroke-width="1.5" stroke-linecap="round" stroke-linejoin="round"/>
<path d="M20 38.88C30.6039 38.88 39.2 37.1608 39.2 35.04C39.2 32.9192 30.6039 31.2 20 31.2C9.39612 31.2 0.799988 32.9192 0.799988 35.04C0.799988 37.1608 9.39612 38.88 20 38.88Z" stroke="#4FB4ED" stroke-width="1.5" stroke-linecap="round" stroke-linejoin="round"/>
<path d="M24.6569 31.6C24.2811 33.8761 22.3039 35.6121 19.9213 35.6121C17.5675 35.6121 15.6094 33.9178 15.2 31.6823" stroke="#4FB4ED" stroke-width="1.5" stroke-linecap="round" stroke-linejoin="round"/>
<path d="M16 5.20001C16 2.99087 17.7909 1.20001 20 1.20001C22.2091 1.20001 24 2.99087 24 5.20001" stroke="#4FB4ED" stroke-width="1.5" stroke-linecap="round" stroke-linejoin="round"/>
</g>
<defs>
<clipPath id="clip0_503_23">
<rect width="40" height="40" fill="white"/>
</clipPath>
</defs>
</svg>
