<svg width="80" height="80" viewBox="0 0 80 80" fill="none" xmlns="http://www.w3.org/2000/svg">
<path d="M3.132 71.586L5.948 62.458L29.596 38.808L28.412 37.626C27.574 36.79 27.116 35.678 27.116 34.496C27.116 33.314 27.574 32.202 28.412 31.364L30.334 29.44L30.284 28.964C30.188 28.076 30.142 27.246 30.142 26.43C30.142 13.512 40.652 3.002 53.57 3.002L54.236 3.012C66.444 3.348 76.652 13.556 76.99 25.764C77.168 32.154 74.816 38.19 70.366 42.764C65.916 47.34 59.952 49.858 53.572 49.858C52.756 49.858 51.928 49.812 51.036 49.716L50.56 49.664L48.638 51.586C47.8 52.422 46.688 52.882 45.506 52.882C44.324 52.882 43.212 52.422 42.376 51.586L41.192 50.402L36.594 55H29V62.594L26.594 65H19V72.594L17.524 74.07L8.418 76.866L3.132 71.586ZM53.942 11C49.918 11 46.138 12.566 43.294 15.412L42.586 16.12L63.882 37.416L64.59 36.708C67.434 33.864 69 30.082 69 26.06C69 22.038 67.434 18.256 64.59 15.412C61.746 12.566 57.964 11 53.942 11Z" fill="#DFF0FE"/>
<path d="M53.572 4C53.784 4 53.996 4.002 54.208 4.008C65.896 4.332 75.668 14.102 75.99 25.79C76.16 31.906 73.908 37.686 69.65 42.064C65.39 46.444 59.68 48.856 53.572 48.856C52.792 48.856 51.998 48.812 51.144 48.72L50.192 48.618L49.516 49.294L47.932 50.878C47.284 51.526 46.424 51.882 45.508 51.882C44.592 51.882 43.732 51.526 43.084 50.878L42.608 50.402L41.194 48.988L39.78 50.402L36.18 54H30H28V56V62.18L26.18 64H20H18V66V72.18L16.992 73.188L8.698 75.736L4.266 71.306L6.83 62.99L29.596 40.224L31.01 38.81L29.596 37.396L29.12 36.92C28.472 36.272 28.116 35.412 28.116 34.496C28.116 33.58 28.472 32.72 29.12 32.072L30.704 30.488L31.38 29.812L31.278 28.86C31.186 28.006 31.142 27.212 31.142 26.432C31.142 14.062 41.204 4 53.572 4ZM63.882 38.828L65.296 37.414C68.33 34.382 70 30.348 70 26.058C70 21.768 68.33 17.736 65.296 14.702C62.264 11.67 58.23 10 53.942 10C49.654 10 45.62 11.67 42.586 14.704L41.172 16.118L42.586 17.532L62.468 37.414L63.882 38.828ZM53.572 2C40.08 2 29.142 12.936 29.142 26.428C29.142 27.322 29.196 28.202 29.29 29.07L27.706 30.654C25.586 32.774 25.586 36.212 27.706 38.332L28.182 38.808L5.066 61.926L2 71.866L8.136 78L18.056 74.952L20 73.008V66H27.008L30 63.008V56H37.008L41.19 51.818L41.666 52.294C42.726 53.354 44.116 53.884 45.504 53.884C46.894 53.884 48.282 53.354 49.342 52.294L50.926 50.71C51.794 50.804 52.674 50.858 53.568 50.858C67.29 50.858 78.37 39.544 77.986 25.736C77.632 12.988 67.006 2.362 54.26 2.01C54.032 2.004 53.8 2 53.572 2ZM63.882 36L44 16.118C46.746 13.372 50.344 12 53.942 12C57.54 12 61.138 13.372 63.884 16.118C69.372 21.608 69.372 30.51 63.882 36Z" fill="#4788C7"/>
<path d="M33.906 43.508L11.706 65.708C11.316 66.098 10.682 66.098 10.292 65.708C9.902 65.318 9.902 64.684 10.292 64.294L32.492 42.094C32.882 41.704 33.516 41.704 33.906 42.094C34.296 42.484 34.296 43.118 33.906 43.508Z" fill="#98CCFD"/>
<path d="M29.1971 39.8407L30.6113 38.4265L41.2549 49.0696L39.8407 50.4839L29.1971 39.8407Z" fill="#4788C7"/>
</svg>
