<svg width="80" height="80" viewBox="0 0 80 80" fill="none" xmlns="http://www.w3.org/2000/svg">
<path d="M40 77C19.598 77 3 60.402 3 40C3 19.598 19.598 3 40 3C60.402 3 77 19.598 77 40C77 60.402 60.402 77 40 77Z" fill="#DFF0FE"/>
<path d="M40 4C59.85 4 76 20.15 76 40C76 59.85 59.85 76 40 76C20.15 76 4 59.85 4 40C4 20.15 20.15 4 40 4ZM40 2C19.014 2 2 19.014 2 40C2 60.986 19.014 78 40 78C60.986 78 78 60.986 78 40C78 19.014 60.986 2 40 2Z" fill="#4788C7"/>
<path d="M47.706 49H32.294C31.396 49.214 15 53.298 15 64.424V67.22C21.588 73.274 30.348 77 40 77C49.652 77 58.412 73.274 65 67.22V64.424C65 53.304 48.604 49.214 47.706 49Z" fill="#98CCFD"/>
<path d="M40 78C30.492 78 21.372 74.434 14.324 67.958L14 67.66V64.424C14 52.484 31.324 48.204 32.062 48.028L32.294 48L47.938 48.028C48.676 48.204 66 52.484 66 64.424V67.66L65.676 67.956C58.628 74.434 49.508 78 40 78ZM16 66.778C22.632 72.728 31.138 76 40 76C48.862 76 57.368 72.728 64 66.778V64.424C64 54.38 49.156 50.392 47.584 50H32.414C30.844 50.392 16 54.378 16 64.424V66.778Z" fill="#4788C7"/>
<path d="M40 41C32.832 41 27 35.168 27 28C27 20.832 32.832 15 40 15C47.168 15 53 20.832 53 28C53 35.168 47.168 41 40 41Z" fill="white"/>
<path d="M40 42C32.28 42 26 35.718 26 28C26 20.282 32.28 14 40 14C47.72 14 54 20.282 54 28C54 35.718 47.72 42 40 42ZM40 16C33.382 16 28 21.382 28 28C28 34.618 33.382 40 40 40C46.618 40 52 34.618 52 28C52 21.382 46.618 16 40 16Z" fill="#4788C7"/>
</svg>
