<svg width="80" height="80" viewBox="0 0 80 80" fill="none" xmlns="http://www.w3.org/2000/svg">
<path d="M24.25 75.45C21.05 75.45 18.45 72.848 18.45 69.65V10.25C18.45 7.05 21.052 4.45 24.25 4.45H55.75C58.95 4.45 61.55 7.052 61.55 10.25V69.75C61.55 72.95 58.948 75.55 55.75 75.55L24.25 75.45Z" fill="#98CCFD"/>
<path d="M18.84 12.95H61.058V66.95H18.84V12.95Z" fill="#DFF0FE"/>
<path d="M41 8.95C41 9.5 40.55 9.95 40 9.95C39.45 9.95 39 9.5 39 8.95C39 8.4 39.45 7.95 40 7.95C40.55 7.95 41 8.398 41 8.95Z" fill="#4788C7"/>
<path d="M44 59C43.74 59 43.482 58.9 43.286 58.7L36.382 51.65C36.2 51.464 36.096 51.212 36.096 50.95V46.424L30.366 41.724C29.982 41.408 29.886 40.86 30.144 40.434L35.608 31.374L18.822 22.094C18.338 21.828 18.162 21.218 18.43 20.736C18.696 20.252 19.302 20.076 19.788 20.344L37.484 30.126C37.722 30.256 37.896 30.48 37.966 30.742C38.036 31.004 37.998 31.284 37.856 31.518L32.302 40.726L37.73 45.178C37.962 45.368 38.096 45.652 38.096 45.952V50.544L44.714 57.304C45.1 57.698 45.092 58.332 44.698 58.718C44.504 58.906 44.252 59 44 59Z" fill="white"/>
<path d="M61 12H19V14H61V12Z" fill="#4788C7"/>
<path d="M61 66H19V68H61V66Z" fill="#4788C7"/>
<path d="M55.612 6C58.002 6 59.93 7.91 60 10.292V69.708C60 72.114 58.118 74 55.714 74H24.286C21.882 74 20 72.114 20 69.708V10.292C20 7.886 21.882 6 24.286 6H55.612ZM55.612 4H24.286C20.794 4 18 6.796 18 10.292V69.708C18 73.204 20.794 76 24.286 76H55.714C59.206 76 62 73.204 62 69.708V10.292C61.898 6.796 59.104 4 55.612 4Z" fill="#4788C7"/>
<path d="M44 72H36C35.448 72 35 71.552 35 71C35 70.448 35.448 70 36 70H44C44.552 70 45 70.448 45 71C45 71.552 44.552 72 44 72Z" fill="#4788C7"/>
</svg>
