<svg width="130" height="130" viewBox="0 0 130 130" fill="none" xmlns="http://www.w3.org/2000/svg">
<rect x="0" y="0" width="100%" height="100%" fill="#FFFFFF" />
<g><path fill="#168CD0" d="M64,128a64,64,0,1,1,64-64A64,64,0,0,1,64,128ZM64,2.75A61.25,61.25,0,1,0,125.25,64,61.25,61.25,0,0,0,64,2.75Z"/><path fill="#00b7ff" d="M64 128a64 64 0 1 1 64-64 64 64 0 0 1-64 64zM64 2.75A61.2 61.2 0 0 0 3.34 72.4c1.28-3.52 3.9-6.32 7.5-6.86 6.55-1 11.9 2.63 13.6 8.08 3.52 11.27.5 23 15 35.25 19.47 16.46 40.34 13.54 52.84 9.46A61.25 61.25 0 0 0 64 2.75z"/>
<animateTransform attributeName="transform" type="rotate" from="0 64 64" to="360 64 64" dur="1800ms" repeatCount="indefinite"></animateTransform></g>

<svg x="27" y="38">
<path d="M6.82094 0.639999L10.5329 5.584L14.2289 0.639999H15.4929L11.1409 6.4L15.3649 12H14.1009L10.5329 7.216L6.94894 12H5.66894L9.89294 6.4L5.54094 0.639999H6.82094ZM25.5383 9.072C25.5383 9.63733 25.3943 10.144 25.1063 10.592C24.8183 11.0293 24.429 11.376 23.9383 11.632C23.4583 11.8773 22.9303 12 22.3543 12H16.9943V0.639999H22.4663C22.9996 0.639999 23.4583 0.783999 23.8423 1.072C24.237 1.34933 24.5356 1.712 24.7383 2.16C24.9516 2.59733 25.0583 3.056 25.0583 3.536C25.0583 4.10133 24.9143 4.624 24.6263 5.104C24.3383 5.584 23.9383 5.94133 23.4263 6.176C24.077 6.368 24.589 6.72533 24.9623 7.248C25.3463 7.77067 25.5383 8.37867 25.5383 9.072ZM24.4183 8.88C24.4183 8.496 24.333 8.144 24.1623 7.824C23.9916 7.49333 23.757 7.22667 23.4583 7.024C23.1703 6.82133 22.8396 6.72 22.4663 6.72H18.1143V11.024H22.3543C22.7383 11.024 23.085 10.9227 23.3943 10.72C23.7036 10.5173 23.949 10.256 24.1303 9.936C24.3223 9.60533 24.4183 9.25333 24.4183 8.88ZM18.1143 1.616V5.808H22.0183C22.3916 5.808 22.7223 5.712 23.0103 5.52C23.2983 5.31733 23.5276 5.056 23.6983 4.736C23.869 4.416 23.9543 4.07467 23.9543 3.712C23.9543 3.328 23.8743 2.98133 23.7143 2.672C23.5543 2.352 23.3356 2.096 23.0583 1.904C22.781 1.712 22.4663 1.616 22.1143 1.616H18.1143ZM27.6506 12V0.639999H28.7706V12H27.6506ZM32.7393 2.704V12H31.6193V0.639999H32.5473L40.0033 10.112V0.655999H41.1233V12H40.0833L32.7393 2.704ZM47.1608 7.584L53.8648 3.552V4.72L48.7448 7.856L53.8648 10.976V12.176L47.1608 8.176V7.584ZM63.9738 0.639999L56.4218 12H55.1898L62.7418 0.639999H63.9738ZM71.9981 8.176L65.2941 12.176V10.976L70.4141 7.856L65.2941 4.72V3.552L71.9981 7.584V8.176Z" fill="#168CD0"/>
<path d="M5.90738 25.076C5.78738 24.94 5.64738 24.82 5.48738 24.716C5.32738 24.604 5.14738 24.508 4.94738 24.428C4.74738 24.348 4.53138 24.284 4.29938 24.236C4.07538 24.188 3.83538 24.164 3.57938 24.164C2.83538 24.164 2.28738 24.308 1.93538 24.596C1.59138 24.876 1.41938 25.26 1.41938 25.748C1.41938 26.084 1.49938 26.348 1.65938 26.54C1.82738 26.732 2.08738 26.888 2.43938 27.008C2.79138 27.128 3.23938 27.252 3.78338 27.38C4.39138 27.508 4.91538 27.66 5.35538 27.836C5.79538 28.012 6.13538 28.252 6.37538 28.556C6.61538 28.852 6.73538 29.256 6.73538 29.768C6.73538 30.16 6.65938 30.5 6.50738 30.788C6.35538 31.076 6.14338 31.316 5.87138 31.508C5.59938 31.7 5.27538 31.844 4.89938 31.94C4.52338 32.028 4.11138 32.072 3.66338 32.072C3.22338 32.072 2.79938 32.028 2.39138 31.94C1.99138 31.844 1.61138 31.708 1.25138 31.532C0.891375 31.348 0.555375 31.116 0.243375 30.836L0.663375 30.152C0.815375 30.312 0.995375 30.464 1.20338 30.608C1.41938 30.744 1.65538 30.868 1.91138 30.98C2.17538 31.092 2.45538 31.18 2.75138 31.244C3.05538 31.3 3.36738 31.328 3.68738 31.328C4.36738 31.328 4.89538 31.204 5.27138 30.956C5.65538 30.708 5.84738 30.34 5.84738 29.852C5.84738 29.5 5.75138 29.22 5.55938 29.012C5.36738 28.796 5.07938 28.62 4.69538 28.484C4.31138 28.348 3.83938 28.216 3.27938 28.088C2.68738 27.952 2.18738 27.8 1.77938 27.632C1.37138 27.464 1.06338 27.244 0.855375 26.972C0.655375 26.692 0.555375 26.324 0.555375 25.868C0.555375 25.34 0.683375 24.896 0.939375 24.536C1.20338 24.168 1.56338 23.892 2.01938 23.708C2.47538 23.516 2.99938 23.42 3.59138 23.42C3.96738 23.42 4.31538 23.46 4.63538 23.54C4.96338 23.612 5.26338 23.72 5.53538 23.864C5.81538 24.008 6.07538 24.188 6.31538 24.404L5.90738 25.076ZM8.08444 23.24H8.90044V30.584C8.90044 30.896 8.95644 31.1 9.06844 31.196C9.18044 31.292 9.31644 31.34 9.47644 31.34C9.62044 31.34 9.76444 31.324 9.90844 31.292C10.0524 31.26 10.1764 31.228 10.2804 31.196L10.4244 31.856C10.2724 31.92 10.0844 31.972 9.86044 32.012C9.64444 32.052 9.45644 32.072 9.29644 32.072C8.92844 32.072 8.63244 31.964 8.40844 31.748C8.19244 31.532 8.08444 31.236 8.08444 30.86V23.24ZM13.982 32.12C13.534 32.12 13.118 32.036 12.734 31.868C12.358 31.692 12.03 31.456 11.75 31.16C11.478 30.856 11.266 30.512 11.114 30.128C10.962 29.736 10.886 29.324 10.886 28.892C10.886 28.444 10.962 28.028 11.114 27.644C11.266 27.252 11.482 26.908 11.762 26.612C12.042 26.308 12.37 26.072 12.746 25.904C13.13 25.728 13.546 25.64 13.994 25.64C14.442 25.64 14.854 25.728 15.23 25.904C15.606 26.072 15.934 26.308 16.214 26.612C16.494 26.908 16.71 27.252 16.862 27.644C17.014 28.028 17.09 28.444 17.09 28.892C17.09 29.324 17.014 29.736 16.862 30.128C16.71 30.512 16.494 30.856 16.214 31.16C15.942 31.456 15.614 31.692 15.23 31.868C14.854 32.036 14.438 32.12 13.982 32.12ZM11.714 28.904C11.714 29.368 11.814 29.792 12.014 30.176C12.222 30.552 12.498 30.852 12.842 31.076C13.186 31.292 13.566 31.4 13.982 31.4C14.398 31.4 14.778 31.288 15.122 31.064C15.466 30.84 15.742 30.536 15.95 30.152C16.158 29.76 16.262 29.336 16.262 28.88C16.262 28.416 16.158 27.992 15.95 27.608C15.742 27.224 15.466 26.92 15.122 26.696C14.778 26.472 14.398 26.36 13.982 26.36C13.566 26.36 13.186 26.476 12.842 26.708C12.506 26.94 12.234 27.248 12.026 27.632C11.818 28.008 11.714 28.432 11.714 28.904ZM26.1158 25.748H26.9198L24.2318 32H23.5238L22.2158 28.892L20.9198 32H20.2118L17.5238 25.748H18.3158L20.5958 31.16L21.7478 28.34L20.6918 25.76H21.4238L22.2158 27.788L23.0198 25.76H23.7398L22.6958 28.34L23.8478 31.16L26.1158 25.748ZM35.9802 32H35.1642V28.508C35.1642 27.772 35.0562 27.236 34.8402 26.9C34.6242 26.556 34.2842 26.384 33.8202 26.384C33.5002 26.384 33.1842 26.464 32.8722 26.624C32.5602 26.776 32.2842 26.988 32.0442 27.26C31.8122 27.524 31.6442 27.828 31.5402 28.172V32H30.7242V25.748H31.4682V27.164C31.6362 26.86 31.8562 26.596 32.1282 26.372C32.4002 26.14 32.7082 25.96 33.0522 25.832C33.3962 25.704 33.7522 25.64 34.1202 25.64C34.4642 25.64 34.7562 25.704 34.9962 25.832C35.2362 25.96 35.4282 26.144 35.5722 26.384C35.7162 26.616 35.8202 26.9 35.8842 27.236C35.9482 27.564 35.9802 27.932 35.9802 28.34V32ZM40.4203 32.12C39.9723 32.12 39.5563 32.036 39.1723 31.868C38.7883 31.692 38.4563 31.456 38.1763 31.16C37.8963 30.856 37.6763 30.508 37.5163 30.116C37.3643 29.724 37.2883 29.304 37.2883 28.856C37.2883 28.272 37.4203 27.736 37.6843 27.248C37.9563 26.76 38.3283 26.372 38.8003 26.084C39.2723 25.788 39.8083 25.64 40.4083 25.64C41.0243 25.64 41.5603 25.788 42.0163 26.084C42.4803 26.38 42.8443 26.772 43.1083 27.26C43.3723 27.74 43.5043 28.268 43.5043 28.844C43.5043 28.908 43.5043 28.972 43.5043 29.036C43.5043 29.092 43.5003 29.136 43.4923 29.168H38.1403C38.1803 29.616 38.3043 30.016 38.5123 30.368C38.7283 30.712 39.0043 30.988 39.3403 31.196C39.6843 31.396 40.0563 31.496 40.4563 31.496C40.8643 31.496 41.2483 31.392 41.6083 31.184C41.9763 30.976 42.2323 30.704 42.3763 30.368L43.0843 30.56C42.9563 30.856 42.7603 31.124 42.4963 31.364C42.2323 31.604 41.9203 31.792 41.5603 31.928C41.2083 32.056 40.8283 32.12 40.4203 32.12ZM38.1163 28.58H42.7363C42.7043 28.124 42.5803 27.724 42.3643 27.38C42.1563 27.036 41.8803 26.768 41.5363 26.576C41.2003 26.376 40.8283 26.276 40.4203 26.276C40.0123 26.276 39.6403 26.376 39.3043 26.576C38.9683 26.768 38.6923 27.04 38.4763 27.392C38.2683 27.736 38.1483 28.132 38.1163 28.58ZM47.7047 31.7C47.6407 31.724 47.5407 31.768 47.4047 31.832C47.2687 31.896 47.1047 31.952 46.9127 32C46.7207 32.048 46.5127 32.072 46.2887 32.072C46.0567 32.072 45.8367 32.028 45.6287 31.94C45.4287 31.852 45.2687 31.72 45.1487 31.544C45.0287 31.36 44.9687 31.136 44.9687 30.872V26.396H44.1047V25.748H44.9687V23.636H45.7847V25.748H47.2247V26.396H45.7847V30.644C45.8007 30.868 45.8807 31.036 46.0247 31.148C46.1767 31.26 46.3487 31.316 46.5407 31.316C46.7647 31.316 46.9687 31.28 47.1527 31.208C47.3367 31.128 47.4487 31.072 47.4887 31.04L47.7047 31.7ZM56.5962 25.748H57.4002L54.7122 32H54.0042L52.6962 28.892L51.4002 32H50.6922L48.0042 25.748H48.7962L51.0762 31.16L52.2282 28.34L51.1722 25.76H51.9042L52.6962 27.788L53.5002 25.76H54.2202L53.1762 28.34L54.3282 31.16L56.5962 25.748ZM60.939 32.12C60.491 32.12 60.075 32.036 59.691 31.868C59.315 31.692 58.987 31.456 58.707 31.16C58.435 30.856 58.223 30.512 58.071 30.128C57.919 29.736 57.843 29.324 57.843 28.892C57.843 28.444 57.919 28.028 58.071 27.644C58.223 27.252 58.439 26.908 58.719 26.612C58.999 26.308 59.327 26.072 59.703 25.904C60.087 25.728 60.503 25.64 60.951 25.64C61.399 25.64 61.811 25.728 62.187 25.904C62.563 26.072 62.891 26.308 63.171 26.612C63.451 26.908 63.667 27.252 63.819 27.644C63.971 28.028 64.047 28.444 64.047 28.892C64.047 29.324 63.971 29.736 63.819 30.128C63.667 30.512 63.451 30.856 63.171 31.16C62.899 31.456 62.571 31.692 62.187 31.868C61.811 32.036 61.395 32.12 60.939 32.12ZM58.671 28.904C58.671 29.368 58.771 29.792 58.971 30.176C59.179 30.552 59.455 30.852 59.799 31.076C60.143 31.292 60.523 31.4 60.939 31.4C61.355 31.4 61.735 31.288 62.079 31.064C62.423 30.84 62.699 30.536 62.907 30.152C63.115 29.76 63.219 29.336 63.219 28.88C63.219 28.416 63.115 27.992 62.907 27.608C62.699 27.224 62.423 26.92 62.079 26.696C61.735 26.472 61.355 26.36 60.939 26.36C60.523 26.36 60.143 26.476 59.799 26.708C59.463 26.94 59.191 27.248 58.983 27.632C58.775 28.008 58.671 28.432 58.671 28.904ZM68.5317 26.468C67.9877 26.484 67.5077 26.636 67.0917 26.924C66.6837 27.212 66.3957 27.608 66.2277 28.112V32H65.4117V25.748H66.1797V27.248C66.3957 26.808 66.6797 26.452 67.0317 26.18C67.3917 25.908 67.7717 25.756 68.1717 25.724C68.2517 25.716 68.3197 25.712 68.3757 25.712C68.4397 25.712 68.4917 25.716 68.5317 25.724V26.468ZM74.0828 32L71.7668 28.796L70.4348 30.044V32H69.6188V23.24H70.4348V29.168L73.9748 25.76H74.8748L72.3188 28.316L74.9708 32H74.0828ZM22.2027 46.12C21.7547 46.12 21.3387 46.036 20.9547 45.868C20.5787 45.692 20.2507 45.456 19.9707 45.16C19.6987 44.856 19.4867 44.512 19.3347 44.128C19.1827 43.736 19.1067 43.324 19.1067 42.892C19.1067 42.444 19.1827 42.028 19.3347 41.644C19.4867 41.252 19.7027 40.908 19.9827 40.612C20.2627 40.308 20.5907 40.072 20.9667 39.904C21.3507 39.728 21.7667 39.64 22.2147 39.64C22.6627 39.64 23.0747 39.728 23.4507 39.904C23.8267 40.072 24.1547 40.308 24.4347 40.612C24.7147 40.908 24.9307 41.252 25.0827 41.644C25.2347 42.028 25.3107 42.444 25.3107 42.892C25.3107 43.324 25.2347 43.736 25.0827 44.128C24.9307 44.512 24.7147 44.856 24.4347 45.16C24.1627 45.456 23.8347 45.692 23.4507 45.868C23.0747 46.036 22.6587 46.12 22.2027 46.12ZM19.9347 42.904C19.9347 43.368 20.0347 43.792 20.2347 44.176C20.4427 44.552 20.7187 44.852 21.0627 45.076C21.4067 45.292 21.7867 45.4 22.2027 45.4C22.6187 45.4 22.9987 45.288 23.3427 45.064C23.6867 44.84 23.9627 44.536 24.1707 44.152C24.3787 43.76 24.4827 43.336 24.4827 42.88C24.4827 42.416 24.3787 41.992 24.1707 41.608C23.9627 41.224 23.6867 40.92 23.3427 40.696C22.9987 40.472 22.6187 40.36 22.2027 40.36C21.7867 40.36 21.4067 40.476 21.0627 40.708C20.7267 40.94 20.4547 41.248 20.2467 41.632C20.0387 42.008 19.9347 42.432 19.9347 42.904ZM29.7954 40.468C29.2514 40.484 28.7714 40.636 28.3554 40.924C27.9474 41.212 27.6594 41.608 27.4914 42.112V46H26.6754V39.748H27.4434V41.248C27.6594 40.808 27.9434 40.452 28.2954 40.18C28.6554 39.908 29.0354 39.756 29.4354 39.724C29.5154 39.716 29.5834 39.712 29.6394 39.712C29.7034 39.712 29.7554 39.716 29.7954 39.724V40.468ZM36.3598 46.12C35.9118 46.12 35.4958 46.036 35.1118 45.868C34.7278 45.692 34.3958 45.456 34.1158 45.16C33.8358 44.856 33.6158 44.508 33.4558 44.116C33.3038 43.724 33.2278 43.304 33.2278 42.856C33.2278 42.272 33.3598 41.736 33.6238 41.248C33.8958 40.76 34.2678 40.372 34.7398 40.084C35.2118 39.788 35.7478 39.64 36.3478 39.64C36.9638 39.64 37.4998 39.788 37.9558 40.084C38.4198 40.38 38.7838 40.772 39.0478 41.26C39.3118 41.74 39.4438 42.268 39.4438 42.844C39.4438 42.908 39.4438 42.972 39.4438 43.036C39.4438 43.092 39.4398 43.136 39.4318 43.168H34.0798C34.1198 43.616 34.2438 44.016 34.4518 44.368C34.6678 44.712 34.9438 44.988 35.2798 45.196C35.6238 45.396 35.9958 45.496 36.3958 45.496C36.8038 45.496 37.1878 45.392 37.5478 45.184C37.9158 44.976 38.1718 44.704 38.3158 44.368L39.0238 44.56C38.8958 44.856 38.6998 45.124 38.4358 45.364C38.1718 45.604 37.8598 45.792 37.4998 45.928C37.1478 46.056 36.7678 46.12 36.3598 46.12ZM34.0558 42.58H38.6758C38.6438 42.124 38.5198 41.724 38.3038 41.38C38.0958 41.036 37.8198 40.768 37.4758 40.576C37.1398 40.376 36.7678 40.276 36.3598 40.276C35.9518 40.276 35.5798 40.376 35.2438 40.576C34.9078 40.768 34.6318 41.04 34.4158 41.392C34.2078 41.736 34.0878 42.132 34.0558 42.58ZM43.8227 40.468C43.2787 40.484 42.7987 40.636 42.3827 40.924C41.9747 41.212 41.6867 41.608 41.5187 42.112V46H40.7027V39.748H41.4707V41.248C41.6867 40.808 41.9707 40.452 42.3227 40.18C42.6827 39.908 43.0627 39.756 43.4627 39.724C43.5427 39.716 43.6107 39.712 43.6667 39.712C43.7307 39.712 43.7827 39.716 43.8227 39.724V40.468ZM48.0298 40.468C47.4858 40.484 47.0058 40.636 46.5898 40.924C46.1818 41.212 45.8938 41.608 45.7258 42.112V46H44.9098V39.748H45.6778V41.248C45.8938 40.808 46.1778 40.452 46.5298 40.18C46.8898 39.908 47.2698 39.756 47.6698 39.724C47.7498 39.716 47.8178 39.712 47.8738 39.712C47.9378 39.712 47.9898 39.716 48.0298 39.724V40.468ZM51.5816 46.12C51.1336 46.12 50.7176 46.036 50.3336 45.868C49.9576 45.692 49.6296 45.456 49.3496 45.16C49.0776 44.856 48.8656 44.512 48.7136 44.128C48.5616 43.736 48.4856 43.324 48.4856 42.892C48.4856 42.444 48.5616 42.028 48.7136 41.644C48.8656 41.252 49.0816 40.908 49.3616 40.612C49.6416 40.308 49.9696 40.072 50.3456 39.904C50.7296 39.728 51.1456 39.64 51.5936 39.64C52.0416 39.64 52.4536 39.728 52.8296 39.904C53.2056 40.072 53.5336 40.308 53.8136 40.612C54.0936 40.908 54.3096 41.252 54.4616 41.644C54.6136 42.028 54.6896 42.444 54.6896 42.892C54.6896 43.324 54.6136 43.736 54.4616 44.128C54.3096 44.512 54.0936 44.856 53.8136 45.16C53.5416 45.456 53.2136 45.692 52.8296 45.868C52.4536 46.036 52.0376 46.12 51.5816 46.12ZM49.3136 42.904C49.3136 43.368 49.4136 43.792 49.6136 44.176C49.8216 44.552 50.0976 44.852 50.4416 45.076C50.7856 45.292 51.1656 45.4 51.5816 45.4C51.9976 45.4 52.3776 45.288 52.7216 45.064C53.0656 44.84 53.3416 44.536 53.5496 44.152C53.7576 43.76 53.8616 43.336 53.8616 42.88C53.8616 42.416 53.7576 41.992 53.5496 41.608C53.3416 41.224 53.0656 40.92 52.7216 40.696C52.3776 40.472 51.9976 40.36 51.5816 40.36C51.1656 40.36 50.7856 40.476 50.4416 40.708C50.1056 40.94 49.8336 41.248 49.6256 41.632C49.4176 42.008 49.3136 42.432 49.3136 42.904ZM59.1743 40.468C58.6303 40.484 58.1503 40.636 57.7343 40.924C57.3263 41.212 57.0383 41.608 56.8703 42.112V46H56.0543V39.748H56.8223V41.248C57.0383 40.808 57.3223 40.452 57.6743 40.18C58.0343 39.908 58.4143 39.756 58.8143 39.724C58.8943 39.716 58.9623 39.712 59.0183 39.712C59.0823 39.712 59.1343 39.716 59.1743 39.724V40.468ZM19.2173 51.24H20.0333V58.584C20.0333 58.896 20.0893 59.1 20.2013 59.196C20.3133 59.292 20.4493 59.34 20.6093 59.34C20.7533 59.34 20.8973 59.324 21.0413 59.292C21.1853 59.26 21.3093 59.228 21.4133 59.196L21.5573 59.856C21.4053 59.92 21.2173 59.972 20.9933 60.012C20.7773 60.052 20.5893 60.072 20.4293 60.072C20.0613 60.072 19.7653 59.964 19.5413 59.748C19.3253 59.532 19.2173 59.236 19.2173 58.86V51.24ZM25.1148 60.12C24.6668 60.12 24.2508 60.036 23.8668 59.868C23.4908 59.692 23.1628 59.456 22.8828 59.16C22.6108 58.856 22.3988 58.512 22.2468 58.128C22.0948 57.736 22.0188 57.324 22.0188 56.892C22.0188 56.444 22.0948 56.028 22.2468 55.644C22.3988 55.252 22.6148 54.908 22.8948 54.612C23.1748 54.308 23.5028 54.072 23.8788 53.904C24.2628 53.728 24.6788 53.64 25.1268 53.64C25.5748 53.64 25.9868 53.728 26.3628 53.904C26.7388 54.072 27.0668 54.308 27.3468 54.612C27.6268 54.908 27.8428 55.252 27.9948 55.644C28.1468 56.028 28.2228 56.444 28.2228 56.892C28.2228 57.324 28.1468 57.736 27.9948 58.128C27.8428 58.512 27.6268 58.856 27.3468 59.16C27.0748 59.456 26.7468 59.692 26.3628 59.868C25.9868 60.036 25.5708 60.12 25.1148 60.12ZM22.8468 56.904C22.8468 57.368 22.9468 57.792 23.1468 58.176C23.3548 58.552 23.6308 58.852 23.9748 59.076C24.3188 59.292 24.6988 59.4 25.1148 59.4C25.5308 59.4 25.9108 59.288 26.2548 59.064C26.5988 58.84 26.8748 58.536 27.0828 58.152C27.2908 57.76 27.3948 57.336 27.3948 56.88C27.3948 56.416 27.2908 55.992 27.0828 55.608C26.8748 55.224 26.5988 54.92 26.2548 54.696C25.9108 54.472 25.5308 54.36 25.1148 54.36C24.6988 54.36 24.3188 54.476 23.9748 54.708C23.6388 54.94 23.3668 55.248 23.1588 55.632C22.9508 56.008 22.8468 56.432 22.8468 56.904ZM29.0835 58.2C29.0835 57.808 29.1955 57.472 29.4195 57.192C29.6435 56.904 29.9515 56.684 30.3435 56.532C30.7435 56.372 31.2035 56.292 31.7235 56.292C32.0275 56.292 32.3435 56.316 32.6715 56.364C32.9995 56.412 33.2915 56.484 33.5475 56.58V56.052C33.5475 55.524 33.3915 55.104 33.0795 54.792C32.7675 54.48 32.3355 54.324 31.7835 54.324C31.4475 54.324 31.1155 54.388 30.7875 54.516C30.4675 54.636 30.1315 54.816 29.7795 55.056L29.4675 54.48C29.8755 54.2 30.2755 53.992 30.6675 53.856C31.0595 53.712 31.4595 53.64 31.8675 53.64C32.6355 53.64 33.2435 53.86 33.6915 54.3C34.1395 54.74 34.3635 55.348 34.3635 56.124V59.016C34.3635 59.128 34.3875 59.212 34.4355 59.268C34.4835 59.316 34.5595 59.344 34.6635 59.352V60C34.5755 60.008 34.4995 60.016 34.4355 60.024C34.3715 60.032 34.3235 60.032 34.2915 60.024C34.0915 60.016 33.9395 59.952 33.8355 59.832C33.7315 59.712 33.6755 59.584 33.6675 59.448L33.6555 58.992C33.3755 59.352 33.0115 59.632 32.5635 59.832C32.1155 60.024 31.6595 60.12 31.1955 60.12C30.7955 60.12 30.4315 60.036 30.1035 59.868C29.7835 59.692 29.5315 59.46 29.3475 59.172C29.1715 58.876 29.0835 58.552 29.0835 58.2ZM33.2715 58.68C33.3595 58.568 33.4275 58.46 33.4755 58.356C33.5235 58.252 33.5475 58.16 33.5475 58.08V57.168C33.2755 57.064 32.9915 56.984 32.6955 56.928C32.4075 56.872 32.1155 56.844 31.8195 56.844C31.2355 56.844 30.7635 56.96 30.4035 57.192C30.0435 57.424 29.8635 57.74 29.8635 58.14C29.8635 58.372 29.9235 58.592 30.0435 58.8C30.1635 59 30.3395 59.168 30.5715 59.304C30.8035 59.432 31.0755 59.496 31.3875 59.496C31.7795 59.496 32.1435 59.42 32.4795 59.268C32.8235 59.116 33.0875 58.92 33.2715 58.68ZM35.7066 56.892C35.7066 56.3 35.8266 55.76 36.0666 55.272C36.3146 54.776 36.6546 54.38 37.0866 54.084C37.5186 53.788 38.0106 53.64 38.5626 53.64C39.0826 53.64 39.5466 53.78 39.9546 54.06C40.3706 54.332 40.6946 54.664 40.9266 55.056V51.24H41.7426V59.016C41.7426 59.128 41.7666 59.212 41.8146 59.268C41.8626 59.316 41.9346 59.344 42.0306 59.352V60C41.8706 60.024 41.7466 60.032 41.6586 60.024C41.4906 60.016 41.3426 59.948 41.2146 59.82C41.0866 59.692 41.0226 59.552 41.0226 59.4V58.788C40.7746 59.196 40.4386 59.52 40.0146 59.76C39.5906 60 39.1506 60.12 38.6946 60.12C38.2626 60.12 37.8626 60.032 37.4946 59.856C37.1346 59.68 36.8186 59.44 36.5466 59.136C36.2826 58.832 36.0746 58.488 35.9226 58.104C35.7786 57.712 35.7066 57.308 35.7066 56.892ZM40.9266 57.852V55.92C40.8226 55.632 40.6546 55.372 40.4226 55.14C40.1906 54.9 39.9266 54.712 39.6306 54.576C39.3426 54.432 39.0546 54.36 38.7666 54.36C38.4306 54.36 38.1266 54.432 37.8546 54.576C37.5826 54.712 37.3466 54.9 37.1466 55.14C36.9546 55.38 36.8066 55.652 36.7026 55.956C36.5986 56.26 36.5466 56.572 36.5466 56.892C36.5466 57.228 36.6026 57.548 36.7146 57.852C36.8346 58.156 37.0026 58.428 37.2186 58.668C37.4346 58.9 37.6826 59.08 37.9626 59.208C38.2426 59.336 38.5466 59.4 38.8746 59.4C39.0826 59.4 39.2986 59.36 39.5226 59.28C39.7466 59.2 39.9586 59.092 40.1586 58.956C40.3666 58.812 40.5386 58.644 40.6746 58.452C40.8106 58.26 40.8946 58.06 40.9266 57.852ZM43.5914 60V53.748H44.4074V60H43.5914ZM43.5914 52.44V51.24H44.4074V52.44H43.5914ZM51.4607 60H50.6447V56.508C50.6447 55.772 50.5367 55.236 50.3207 54.9C50.1047 54.556 49.7647 54.384 49.3007 54.384C48.9807 54.384 48.6647 54.464 48.3527 54.624C48.0407 54.776 47.7647 54.988 47.5247 55.26C47.2927 55.524 47.1247 55.828 47.0207 56.172V60H46.2047V53.748H46.9487V55.164C47.1167 54.86 47.3367 54.596 47.6087 54.372C47.8807 54.14 48.1887 53.96 48.5327 53.832C48.8767 53.704 49.2327 53.64 49.6007 53.64C49.9447 53.64 50.2367 53.704 50.4767 53.832C50.7167 53.96 50.9087 54.144 51.0527 54.384C51.1967 54.616 51.3007 54.9 51.3647 55.236C51.4287 55.564 51.4607 55.932 51.4607 56.34V60ZM55.7088 60.084C55.2848 60.084 54.8928 59.996 54.5328 59.82C54.1728 59.644 53.8608 59.408 53.5968 59.112C53.3408 58.808 53.1408 58.464 52.9968 58.08C52.8528 57.696 52.7808 57.3 52.7808 56.892C52.7808 56.452 52.8488 56.04 52.9848 55.656C53.1288 55.264 53.3288 54.916 53.5848 54.612C53.8488 54.308 54.1568 54.072 54.5088 53.904C54.8608 53.728 55.2528 53.64 55.6848 53.64C56.2208 53.64 56.6848 53.776 57.0768 54.048C57.4768 54.32 57.8128 54.656 58.0848 55.056V53.748H58.8168V60.024C58.8168 60.6 58.6768 61.084 58.3968 61.476C58.1248 61.876 57.7528 62.176 57.2808 62.376C56.8168 62.576 56.3088 62.676 55.7568 62.676C55.0448 62.676 54.4688 62.548 54.0288 62.292C53.5888 62.036 53.2288 61.692 52.9488 61.26L53.4528 60.864C53.7008 61.256 54.0288 61.548 54.4368 61.74C54.8528 61.932 55.2928 62.028 55.7568 62.028C56.1648 62.028 56.5368 61.952 56.8728 61.8C57.2168 61.656 57.4888 61.436 57.6888 61.14C57.8968 60.844 58.0008 60.472 58.0008 60.024V58.788C57.7608 59.18 57.4328 59.496 57.0168 59.736C56.6008 59.968 56.1648 60.084 55.7088 60.084ZM55.9368 59.4C56.1848 59.4 56.4208 59.356 56.6448 59.268C56.8768 59.18 57.0888 59.064 57.2808 58.92C57.4728 58.768 57.6328 58.6 57.7608 58.416C57.8888 58.232 57.9688 58.044 58.0008 57.852V55.92C57.8808 55.616 57.7088 55.348 57.4848 55.116C57.2608 54.876 57.0048 54.692 56.7168 54.564C56.4368 54.428 56.1448 54.36 55.8408 54.36C55.4888 54.36 55.1728 54.436 54.8928 54.588C54.6208 54.732 54.3888 54.928 54.1968 55.176C54.0128 55.416 53.8688 55.688 53.7648 55.992C53.6608 56.296 53.6088 56.6 53.6088 56.904C53.6088 57.24 53.6688 57.56 53.7888 57.864C53.9088 58.16 54.0728 58.428 54.2808 58.668C54.4968 58.9 54.7448 59.08 55.0248 59.208C55.3128 59.336 55.6168 59.4 55.9368 59.4Z" fill="#DC4F4F"/>
</svg>
</svg>