<svg width="130" height="130" viewBox="0 0 130 130" fill="none" xmlns="http://www.w3.org/2000/svg">
<rect x="0" y="0" width="100%" height="100%" fill="#FFFFFF" />
<g><path fill="#168CD0" d="M64,128a64,64,0,1,1,64-64A64,64,0,0,1,64,128ZM64,2.75A61.25,61.25,0,1,0,125.25,64,61.25,61.25,0,0,0,64,2.75Z"/><path fill="#00b7ff" d="M64 128a64 64 0 1 1 64-64 64 64 0 0 1-64 64zM64 2.75A61.2 61.2 0 0 0 3.34 72.4c1.28-3.52 3.9-6.32 7.5-6.86 6.55-1 11.9 2.63 13.6 8.08 3.52 11.27.5 23 15 35.25 19.47 16.46 40.34 13.54 52.84 9.46A61.25 61.25 0 0 0 64 2.75z"/>
<animateTransform attributeName="transform" type="rotate" from="0 64 64" to="360 64 64" dur="1800ms" repeatCount="indefinite"></animateTransform></g>

<svg x="31" y="46">
<path d="M1.82094 0.639999L5.53294 5.584L9.22894 0.639999H10.4929L6.14094 6.4L10.3649 12H9.10094L5.53294 7.216L1.94894 12H0.668938L4.89294 6.4L0.540938 0.639999H1.82094ZM20.5383 9.072C20.5383 9.63733 20.3943 10.144 20.1063 10.592C19.8183 11.0293 19.429 11.376 18.9383 11.632C18.4583 11.8773 17.9303 12 17.3543 12H11.9943V0.639999H17.4663C17.9996 0.639999 18.4583 0.783999 18.8423 1.072C19.237 1.34933 19.5356 1.712 19.7383 2.16C19.9516 2.59733 20.0583 3.056 20.0583 3.536C20.0583 4.10133 19.9143 4.624 19.6263 5.104C19.3383 5.584 18.9383 5.94133 18.4263 6.176C19.077 6.368 19.589 6.72533 19.9623 7.248C20.3463 7.77067 20.5383 8.37867 20.5383 9.072ZM19.4183 8.88C19.4183 8.496 19.333 8.144 19.1623 7.824C18.9916 7.49333 18.757 7.22667 18.4583 7.024C18.1703 6.82133 17.8396 6.72 17.4663 6.72H13.1143V11.024H17.3543C17.7383 11.024 18.085 10.9227 18.3943 10.72C18.7036 10.5173 18.949 10.256 19.1303 9.936C19.3223 9.60533 19.4183 9.25333 19.4183 8.88ZM13.1143 1.616V5.808H17.0183C17.3916 5.808 17.7223 5.712 18.0103 5.52C18.2983 5.31733 18.5276 5.056 18.6983 4.736C18.869 4.416 18.9543 4.07467 18.9543 3.712C18.9543 3.328 18.8743 2.98133 18.7143 2.672C18.5543 2.352 18.3356 2.096 18.0583 1.904C17.781 1.712 17.4663 1.616 17.1143 1.616H13.1143ZM22.6506 12V0.639999H23.7706V12H22.6506ZM27.7393 2.704V12H26.6193V0.639999H27.5473L35.0033 10.112V0.655999H36.1233V12H35.0833L27.7393 2.704ZM42.1608 7.584L48.8648 3.552V4.72L43.7448 7.856L48.8648 10.976V12.176L42.1608 8.176V7.584ZM58.9738 0.639999L51.4218 12H50.1898L57.7418 0.639999H58.9738ZM66.9981 8.176L60.2941 12.176V10.976L65.4141 7.856L60.2941 4.72V3.552L66.9981 7.584V8.176ZM0.8615 31V19.64H1.9815V30.008H8.5415V31H0.8615ZM13.3301 31.16C12.7328 31.16 12.1781 31.048 11.6661 30.824C11.1648 30.5893 10.7275 30.2747 10.3541 29.88C9.99146 29.4747 9.70879 29.016 9.50613 28.504C9.30346 27.9813 9.20213 27.432 9.20213 26.856C9.20213 26.2587 9.30346 25.704 9.50613 25.192C9.70879 24.6693 9.99679 24.2107 10.3701 23.816C10.7435 23.4107 11.1808 23.096 11.6821 22.872C12.1941 22.6373 12.7488 22.52 13.3461 22.52C13.9435 22.52 14.4928 22.6373 14.9941 22.872C15.4955 23.096 15.9328 23.4107 16.3061 23.816C16.6795 24.2107 16.9675 24.6693 17.1701 25.192C17.3728 25.704 17.4741 26.2587 17.4741 26.856C17.4741 27.432 17.3728 27.9813 17.1701 28.504C16.9675 29.016 16.6795 29.4747 16.3061 29.88C15.9435 30.2747 15.5061 30.5893 14.9941 30.824C14.4928 31.048 13.9381 31.16 13.3301 31.16ZM10.3061 26.872C10.3061 27.4907 10.4395 28.056 10.7061 28.568C10.9835 29.0693 11.3515 29.4693 11.8101 29.768C12.2688 30.056 12.7755 30.2 13.3301 30.2C13.8848 30.2 14.3915 30.0507 14.8501 29.752C15.3088 29.4533 15.6768 29.048 15.9541 28.536C16.2315 28.0133 16.3701 27.448 16.3701 26.84C16.3701 26.2213 16.2315 25.656 15.9541 25.144C15.6768 24.632 15.3088 24.2267 14.8501 23.928C14.3915 23.6293 13.8848 23.48 13.3301 23.48C12.7755 23.48 12.2688 23.6347 11.8101 23.944C11.3621 24.2533 10.9995 24.664 10.7221 25.176C10.4448 25.6773 10.3061 26.2427 10.3061 26.872ZM18.6217 28.6C18.6217 28.0773 18.7711 27.6293 19.0698 27.256C19.3684 26.872 19.7791 26.5787 20.3018 26.376C20.8351 26.1627 21.4484 26.056 22.1418 26.056C22.5471 26.056 22.9684 26.088 23.4058 26.152C23.8431 26.216 24.2324 26.312 24.5738 26.44V25.736C24.5738 25.032 24.3658 24.472 23.9498 24.056C23.5338 23.64 22.9578 23.432 22.2218 23.432C21.7738 23.432 21.3311 23.5173 20.8938 23.688C20.4671 23.848 20.0191 24.088 19.5498 24.408L19.1338 23.64C19.6778 23.2667 20.2111 22.9893 20.7338 22.808C21.2564 22.616 21.7898 22.52 22.3338 22.52C23.3578 22.52 24.1684 22.8133 24.7658 23.4C25.3631 23.9867 25.6618 24.7973 25.6618 25.832V29.688C25.6618 29.8373 25.6938 29.9493 25.7578 30.024C25.8218 30.088 25.9231 30.1253 26.0618 30.136V31C25.9444 31.0107 25.8431 31.0213 25.7578 31.032C25.6724 31.0427 25.6084 31.0427 25.5658 31.032C25.2991 31.0213 25.0964 30.936 24.9578 30.776C24.8191 30.616 24.7444 30.4453 24.7338 30.264L24.7178 29.656C24.3444 30.136 23.8591 30.5093 23.2618 30.776C22.6644 31.032 22.0564 31.16 21.4378 31.16C20.9044 31.16 20.4191 31.048 19.9818 30.824C19.5551 30.5893 19.2191 30.28 18.9738 29.896C18.7391 29.5013 18.6217 29.0693 18.6217 28.6ZM24.2058 29.24C24.3231 29.0907 24.4138 28.9467 24.4778 28.808C24.5418 28.6693 24.5738 28.5467 24.5738 28.44V27.224C24.2111 27.0853 23.8324 26.9787 23.4378 26.904C23.0538 26.8293 22.6644 26.792 22.2698 26.792C21.4911 26.792 20.8618 26.9467 20.3818 27.256C19.9018 27.5653 19.6618 27.9867 19.6618 28.52C19.6618 28.8293 19.7418 29.1227 19.9018 29.4C20.0618 29.6667 20.2964 29.8907 20.6058 30.072C20.9151 30.2427 21.2778 30.328 21.6938 30.328C22.2164 30.328 22.7018 30.2267 23.1498 30.024C23.6084 29.8213 23.9604 29.56 24.2058 29.24ZM27.4525 26.856C27.4525 26.0667 27.6125 25.3467 27.9325 24.696C28.2632 24.0347 28.7165 23.5067 29.2925 23.112C29.8685 22.7173 30.5245 22.52 31.2605 22.52C31.9538 22.52 32.5725 22.7067 33.1165 23.08C33.6712 23.4427 34.1032 23.8853 34.4125 24.408V19.32H35.5005V29.688C35.5005 29.8373 35.5325 29.9493 35.5965 30.024C35.6605 30.088 35.7565 30.1253 35.8845 30.136V31C35.6712 31.032 35.5058 31.0427 35.3885 31.032C35.1645 31.0213 34.9672 30.9307 34.7965 30.76C34.6258 30.5893 34.5405 30.4027 34.5405 30.2V29.384C34.2098 29.928 33.7618 30.36 33.1965 30.68C32.6312 31 32.0445 31.16 31.4365 31.16C30.8605 31.16 30.3272 31.0427 29.8365 30.808C29.3565 30.5733 28.9352 30.2533 28.5725 29.848C28.2205 29.4427 27.9432 28.984 27.7405 28.472C27.5485 27.9493 27.4525 27.4107 27.4525 26.856ZM34.4125 28.136V25.56C34.2738 25.176 34.0498 24.8293 33.7405 24.52C33.4312 24.2 33.0792 23.9493 32.6845 23.768C32.3005 23.576 31.9165 23.48 31.5325 23.48C31.0845 23.48 30.6792 23.576 30.3165 23.768C29.9538 23.9493 29.6392 24.2 29.3725 24.52C29.1165 24.84 28.9192 25.2027 28.7805 25.608C28.6418 26.0133 28.5725 26.4293 28.5725 26.856C28.5725 27.304 28.6472 27.7307 28.7965 28.136C28.9565 28.5413 29.1805 28.904 29.4685 29.224C29.7565 29.5333 30.0872 29.7733 30.4605 29.944C30.8338 30.1147 31.2392 30.2 31.6765 30.2C31.9538 30.2 32.2418 30.1467 32.5405 30.04C32.8392 29.9333 33.1218 29.7893 33.3885 29.608C33.6658 29.416 33.8952 29.192 34.0765 28.936C34.2578 28.68 34.3698 28.4133 34.4125 28.136ZM37.9656 31V22.664H39.0536V31H37.9656ZM37.9656 20.92V19.32H39.0536V20.92H37.9656ZM48.458 31H47.37V26.344C47.37 25.3627 47.226 24.648 46.938 24.2C46.65 23.7413 46.1967 23.512 45.578 23.512C45.1513 23.512 44.73 23.6187 44.314 23.832C43.898 24.0347 43.53 24.3173 43.21 24.68C42.9007 25.032 42.6767 25.4373 42.538 25.896V31H41.45V22.664H42.442V24.552C42.666 24.1467 42.9593 23.7947 43.322 23.496C43.6847 23.1867 44.0953 22.9467 44.554 22.776C45.0127 22.6053 45.4873 22.52 45.978 22.52C46.4367 22.52 46.826 22.6053 47.146 22.776C47.466 22.9467 47.722 23.192 47.914 23.512C48.106 23.8213 48.2447 24.2 48.33 24.648C48.4153 25.0853 48.458 25.576 48.458 26.12V31ZM54.1221 31.112C53.5568 31.112 53.0341 30.9947 52.5541 30.76C52.0741 30.5253 51.6581 30.2107 51.3061 29.816C50.9648 29.4107 50.6981 28.952 50.5061 28.44C50.3141 27.928 50.2181 27.4 50.2181 26.856C50.2181 26.2693 50.3088 25.72 50.4901 25.208C50.6821 24.6853 50.9488 24.2213 51.2901 23.816C51.6421 23.4107 52.0528 23.096 52.5221 22.872C52.9915 22.6373 53.5141 22.52 54.0901 22.52C54.8048 22.52 55.4235 22.7013 55.9461 23.064C56.4795 23.4267 56.9275 23.8747 57.2901 24.408V22.664H58.2661V31.032C58.2661 31.8 58.0795 32.4453 57.7061 32.968C57.3435 33.5013 56.8475 33.9013 56.2181 34.168C55.5995 34.4347 54.9221 34.568 54.1861 34.568C53.2368 34.568 52.4688 34.3973 51.8821 34.056C51.2955 33.7147 50.8155 33.256 50.4421 32.68L51.1141 32.152C51.4448 32.6747 51.8821 33.064 52.4261 33.32C52.9808 33.576 53.5675 33.704 54.1861 33.704C54.7301 33.704 55.2261 33.6027 55.6741 33.4C56.1328 33.208 56.4955 32.9147 56.7621 32.52C57.0395 32.1253 57.1781 31.6293 57.1781 31.032V29.384C56.8581 29.9067 56.4208 30.328 55.8661 30.648C55.3115 30.9573 54.7301 31.112 54.1221 31.112ZM54.4261 30.2C54.7568 30.2 55.0715 30.1413 55.3701 30.024C55.6795 29.9067 55.9621 29.752 56.2181 29.56C56.4741 29.3573 56.6875 29.1333 56.8581 28.888C57.0288 28.6427 57.1355 28.392 57.1781 28.136V25.56C57.0181 25.1547 56.7888 24.7973 56.4901 24.488C56.1915 24.168 55.8501 23.9227 55.4661 23.752C55.0928 23.5707 54.7035 23.48 54.2981 23.48C53.8288 23.48 53.4075 23.5813 53.0341 23.784C52.6715 23.976 52.3621 24.2373 52.1061 24.568C51.8608 24.888 51.6688 25.2507 51.5301 25.656C51.3915 26.0613 51.3221 26.4667 51.3221 26.872C51.3221 27.32 51.4021 27.7467 51.5621 28.152C51.7221 28.5467 51.9408 28.904 52.2181 29.224C52.5061 29.5333 52.8368 29.7733 53.2101 29.944C53.5941 30.1147 53.9995 30.2 54.4261 30.2ZM60.5088 31V29.432H61.4528V31H60.5088ZM63.54 31V29.432H64.484V31H63.54ZM66.5713 31V29.432H67.5153V31H66.5713Z" fill="#168CD0"/>
</svg>


</svg>
