<svg width="400" height="400" viewBox="0 0 400 400" fill="none" xmlns="http://www.w3.org/2000/svg">
<path d="M27.7778 0C12.4556 0 0 14.96 0 33.3333V300C0 318.373 12.4556 333.333 27.7778 333.333H144.444V386.667H127.778C124.711 386.667 122.222 389.653 122.222 393.333C122.222 397.013 124.711 400 127.778 400H272.222C275.289 400 277.778 397.013 277.778 393.333C277.778 389.653 275.289 386.667 272.222 386.667H255.556V333.333H372.222C387.544 333.333 400 318.373 400 300V33.3333C400 14.96 387.544 0 372.222 0H27.7778ZM27.7778 13.3333H372.222C381.411 13.3333 388.889 22.3067 388.889 33.3333V300C388.889 311.027 381.411 320 372.222 320H27.7778C18.5889 320 11.1111 311.027 11.1111 300V33.3333C11.1111 22.3067 18.5889 13.3333 27.7778 13.3333Z" fill="white"/>
<path d="M114.066 95.2L132.626 119.92L151.106 95.2H157.426L135.666 124L156.786 152H150.466L132.626 128.08L114.706 152H108.306L129.426 124L107.666 95.2H114.066ZM207.653 137.36C207.653 140.187 206.933 142.72 205.493 144.96C204.053 147.147 202.106 148.88 199.653 150.16C197.253 151.387 194.613 152 191.733 152H164.933V95.2H192.293C194.959 95.2 197.253 95.92 199.173 97.36C201.146 98.7467 202.639 100.56 203.653 102.8C204.719 104.987 205.253 107.28 205.253 109.68C205.253 112.507 204.533 115.12 203.093 117.52C201.653 119.92 199.653 121.707 197.093 122.88C200.346 123.84 202.906 125.627 204.773 128.24C206.693 130.853 207.653 133.893 207.653 137.36ZM202.053 136.4C202.053 134.48 201.626 132.72 200.773 131.12C199.919 129.467 198.746 128.133 197.253 127.12C195.813 126.107 194.159 125.6 192.293 125.6H170.533V147.12H191.733C193.653 147.12 195.386 146.613 196.933 145.6C198.479 144.587 199.706 143.28 200.613 141.68C201.573 140.027 202.053 138.267 202.053 136.4ZM170.533 100.08V121.04H190.053C191.919 121.04 193.573 120.56 195.013 119.6C196.453 118.587 197.599 117.28 198.453 115.68C199.306 114.08 199.733 112.373 199.733 110.56C199.733 108.64 199.333 106.907 198.533 105.36C197.733 103.76 196.639 102.48 195.253 101.52C193.866 100.56 192.293 100.08 190.533 100.08H170.533ZM218.214 152V95.2H223.814V152H218.214ZM243.658 105.52V152H238.058V95.2H242.697L279.978 142.56V95.28H285.578V152H280.378L243.658 105.52ZM137.874 223.92L171.394 203.76V209.6L145.794 225.28L171.394 240.88V246.88L137.874 226.88V223.92ZM221.939 189.2L184.179 246H178.019L215.779 189.2H221.939ZM262.061 226.88L228.541 246.88V240.88L254.141 225.28L228.541 209.6V203.76L262.061 223.92V226.88Z" fill="white"/>
</svg>
