<svg xmlns="http://www.w3.org/2000/svg">
<defs><style>.cls-1{fill:#fefefe;}</style></defs>
<g id="Favicon">
<path class="cls-1" d="M675.38,428.9,513.61,302.44a20,20,0,0,0-24.63,0L327.21,428.9a20,20,0,0,0-7.68,15.76V588.05a20,20,0,0,0,20,20h38.55l-.79-10.73a10,10,0,0,0-10-9.27H349.53a10,10,0,0,1-10-10V449.53a10,10,0,0,1,3.84-7.88L501.29,318.19h0L659.22,441.65a10,10,0,0,1,3.84,7.88V578.05a10,10,0,0,1-10,10H635.27a10,10,0,0,0-10,9.27l-.79,10.73h38.55a20,20,0,0,0,20-20V444.66A20,20,0,0,0,675.38,428.9Z"/><path class="cls-1" d="M505.44,493.67h28l-8.3-8.47C518.48,489.7,511.63,492.68,505.44,493.67Z"/><path class="cls-1" d="M476.86,485.2l-8.3,8.47h28C490.4,492.68,483.55,489.7,476.86,485.2Z"/><circle class="cls-1" cx="501.02" cy="637.83" r="15.23"/><circle class="cls-1" cx="459.79" cy="634.25" r="11.65"/><circle class="cls-1" cx="543.6" cy="634.25" r="11.65"/><path class="cls-1" d="M590.27,517.71a10,10,0,0,1,10,10.73l-4.36,59.61H406.7l-4.36-59.61a10,10,0,0,1,10-10.73h178m0-20H412.32A30,30,0,0,0,382.4,529.9l4.35,59.61a20,20,0,0,0,19.95,18.54H595.89a20,20,0,0,0,20-18.54l4.35-59.61a30,30,0,0,0-29.92-32.19Z"/><path class="cls-1" d="M502.29,527.32a13.38,13.38,0,0,0-13.37,13.36v5.37a9.25,9.25,0,0,0-6,8.66v13a9.25,9.25,0,0,0,9.25,9.25h20.27a9.25,9.25,0,0,0,9.25-9.25v-13a9.25,9.25,0,0,0-6-8.66v-5.37a13.38,13.38,0,0,0-13.36-13.36Zm-7.4,18.14v-4.78a7.4,7.4,0,0,1,14.79,0v4.78Zm1.49,23.4,1.83-7.55a5.91,5.91,0,1,1,8.15,0l1.83,7.55Z"/><path class="cls-1" d="M538.63,418.74c-.81,14.86-13.09,34.19-18.3,39.4-8.26,8.41-16.66,11.91-19.31,11.91s-11.06-3.5-19.32-11.91a52.24,52.24,0,0,1-9.81-13.57,59.53,59.53,0,0,1-2.69-7.33c-2.1-6.23-5-17.75-5.71-21.44l-.15-.23-15.18,13.55a7.6,7.6,0,0,1,0,1.52c.49,31.48,33.35,59.41,52.89,59.41s52.39-27.93,52.88-59.41c0-.24,0-.57,0-1Z"/><path class="cls-1" d="M559,401l-14.4-9.64a13.23,13.23,0,0,1-4.56-5.09A41.29,41.29,0,0,0,514.64,365l-12.33-3.6a1.46,1.46,0,0,0-1.61,2.22,1.82,1.82,0,0,1-1.75,2.84l-22.39-3.13a1.59,1.59,0,0,0-1.48,2.54l.47.6a1.43,1.43,0,0,1-1,2.3l-12.85,1.45a1.59,1.59,0,0,0-.34,3.08l2.85,1a.94.94,0,0,1,.15,1.7l0,0a11.3,11.3,0,0,1-3.42,1.39,15,15,0,0,0-7.07,4.18,17.42,17.42,0,0,0-3.15,4.25v0a2,2,0,0,0,2.07,2.8l.34-.06a.85.85,0,0,1,.81,1.37c-2.28,2.81-6.56,8.17-7.38,9.78q-.5,1-.84,1.68a7.39,7.39,0,0,0-.75,3.23l.31,1.05a147.75,147.75,0,0,1,2.53,15.35l18.86-22.76,4.92,10.75,8.15-5.71a47.78,47.78,0,0,1,29-6.81c10.83,1,16.68,2.5,24.29,7.63a61.92,61.92,0,0,1,7.51,6l13.4,12.34c-.08-1.14,1-6.32,2.18-6.2h0a1.15,1.15,0,0,0,1.57-1.5l-2.6-5.82a3.66,3.66,0,0,1,1.93-4.86l1.76-.73A1.37,1.37,0,0,0,559,401Z"/>
</g>
</svg>