<svg width="400" height="400" viewBox="0 0 400 400" fill="none" xmlns="http://www.w3.org/2000/svg">
<path d="M27.7778 0C12.4556 0 0 14.96 0 33.3333V300C0 318.373 12.4556 333.333 27.7778 333.333H144.444V386.667H127.778C124.711 386.667 122.222 389.653 122.222 393.333C122.222 397.013 124.711 400 127.778 400H272.222C275.289 400 277.778 397.013 277.778 393.333C277.778 389.653 275.289 386.667 272.222 386.667H255.556V333.333H372.222C387.544 333.333 400 318.373 400 300V33.3333C400 14.96 387.544 0 372.222 0H27.7778ZM27.7778 13.3333H372.222C381.411 13.3333 388.889 22.3067 388.889 33.3333V300C388.889 311.027 381.411 320 372.222 320H27.7778C18.5889 320 11.1111 311.027 11.1111 300V33.3333C11.1111 22.3067 18.5889 13.3333 27.7778 13.3333Z" fill="#444444"/>
<path d="M112.713 95.2L133.673 121.92L154.553 95.2H157.833L135.193 124L157.193 152H153.913L133.673 126.08L113.353 152H109.993L131.993 124L109.353 95.2H112.713ZM207.355 137.28C207.355 139.947 206.688 142.4 205.355 144.64C204.075 146.88 202.315 148.667 200.075 150C197.835 151.333 195.381 152 192.715 152H166.235V95.2H191.995C194.661 95.2 196.955 95.92 198.875 97.36C200.848 98.7467 202.341 100.56 203.355 102.8C204.421 104.987 204.955 107.28 204.955 109.68C204.955 112.56 204.235 115.2 202.795 117.6C201.355 120 199.355 121.76 196.795 122.88C200.048 123.84 202.608 125.653 204.475 128.32C206.395 130.987 207.355 133.973 207.355 137.28ZM204.635 137.04C204.635 134.853 204.128 132.827 203.115 130.96C202.155 129.093 200.795 127.573 199.035 126.4C197.328 125.173 195.408 124.56 193.275 124.56H169.035V149.44H192.715C194.901 149.44 196.901 148.853 198.715 147.68C200.528 146.453 201.968 144.907 203.035 143.04C204.101 141.12 204.635 139.12 204.635 137.04ZM169.035 97.76V122.08H191.035C193.221 122.08 195.141 121.493 196.795 120.32C198.501 119.147 199.835 117.627 200.795 115.76C201.755 113.893 202.235 111.947 202.235 109.92C202.235 107.733 201.781 105.733 200.875 103.92C199.968 102.053 198.688 100.56 197.035 99.44C195.435 98.32 193.595 97.76 191.515 97.76H169.035ZM218.891 152V95.2H221.691V152H218.891ZM239.816 100.4V152H237.016V95.2H239.256L280.856 147.6V95.2H283.656V152H280.776L239.816 100.4ZM140.181 224.4L173.541 204.4V207.36L144.101 225.28L173.541 243.28V246.24L140.181 226.24V224.4ZM220.013 189.2L183.133 246H179.933L216.733 189.2H220.013ZM259.827 226.24L226.387 246.24V243.28L255.827 225.28L226.387 207.36V204.4L259.827 224.4V226.24Z" fill="black"/>
</svg>
