<svg width="80" height="80" viewBox="0 0 80 80" fill="none" xmlns="http://www.w3.org/2000/svg">
<path d="M1.034 59C1.55 51.194 8.066 45 16 45H28C35.936 45 42.452 51.194 42.966 59H1.034Z" fill="#98CCFD"/>
<path d="M28 46C35.04 46 40.884 51.224 41.858 58H2.142C3.116 51.224 8.96 46 16 46H28ZM28 44H16C7.164 44 0 51.164 0 60H44C44 51.164 36.836 44 28 44Z" fill="#4788C7"/>
<path d="M22 49C16.664 49 15.238 46.076 15 45.47V38.51H29V45.47C28.758 46.084 27.334 49 22 49Z" fill="white"/>
<path d="M28 39.51V45.256C27.666 45.934 26.296 48 22 48C17.668 48 16.312 45.902 16 45.264V39.508L28 39.51ZM30 37.51H14V45.638C14 45.638 15.256 50 22 50C28.744 50 30 45.638 30 45.638V37.51Z" fill="#4788C7"/>
<path d="M37.034 59C37.55 51.194 44.066 45 52 45H64C71.936 45 78.452 51.194 78.966 59H37.034Z" fill="#98CCFD"/>
<path d="M64 46C71.04 46 76.884 51.224 77.858 58H38.142C39.116 51.224 44.958 46 52 46H64ZM64 44H52C43.164 44 36 51.164 36 60H80C80 51.164 72.836 44 64 44Z" fill="#4788C7"/>
<path d="M58 49C52.664 49 51.238 46.076 51 45.47V38.51H65V45.47C64.758 46.084 63.334 49 58 49Z" fill="white"/>
<path d="M64 39.51V45.256C63.666 45.934 62.296 48 58 48C53.668 48 52.312 45.902 52 45.264V39.508L64 39.51ZM66 37.51H50V45.638C50 45.638 51.256 50 58 50C64.744 50 66 45.638 66 45.638V37.51Z" fill="#4788C7"/>
<path d="M68 33C66.346 33 65 31.654 65 30C65 28.346 66.346 27 68 27C70.772 27 71 27.788 71 28.666C71 30.48 69.488 33 68 33ZM48 33C46.512 33 45 30.48 45 28.666C45 27.788 45.228 27 48 27C49.654 27 51 28.346 51 30C51 31.654 49.654 33 48 33Z" fill="#98CCFD"/>
<path d="M68 28C69.65 28 69.95 28.312 69.95 28.312C69.962 28.332 70 28.442 70 28.666C70 30.106 68.742 32 68 32C66.898 32 66 31.102 66 30C66 28.898 66.898 28 68 28ZM48 28C49.102 28 50 28.898 50 30C50 31.102 49.102 32 48 32C47.258 32 46 30.106 46 28.666C46 28.442 46.038 28.332 46.048 28.314C46.052 28.31 46.35 28 48 28ZM68 26C65.79 26 64 27.79 64 30C64 32.21 65.79 34 68 34C70.21 34 72 30.876 72 28.666C72 26.458 70.21 26 68 26ZM48 26C45.79 26 44 26.458 44 28.666C44 30.876 45.79 34 48 34C50.21 34 52 32.21 52 30C52 27.79 50.21 26 48 26Z" fill="#4788C7"/>
<path d="M58 43C57.2 43 56.44 42.636 55.914 42.004L55.704 41.752L55.384 41.672C50.448 40.464 47 36.076 47 31V20.486C47 17.884 49.118 15.768 51.718 15.768H64.28C66.882 15.768 68.998 17.886 68.998 20.486V31C68.998 36.076 65.55 40.464 60.616 41.672L60.296 41.752L60.086 42.004C59.56 42.636 58.8 43 58 43Z" fill="white"/>
<path d="M64.282 16.768C66.332 16.768 68 18.436 68 20.488V31C68 35.614 64.866 39.604 60.38 40.7L59.74 40.856L59.318 41.362C59.122 41.602 58.686 42 58 42C57.314 42 56.878 41.602 56.68 41.364L56.258 40.858L55.618 40.702C51.134 39.604 48 35.614 48 31V20.486C48 18.436 49.668 16.766 51.718 16.766L64.282 16.768ZM64.282 14.768H51.72C48.562 14.768 46.002 17.328 46.002 20.488V31C46.002 36.642 49.9 41.36 55.146 42.644C55.828 43.466 56.846 44 58 44C59.154 44 60.172 43.466 60.856 42.644C66.102 41.36 70 36.642 70 31V20.486C70 17.328 67.44 14.768 64.282 14.768Z" fill="#4788C7"/>
<path d="M69 31V28C69 22.594 64.622 19.708 64.434 19.588L63.772 19.162L63.202 19.706C63.176 19.73 60.18 22.462 53.876 22.462C50.454 22.462 47.002 24.512 47.002 29.092V31H46.766C46.266 29.124 45 23.96 45 20C45 14.534 49.24 9 57.346 9C61.686 9 63.014 12.224 63.068 12.362L63.318 12.994L64 13C66.936 13 71 15.48 71 20.136C71 23.754 69.724 29.07 69.23 31H69Z" fill="#98CCFD"/>
<path d="M57.346 10C60.904 10 62.026 12.458 62.132 12.712L62.622 14H64C66.092 14 70 15.8 70 20.136C70 21.542 69.798 23.224 69.526 24.856C68.306 20.938 65.142 18.854 64.978 18.748L63.666 17.93L62.528 18.968C62.416 19.07 59.724 21.464 53.876 21.464C50.456 21.464 47.796 23.172 46.636 25.872C46.284 23.962 46 21.842 46 20C46 15.03 49.898 10 57.346 10ZM57.346 8C48.91 8 44 13.744 44 20C44 25.11 46 32 46 32H48C48 32 48 30.5 48 29.094C48 25.232 50.798 23.462 53.874 23.462C60.72 23.462 63.892 20.428 63.892 20.428C63.892 20.428 68 23.078 68 28C68 29.546 68 32 68 32H70C70 32 72 24.794 72 20.136C72 14.828 67.37 12 64 12C64 12 62.476 8 57.346 8Z" fill="#4788C7"/>
<path d="M32 33C30.346 33 29 31.654 29 30C29 28.346 30.346 27 32 27C34.772 27 35 27.788 35 28.666C35 30.48 33.488 33 32 33ZM12 33C10.512 33 9 30.48 9 28.666C9 27.788 9.228 27 12 27C13.654 27 15 28.346 15 30C15 31.654 13.654 33 12 33Z" fill="#98CCFD"/>
<path d="M32 28C33.65 28 33.95 28.312 33.95 28.312C33.962 28.332 34 28.442 34 28.666C34 30.106 32.742 32 32 32C30.898 32 30 31.102 30 30C30 28.898 30.898 28 32 28ZM12 28C13.102 28 14 28.898 14 30C14 31.102 13.102 32 12 32C11.258 32 10 30.106 10 28.666C10 28.442 10.038 28.332 10.048 28.314C10.052 28.31 10.35 28 12 28ZM32 26C29.79 26 28 27.79 28 30C28 32.21 29.79 34 32 34C34.21 34 36 30.876 36 28.666C36 26.458 34.21 26 32 26ZM12 26C9.79 26 8 26.458 8 28.666C8 30.876 9.79 34 12 34C14.21 34 16 32.21 16 30C16 27.79 14.21 26 12 26Z" fill="#4788C7"/>
<path d="M22 43C21.2 43 20.44 42.636 19.914 42.004L19.704 41.752L19.384 41.672C14.448 40.464 11 36.076 11 31V20.486C11 17.884 13.118 15.768 15.718 15.768H28.28C30.882 15.768 32.998 17.886 32.998 20.486V31C32.998 36.076 29.55 40.464 24.616 41.672L24.296 41.752L24.086 42.004C23.56 42.636 22.8 43 22 43Z" fill="white"/>
<path d="M28.282 16.768C30.332 16.768 32 18.436 32 20.488V31C32 35.614 28.866 39.604 24.38 40.7L23.74 40.856L23.318 41.362C23.122 41.602 22.686 42 22 42C21.314 42 20.878 41.602 20.68 41.364L20.258 40.858L19.62 40.7C15.134 39.604 12 35.614 12 31V20.486C12 18.436 13.668 16.766 15.718 16.766L28.282 16.768ZM28.282 14.768H15.718C12.56 14.768 10 17.328 10 20.486V31C10 36.642 13.898 41.36 19.144 42.644C19.828 43.466 20.846 44 22 44C23.154 44 24.172 43.466 24.856 42.644C30.102 41.36 34 36.642 34 31V20.486C34 17.328 31.44 14.768 28.282 14.768Z" fill="#4788C7"/>
<path d="M33 31V28C33 22.594 28.622 19.708 28.434 19.588L27.772 19.162L27.202 19.706C27.176 19.73 24.18 22.462 17.876 22.462C14.454 22.462 11.002 24.512 11.002 29.092V31H10.764C10.266 29.124 9 23.96 9 20C9 14.534 13.24 9 21.346 9C25.686 9 27.014 12.224 27.068 12.362L27.318 12.994L28 13C30.936 13 35 15.48 35 20.136C35 23.754 33.724 29.07 33.23 31H33Z" fill="#98CCFD"/>
<path d="M21.346 10C24.904 10 26.026 12.458 26.132 12.712L26.622 14H28C30.092 14 34 15.8 34 20.136C34 21.542 33.798 23.224 33.526 24.856C32.306 20.938 29.142 18.854 28.978 18.748L27.666 17.93L26.528 18.968C26.416 19.07 23.724 21.464 17.876 21.464C14.456 21.464 11.796 23.172 10.636 25.872C10.284 23.962 10 21.842 10 20C10 15.03 13.898 10 21.346 10ZM21.346 8C12.91 8 8 13.744 8 20C8 25.11 10 32 10 32H12C12 32 12 30.5 12 29.094C12 25.232 14.798 23.462 17.874 23.462C24.72 23.462 27.892 20.428 27.892 20.428C27.892 20.428 32 23.078 32 28C32 29.546 32 32 32 32H34C34 32 36 24.794 36 20.136C36 14.828 31.37 12 28 12C28 12 26.476 8 21.346 8Z" fill="#4788C7"/>
<path d="M19.034 71C19.55 63.194 26.066 57 34 57H46C53.936 57 60.452 63.194 60.966 71H19.034Z" fill="#B6DCFE"/>
<path d="M46 58C53.04 58 58.884 63.224 59.858 70H20.142C21.116 63.224 26.958 58 34 58H46ZM46 56H34C25.164 56 18 63.164 18 72H62C62 63.164 54.836 56 46 56Z" fill="#4788C7"/>
<path d="M33 57.646V51H47V57.646L40 63.214L33 57.646Z" fill="white"/>
<path d="M46 52V57.164L40 61.936L34 57.164V52H46ZM48 50H32V58.128L40 64.49L48 58.128V50Z" fill="#4788C7"/>
<path d="M44 58.772L40 60L36 58.772L38.694 63.516L35.956 72H44.044L41.306 63.516L44 58.772Z" fill="#4788C7"/>
<path d="M50 45C48.346 45 47 43.654 47 42C47 40.346 48.346 39 50 39C52.772 39 53 39.788 53 40.666C53 42.48 51.488 45 50 45ZM30 45C28.512 45 27 42.48 27 40.666C27 39.788 27.228 39 30 39C31.654 39 33 40.346 33 42C33 43.654 31.654 45 30 45Z" fill="#B6DCFE"/>
<path d="M50 40C51.65 40 51.95 40.312 51.95 40.312C51.962 40.332 52 40.442 52 40.666C52 42.106 50.742 44 50 44C48.898 44 48 43.102 48 42C48 40.898 48.898 40 50 40ZM30 40C31.102 40 32 40.898 32 42C32 43.102 31.102 44 30 44C29.258 44 28 42.106 28 40.666C28 40.442 28.038 40.332 28.048 40.314C28.052 40.31 28.35 40 30 40ZM50 38C47.79 38 46 39.79 46 42C46 44.21 47.79 46 50 46C52.21 46 54 42.876 54 40.666C54 38.458 52.21 38 50 38ZM30 38C27.79 38 26 38.458 26 40.666C26 42.876 27.79 46 30 46C32.21 46 34 44.21 34 42C34 39.79 32.21 38 30 38Z" fill="#4788C7"/>
<path d="M40 55C39.2 55 38.44 54.636 37.914 54.004L37.704 53.752L37.384 53.672C32.448 52.464 29 48.076 29 43V32.486C29 29.884 31.118 27.768 33.718 27.768H46.28C48.882 27.768 50.998 29.886 50.998 32.486V43C50.998 48.076 47.55 52.464 42.616 53.672L42.296 53.752L42.086 54.004C41.56 54.636 40.8 55 40 55Z" fill="white"/>
<path d="M46.282 28.768C48.332 28.768 50 30.436 50 32.488V43C50 47.614 46.866 51.604 42.38 52.7L41.74 52.856L41.318 53.362C41.122 53.602 40.686 54 40 54C39.314 54 38.878 53.602 38.68 53.364L38.258 52.858L37.618 52.702C33.134 51.604 30 47.614 30 43V32.486C30 30.436 31.668 28.766 33.718 28.766L46.282 28.768ZM46.282 26.768H33.72C30.562 26.768 28.002 29.328 28.002 32.488V43C28.002 48.642 31.9 53.36 37.146 54.644C37.828 55.466 38.846 56 40 56C41.154 56 42.172 55.466 42.856 54.644C48.102 53.36 52 48.642 52 43V32.486C52 29.328 49.44 26.768 46.282 26.768Z" fill="#4788C7"/>
<path d="M51 43V40C51 34.594 46.622 31.708 46.434 31.588L45.772 31.162L45.202 31.706C45.176 31.73 42.18 34.462 35.876 34.462C32.454 34.462 29.002 36.512 29.002 41.092V43H28.766C28.266 41.124 27 35.96 27 32C27 26.534 31.24 21 39.346 21C43.686 21 45.014 24.224 45.068 24.362L45.318 24.994L46 25C48.936 25 53 27.48 53 32.136C53 35.754 51.724 41.07 51.23 43H51Z" fill="#B6DCFE"/>
<path d="M39.346 22C42.904 22 44.026 24.458 44.132 24.712L44.622 26H46C48.092 26 52 27.8 52 32.136C52 33.542 51.798 35.224 51.526 36.856C50.306 32.938 47.142 30.854 46.978 30.748L45.666 29.93L44.528 30.968C44.416 31.07 41.724 33.464 35.876 33.464C32.456 33.464 29.796 35.172 28.636 37.872C28.284 35.962 28 33.842 28 32C28 27.03 31.898 22 39.346 22ZM39.346 20C30.91 20 26 25.744 26 32C26 37.11 28 44 28 44H30C30 44 30 42.5 30 41.094C30 37.232 32.798 35.462 35.874 35.462C42.72 35.462 45.892 32.428 45.892 32.428C45.892 32.428 50 35.078 50 40C50 41.546 50 44 50 44H52C52 44 54 36.794 54 32.136C54 26.828 49.37 24 46 24C46 24 44.476 20 39.346 20Z" fill="#4788C7"/>
</svg>
