<svg fill="#000000" xmlns="http://www.w3.org/2000/svg"  viewBox="0 0 80 80" width="28px" height="28px"><path d="M 40 7 C 21.786448 7 7 21.786448 7 40 C 7 58.213552 21.786448 73 40 73 C 58.213552 73 73 58.213552 73 40 C 73 21.786448 58.213552 7 40 7 z M 40 9 C 57.132672 9 71 22.867328 71 40 C 71 57.132672 57.132672 71 40 71 C 22.867328 71 9 57.132672 9 40 C 9 22.867328 22.867328 9 40 9 z M 40 12 A 1 1 0 0 0 39 13 A 1 1 0 0 0 40 14 A 1 1 0 0 0 41 13 A 1 1 0 0 0 40 12 z M 34.732422 12.519531 A 1 1 0 0 0 33.732422 13.519531 A 1 1 0 0 0 34.732422 14.519531 A 1 1 0 0 0 35.732422 13.519531 A 1 1 0 0 0 34.732422 12.519531 z M 45.267578 12.519531 A 1 1 0 0 0 44.267578 13.519531 A 1 1 0 0 0 45.267578 14.519531 A 1 1 0 0 0 46.267578 13.519531 A 1 1 0 0 0 45.267578 12.519531 z M 29.667969 14.054688 A 1 1 0 0 0 28.667969 15.054688 A 1 1 0 0 0 29.667969 16.054688 A 1 1 0 0 0 30.667969 15.054688 A 1 1 0 0 0 29.667969 14.054688 z M 50.332031 14.054688 A 1 1 0 0 0 49.332031 15.054688 A 1 1 0 0 0 50.332031 16.054688 A 1 1 0 0 0 51.332031 15.054688 A 1 1 0 0 0 50.332031 14.054688 z M 25 16.550781 A 1 1 0 0 0 24 17.550781 A 1 1 0 0 0 25 18.550781 A 1 1 0 0 0 26 17.550781 A 1 1 0 0 0 25 16.550781 z M 55 16.550781 A 1 1 0 0 0 54 17.550781 A 1 1 0 0 0 55 18.550781 A 1 1 0 0 0 56 17.550781 A 1 1 0 0 0 55 16.550781 z M 20.908203 19.908203 A 1 1 0 0 0 19.908203 20.908203 A 1 1 0 0 0 20.908203 21.908203 A 1 1 0 0 0 21.908203 20.908203 A 1 1 0 0 0 20.908203 19.908203 z M 59.091797 19.908203 A 1 1 0 0 0 58.091797 20.908203 A 1 1 0 0 0 59.091797 21.908203 A 1 1 0 0 0 60.091797 20.908203 A 1 1 0 0 0 59.091797 19.908203 z M 17.550781 24 A 1 1 0 0 0 16.550781 25 A 1 1 0 0 0 17.550781 26 A 1 1 0 0 0 18.550781 25 A 1 1 0 0 0 17.550781 24 z M 62.449219 24 A 1 1 0 0 0 61.449219 25 A 1 1 0 0 0 62.449219 26 A 1 1 0 0 0 63.449219 25 A 1 1 0 0 0 62.449219 24 z M 15.054688 28.667969 A 1 1 0 0 0 14.054688 29.667969 A 1 1 0 0 0 15.054688 30.667969 A 1 1 0 0 0 16.054688 29.667969 A 1 1 0 0 0 15.054688 28.667969 z M 64.945312 28.667969 A 1 1 0 0 0 63.945312 29.667969 A 1 1 0 0 0 64.945312 30.667969 A 1 1 0 0 0 65.945312 29.667969 A 1 1 0 0 0 64.945312 28.667969 z M 25 30 L 25 32 L 55 32 L 55 30 L 25 30 z M 13.519531 33.732422 A 1 1 0 0 0 12.519531 34.732422 A 1 1 0 0 0 13.519531 35.732422 A 1 1 0 0 0 14.519531 34.732422 A 1 1 0 0 0 13.519531 33.732422 z M 66.480469 33.732422 A 1 1 0 0 0 65.480469 34.732422 A 1 1 0 0 0 66.480469 35.732422 A 1 1 0 0 0 67.480469 34.732422 A 1 1 0 0 0 66.480469 33.732422 z M 13 39 A 1 1 0 0 0 12 40 A 1 1 0 0 0 13 41 A 1 1 0 0 0 14 40 A 1 1 0 0 0 13 39 z M 25 39 L 25 41 L 55 41 L 55 39 L 25 39 z M 67 39 A 1 1 0 0 0 66 40 A 1 1 0 0 0 67 41 A 1 1 0 0 0 68 40 A 1 1 0 0 0 67 39 z M 13.519531 44.267578 A 1 1 0 0 0 12.519531 45.267578 A 1 1 0 0 0 13.519531 46.267578 A 1 1 0 0 0 14.519531 45.267578 A 1 1 0 0 0 13.519531 44.267578 z M 66.480469 44.267578 A 1 1 0 0 0 65.480469 45.267578 A 1 1 0 0 0 66.480469 46.267578 A 1 1 0 0 0 67.480469 45.267578 A 1 1 0 0 0 66.480469 44.267578 z M 25 48 L 25 50 L 55 50 L 55 48 L 25 48 z M 15.054688 49.332031 A 1 1 0 0 0 14.054688 50.332031 A 1 1 0 0 0 15.054688 51.332031 A 1 1 0 0 0 16.054688 50.332031 A 1 1 0 0 0 15.054688 49.332031 z M 64.945312 49.332031 A 1 1 0 0 0 63.945312 50.332031 A 1 1 0 0 0 64.945312 51.332031 A 1 1 0 0 0 65.945312 50.332031 A 1 1 0 0 0 64.945312 49.332031 z M 17.550781 54 A 1 1 0 0 0 16.550781 55 A 1 1 0 0 0 17.550781 56 A 1 1 0 0 0 18.550781 55 A 1 1 0 0 0 17.550781 54 z M 62.449219 54 A 1 1 0 0 0 61.449219 55 A 1 1 0 0 0 62.449219 56 A 1 1 0 0 0 63.449219 55 A 1 1 0 0 0 62.449219 54 z M 20.908203 58.091797 A 1 1 0 0 0 19.908203 59.091797 A 1 1 0 0 0 20.908203 60.091797 A 1 1 0 0 0 21.908203 59.091797 A 1 1 0 0 0 20.908203 58.091797 z M 59.091797 58.091797 A 1 1 0 0 0 58.091797 59.091797 A 1 1 0 0 0 59.091797 60.091797 A 1 1 0 0 0 60.091797 59.091797 A 1 1 0 0 0 59.091797 58.091797 z M 25 61.449219 A 1 1 0 0 0 24 62.449219 A 1 1 0 0 0 25 63.449219 A 1 1 0 0 0 26 62.449219 A 1 1 0 0 0 25 61.449219 z M 55 61.449219 A 1 1 0 0 0 54 62.449219 A 1 1 0 0 0 55 63.449219 A 1 1 0 0 0 56 62.449219 A 1 1 0 0 0 55 61.449219 z M 29.667969 63.945312 A 1 1 0 0 0 28.667969 64.945312 A 1 1 0 0 0 29.667969 65.945312 A 1 1 0 0 0 30.667969 64.945312 A 1 1 0 0 0 29.667969 63.945312 z M 50.332031 63.945312 A 1 1 0 0 0 49.332031 64.945312 A 1 1 0 0 0 50.332031 65.945312 A 1 1 0 0 0 51.332031 64.945312 A 1 1 0 0 0 50.332031 63.945312 z M 34.732422 65.480469 A 1 1 0 0 0 33.732422 66.480469 A 1 1 0 0 0 34.732422 67.480469 A 1 1 0 0 0 35.732422 66.480469 A 1 1 0 0 0 34.732422 65.480469 z M 45.267578 65.480469 A 1 1 0 0 0 44.267578 66.480469 A 1 1 0 0 0 45.267578 67.480469 A 1 1 0 0 0 46.267578 66.480469 A 1 1 0 0 0 45.267578 65.480469 z M 40 66 A 1 1 0 0 0 39 67 A 1 1 0 0 0 40 68 A 1 1 0 0 0 41 67 A 1 1 0 0 0 40 66 z"/></svg>