<svg width="37" height="37" viewBox="0 0 37 37" fill="none" xmlns="http://www.w3.org/2000/svg">
<path d="M36.05 36.05H0.75V31.5656C0.767959 31.526 0.79042 31.4775 0.817541 31.4208C0.906139 31.2355 1.04431 30.9625 1.23756 30.6243C1.62433 29.9474 2.23003 29.0122 3.09817 27.9963C4.72212 26.0958 7.25951 23.9174 11.0044 22.6081C11.8664 25.8916 14.8445 28.35 18.4 28.35C21.9555 28.35 24.9335 25.8916 25.7956 22.6081C29.5405 23.9174 32.0779 26.0958 33.7018 27.9963C34.57 29.0122 35.1757 29.9474 35.5624 30.6243C35.7557 30.9625 35.8939 31.2355 35.9825 31.4208C36.0096 31.4775 36.032 31.526 36.05 31.5656V36.05ZM9.95 9.2C9.95 4.52906 13.7291 0.75 18.4 0.75C23.0709 0.75 26.85 4.52906 26.85 9.2C26.85 13.8709 23.0709 17.65 18.4 17.65C13.7291 17.65 9.95 13.8709 9.95 9.2Z" stroke="white" stroke-width="1.5"/>
</svg>
