<svg width="37" height="37" viewBox="0 0 37 37" fill="none" xmlns="http://www.w3.org/2000/svg">
<g clip-path="url(#clip0_379_787)">
<path d="M19.1071 0.776291C18.9462 0.782086 18.7911 0.840631 18.6639 0.943626L1.031 15.3141C0.870559 15.4447 0.766385 15.6366 0.741393 15.8475C0.716401 16.0584 0.772638 16.271 0.897732 16.4385C1.02283 16.6061 1.20653 16.7149 1.40843 16.741C1.61033 16.7671 1.81389 16.7084 1.97433 16.5777L3.03596 15.7129V36.7642C3.03598 36.9766 3.11676 37.1802 3.26053 37.3304C3.4043 37.4806 3.59929 37.5649 3.80261 37.5649H14.4069C14.4897 37.5792 14.5742 37.5792 14.657 37.5649H23.6067C23.6895 37.5792 23.7739 37.5792 23.8567 37.5649H34.4685C34.6718 37.5649 34.8668 37.4806 35.0106 37.3304C35.1544 37.1802 35.2351 36.9766 35.2352 36.7642V15.7129L36.2968 16.5777C36.3762 16.6424 36.4671 16.6901 36.5642 16.7182C36.6613 16.7462 36.7627 16.754 36.8627 16.741C36.9627 16.7281 37.0592 16.6947 37.1469 16.6428C37.2345 16.591 37.3115 16.5215 37.3734 16.4386C37.4354 16.3556 37.4811 16.2607 37.5079 16.1593C37.5347 16.0578 37.5421 15.9519 37.5298 15.8475C37.5174 15.7431 37.4854 15.6422 37.4357 15.5507C37.386 15.4592 37.3196 15.3788 37.2401 15.3141L31.4019 10.5568V4.73603H26.802V6.8066L19.6072 0.943626C19.4646 0.8281 19.2875 0.768844 19.1071 0.776291ZM19.1356 2.59195L33.7019 14.4633V35.9635H24.5021V20.7501H13.769V35.9635H4.56926V14.4633L19.1356 2.59195ZM28.3353 6.33744H29.8686V9.30724L28.3353 8.05614V6.33744ZM15.3023 22.3515H22.9688V35.9635H15.3023V22.3515Z" fill="white"/>
</g>
<defs>
<clipPath id="clip0_379_787">
<rect width="36.8" height="36.8" fill="white"/>
</clipPath>
</defs>
</svg>
