<svg width="40" height="40" viewBox="0 0 40 40" fill="none" xmlns="http://www.w3.org/2000/svg">
<path d="M19.9875 1.58749C19.5469 1.59686 19.1938 1.95936 19.2 2.39999V20C19.1969 20.2875 19.3469 20.5562 19.5969 20.7031C19.8469 20.8469 20.1531 20.8469 20.4031 20.7031C20.6531 20.5562 20.8031 20.2875 20.8 20V2.39999C20.8031 2.18436 20.7188 1.97499 20.5656 1.82186C20.4125 1.66874 20.2031 1.58436 19.9875 1.58749ZM14.4375 2.51249C14.3375 2.50936 14.2375 2.52499 14.1469 2.55624C6.85313 5.00311 1.60001 11.8937 1.60001 20C1.60001 30.1531 9.84688 38.4 20 38.4C30.1531 38.4 38.4 30.1531 38.4 20C38.4 11.8937 33.1469 5.00311 25.8531 2.55624C25.4344 2.41561 24.9813 2.64061 24.8406 3.05936C24.7 3.47811 24.925 3.93124 25.3469 4.07499C32 6.30624 36.8 12.5844 36.8 20C36.8 29.2875 29.2875 36.8 20 36.8C10.7125 36.8 3.20001 29.2875 3.20001 20C3.20001 12.5844 8.00001 6.30624 14.6531 4.07499C15.025 3.95311 15.2563 3.58749 15.2 3.19999C15.1469 2.81561 14.825 2.52499 14.4375 2.51249Z" fill="white"/>
</svg>
