<svg width="100" height="100" viewBox="0 0 100 100" fill="none" xmlns="http://www.w3.org/2000/svg">
<path d="M40 8C30.1094 8 22 16.1094 22 26V71.125L11.4375 60.5625L8.5625 63.4375L22.5625 77.4375L24 78.8125L25.4375 77.4375L39.4375 63.4375L36.5625 60.5625L26 71.125V26C26 18.2891 32.2891 12 40 12H62V8H40ZM76 21.1875L74.5625 22.5625L60.5625 36.5625L63.4375 39.4375L74 28.875V74C74 81.7109 67.7109 88 60 88H38V92H60C69.8906 92 78 83.8906 78 74V28.875L88.5625 39.4375L91.4375 36.5625L77.4375 22.5625L76 21.1875Z" fill="#168CD0"/>
</svg>
