<svg width="40" height="40" viewBox="0 0 40 40" fill="none" xmlns="http://www.w3.org/2000/svg">
<path d="M17.7641 1.60001C17.5744 1.60011 17.391 1.66756 17.2465 1.79033C17.102 1.91309 17.0058 2.0832 16.975 2.27032L16.1969 7.03438C15.2612 7.30656 14.369 7.67382 13.5281 8.13126L9.59688 5.32344C9.44296 5.21354 9.25509 5.16171 9.06659 5.17715C8.87809 5.1926 8.70116 5.27432 8.56719 5.40782L5.45469 8.51719C5.32168 8.6503 5.23984 8.82602 5.22355 9.01348C5.20726 9.20094 5.25757 9.38815 5.36563 9.54219L8.13125 13.4984C7.66676 14.3442 7.29137 15.2415 7.0125 16.1859L2.26875 16.975C2.08221 17.0064 1.91283 17.1029 1.79069 17.2474C1.66855 17.3918 1.60154 17.5749 1.60156 17.7641V22.1641C1.60122 22.3521 1.66712 22.5343 1.7877 22.6786C1.90828 22.8228 2.07583 22.9201 2.26094 22.9531L7.00781 23.7938C7.28517 24.7366 7.65818 25.6345 8.12344 26.4813L5.32344 30.3984C5.21353 30.5524 5.1617 30.7402 5.17715 30.9287C5.19259 31.1172 5.27432 31.2942 5.40781 31.4281L8.51875 34.5406C8.65156 34.6735 8.82688 34.7554 9.014 34.7719C9.20112 34.7885 9.3881 34.7387 9.54219 34.6313L13.5063 31.8563C14.3496 32.3164 15.244 32.6863 16.1828 32.9609L16.975 37.7313C17.0061 37.9181 17.1024 38.0878 17.2469 38.2103C17.3914 38.3327 17.5747 38.4 17.7641 38.4H22.1641C22.3523 38.4003 22.5347 38.3342 22.679 38.2133C22.8233 38.0924 22.9204 37.9245 22.9531 37.7391L23.8016 32.95C24.7365 32.6712 25.6267 32.2958 26.4656 31.8328L30.4563 34.6328C30.6103 34.7409 30.7975 34.7912 30.985 34.7749C31.1724 34.7586 31.3481 34.6768 31.4813 34.5438L34.5922 31.4297C34.7263 31.2953 34.8082 31.1177 34.8234 30.9285C34.8385 30.7393 34.7859 30.5509 34.675 30.3969L31.8297 26.4469C32.2846 25.612 32.6511 24.7271 32.9234 23.7984L37.7375 22.9547C37.9229 22.922 38.0908 22.8249 38.2117 22.6806C38.3326 22.5362 38.3987 22.3539 38.3984 22.1656V17.7656C38.3983 17.576 38.3309 17.3926 38.2081 17.2481C38.0853 17.1035 37.9152 17.0073 37.7281 16.9766L32.9219 16.1906C32.6477 15.2631 32.2802 14.3798 31.825 13.5453L34.6313 9.54688C34.7393 9.39283 34.7896 9.20563 34.7733 9.01817C34.757 8.83071 34.6752 8.65498 34.5422 8.52188L31.4297 5.41094C31.2953 5.27688 31.1177 5.19494 30.9285 5.17977C30.7393 5.1646 30.5509 5.21719 30.3969 5.32813L26.4578 8.16094C25.6186 7.69985 24.7278 7.3264 23.7906 7.05001L22.9531 2.26251C22.9207 2.07682 22.8238 1.90854 22.6794 1.78734C22.5351 1.66614 22.3526 1.59979 22.1641 1.60001H17.7641ZM18.4453 3.20001H21.4922L22.2891 7.74844C22.3156 7.901 22.3858 8.04258 22.4912 8.15601C22.5966 8.26945 22.7326 8.34986 22.8828 8.38751C24.0528 8.67907 25.1517 9.14125 26.1547 9.74844C26.2888 9.8297 26.4438 9.86975 26.6005 9.86364C26.7572 9.85753 26.9086 9.80552 27.0359 9.71407L30.7797 7.02344L32.9344 9.17813L30.2688 12.9766C30.1797 13.1033 30.1294 13.2531 30.1238 13.4079C30.1183 13.5626 30.1578 13.7157 30.2375 13.8484C30.8387 14.8492 31.2947 15.9411 31.5859 17.1047C31.6239 17.2562 31.7053 17.3934 31.8203 17.4992C31.9352 17.6049 32.0786 17.6748 32.2328 17.7L36.7984 18.4469V21.4938L32.2234 22.2969C32.0708 22.3239 31.9292 22.3947 31.8161 22.5007C31.7029 22.6066 31.6229 22.7432 31.5859 22.8938C31.298 24.0559 30.8418 25.1478 30.2406 26.1484C30.1599 26.2825 30.1203 26.4373 30.1267 26.5937C30.1331 26.75 30.1852 26.9011 30.2766 27.0281L32.9797 30.7797L30.825 32.9359L27.0328 30.275C26.9055 30.1858 26.7549 30.1356 26.5995 30.1307C26.4441 30.1257 26.2906 30.166 26.1578 30.2469C25.1598 30.8541 24.0598 31.3184 22.8938 31.6141C22.7443 31.6518 22.6089 31.7318 22.5038 31.8446C22.3987 31.9575 22.3285 32.0982 22.3016 32.25L21.4938 36.8H18.4422L17.6891 32.2703C17.6634 32.1162 17.5933 31.973 17.4872 31.8584C17.3811 31.7437 17.2438 31.6626 17.0922 31.625C15.9215 31.3365 14.8177 30.875 13.8078 30.2688C13.6752 30.1894 13.5225 30.15 13.368 30.1556C13.2136 30.1611 13.0641 30.2113 12.9375 30.3L9.175 32.9359L7.01875 30.7766L9.67813 27.0594C9.76901 26.932 9.82056 26.7808 9.82639 26.6245C9.83222 26.4681 9.79208 26.3135 9.71094 26.1797C9.09812 25.1671 8.63466 24.0634 8.34219 22.8875C8.30477 22.7377 8.22482 22.602 8.11198 22.4966C7.99914 22.3913 7.85823 22.3208 7.70625 22.2938L3.20156 21.4938V18.4422L7.70313 17.6938C7.85701 17.6682 8.00008 17.5983 8.11473 17.4925C8.22939 17.3868 8.31062 17.2498 8.34844 17.0984C8.64342 15.9185 9.10666 14.815 9.71719 13.8047C9.7977 13.6721 9.8379 13.5189 9.83291 13.3638C9.82792 13.2087 9.77794 13.0584 9.68906 12.9313L7.06094 9.17501L9.21875 7.01876L12.9484 9.68438C13.0753 9.77486 13.2259 9.82631 13.3816 9.83241C13.5373 9.83852 13.6914 9.79902 13.825 9.71876C14.8295 9.11544 15.9359 8.65767 17.1078 8.37032C17.2602 8.33281 17.3981 8.25135 17.5045 8.13606C17.6109 8.02076 17.6811 7.87673 17.7063 7.72188L18.4453 3.20001ZM20 13.6C16.4749 13.6 13.6 16.4749 13.6 20C13.6 23.5252 16.4749 26.4 20 26.4C23.5251 26.4 26.4 23.5252 26.4 20C26.4 16.4749 23.5251 13.6 20 13.6ZM20 15.2C22.6604 15.2 24.8 17.3396 24.8 20C24.8 22.6604 22.6604 24.8 20 24.8C17.3396 24.8 15.2 22.6604 15.2 20C15.2 17.3396 17.3396 15.2 20 15.2Z" fill="#4FB4ED"/>
</svg>
