<svg width="87" height="61" viewBox="0 0 87 61" fill="none" xmlns="http://www.w3.org/2000/svg">
<path d="M0.0720248 50.764L0.0240244 50.877C0.00268187 50.9278 -0.00463071 50.9835 0.00284905 51.0381C0.0103288 51.0927 0.0323267 51.1443 0.0665484 51.1875C0.10077 51.2307 0.145961 51.2639 0.197406 51.2837C0.248851 51.3035 0.304665 51.3092 0.359024 51.3H0.365025C0.563482 51.2648 0.763819 51.2411 0.965025 51.229C1.16502 51.219 1.33602 51.214 1.49402 51.214H2.61902C2.68005 51.2141 2.74025 51.2281 2.79502 51.255C2.8498 51.2819 2.89769 51.3209 2.93504 51.3692C2.97239 51.4174 2.99821 51.4736 3.01051 51.5334C3.02282 51.5932 3.02128 51.6549 3.00602 51.714L1.16802 58.945C1.10889 59.1824 1.0361 59.4161 0.950024 59.645C0.933024 59.694 0.913025 59.745 0.893025 59.794C0.866478 59.8549 0.855483 59.9213 0.86103 59.9875C0.866577 60.0536 0.888492 60.1173 0.9248 60.1729C0.961108 60.2284 1.01067 60.2741 1.06901 60.3057C1.12736 60.3373 1.19266 60.3539 1.25902 60.354H3.74002C3.84457 60.3541 3.94497 60.3131 4.01973 60.2401C4.09449 60.167 4.13767 60.0675 4.14002 59.963C4.14002 59.855 4.15302 59.75 4.16702 59.645C4.19991 59.409 4.24733 59.1752 4.30902 58.945L6.19702 51.514C6.21922 51.428 6.2694 51.3519 6.33965 51.2976C6.4099 51.2433 6.49622 51.2139 6.58502 51.214H7.91202C8.06502 51.214 8.23202 51.214 8.41202 51.228C8.59523 51.2385 8.77759 51.2606 8.95802 51.294L8.99702 51.301C9.06024 51.3131 9.12553 51.3083 9.18631 51.2871C9.24708 51.2659 9.30119 51.2291 9.34318 51.1803C9.38517 51.1315 9.41355 51.0725 9.42546 51.0093C9.43737 50.946 9.43239 50.8807 9.41102 50.82C9.30632 50.5408 9.11883 50.3002 8.87364 50.1304C8.62845 49.9606 8.33725 49.8698 8.03902 49.87H1.42102C1.13318 49.8699 0.8517 49.9547 0.611765 50.1137C0.371831 50.2727 0.184094 50.4989 0.0720248 50.764V50.764Z" fill="#444444"/>
<path d="M17.492 54.718C17.672 54.007 17.645 53.488 17.405 53.149C17.165 52.81 16.712 52.649 16.044 52.649H10.599C9.93235 52.649 9.39501 52.8157 8.98701 53.149C8.57801 53.488 8.28701 54.007 8.10501 54.718L7.19701 58.292C7.01401 59.003 7.04401 59.525 7.28101 59.861C7.51801 60.197 7.97401 60.361 8.64301 60.361H14.927C15.1935 60.3611 15.4543 60.2833 15.6771 60.137C15.8999 59.9908 16.0751 59.7826 16.181 59.538V59.538C16.2006 59.4906 16.2078 59.439 16.2018 59.3881C16.1958 59.3372 16.1769 59.2886 16.1468 59.2471C16.1167 59.2056 16.0765 59.1725 16.03 59.1509C15.9834 59.1294 15.9321 59.1201 15.881 59.124H15.876C15.7346 59.1401 15.5924 59.1488 15.45 59.15H10.388C10.198 59.15 10.075 59.111 10.023 59.024C9.97101 58.937 9.97301 58.794 10.029 58.591L10.3 57.517C10.3222 57.431 10.3724 57.3549 10.4426 57.3006C10.5129 57.2463 10.5992 57.2169 10.688 57.217H16.119C16.3303 57.2171 16.5356 57.1467 16.7024 57.017C16.8692 56.8874 16.988 56.7058 17.04 56.501L17.492 54.718ZM11.199 55.997C11.1379 55.9971 11.0776 55.9832 11.0227 55.9564C10.9678 55.9296 10.9198 55.8905 10.8823 55.8422C10.8448 55.794 10.8189 55.7377 10.8066 55.6779C10.7942 55.6181 10.7957 55.5562 10.811 55.497L11.084 54.421C11.1123 54.2593 11.1874 54.1095 11.3 53.99C11.4212 53.8955 11.5741 53.8511 11.727 53.866H14.299C14.49 53.866 14.611 53.903 14.663 53.99C14.715 54.077 14.713 54.218 14.663 54.421L14.337 55.692C14.3148 55.778 14.2646 55.8541 14.1944 55.9085C14.1241 55.9628 14.0378 55.9922 13.949 55.992L11.199 55.997Z" fill="#444444"/>
<path d="M26.546 52.653C26.3071 52.6534 26.0772 52.7445 25.903 52.908V52.908C25.8075 52.997 25.7029 53.0758 25.591 53.143L22.401 55.148C22.3333 55.1904 22.2545 55.2115 22.1748 55.2087C22.095 55.2059 22.0179 55.1792 21.9534 55.1323C21.8888 55.0853 21.8398 55.02 21.8127 54.945C21.7855 54.8699 21.7815 54.7884 21.801 54.711L22.727 51.064C22.7635 50.922 22.767 50.7735 22.7372 50.6299C22.7074 50.4863 22.6451 50.3514 22.5552 50.2355C22.4652 50.1197 22.3499 50.026 22.2182 49.9616C22.0864 49.8972 21.9417 49.8638 21.795 49.864H20.685C20.4928 49.8639 20.3071 49.9337 20.1626 50.0605C20.0182 50.1873 19.9248 50.3624 19.9 50.553C19.886 50.665 19.872 50.764 19.86 50.823C19.822 51.039 19.76 51.298 19.685 51.599L17.903 58.611C17.825 58.911 17.754 59.175 17.684 59.391C17.614 59.607 17.55 59.791 17.484 59.942C17.4662 59.986 17.4595 60.0338 17.4644 60.081C17.4693 60.1282 17.4856 60.1735 17.5121 60.213C17.5385 60.2524 17.5742 60.2848 17.616 60.3073C17.6578 60.3298 17.7045 60.3417 17.752 60.342H20.113C20.2226 60.3419 20.3283 60.3009 20.4092 60.2268C20.49 60.1528 20.5403 60.0512 20.55 59.942V59.942C20.566 59.79 20.59 59.606 20.632 59.391C20.674 59.176 20.732 58.916 20.811 58.611L21.046 57.692C21.1219 57.391 21.3115 57.1312 21.575 56.967L22.092 56.644C22.1439 56.6116 22.2025 56.5915 22.2634 56.5852C22.3242 56.579 22.3857 56.5868 22.4431 56.608C22.5005 56.6293 22.5522 56.6634 22.5943 56.7078C22.6364 56.7522 22.6678 56.8056 22.686 56.864L23.565 59.677C23.6262 59.8726 23.7482 60.0436 23.9133 60.165C24.0785 60.2865 24.278 60.352 24.483 60.352H26.704C26.75 60.3519 26.7951 60.3398 26.8349 60.3168C26.8747 60.2938 26.9078 60.2608 26.9309 60.221C26.9539 60.1812 26.9662 60.1361 26.9664 60.0902C26.9666 60.0442 26.9547 59.999 26.932 59.959V59.959C26.8524 59.826 26.7806 59.6884 26.717 59.547C26.6662 59.4432 26.6227 59.336 26.587 59.226L25.279 54.986C25.2524 54.9003 25.2554 54.8082 25.2875 54.7244C25.3196 54.6406 25.379 54.57 25.456 54.524L26.63 53.824C27.02 53.592 27.335 53.403 27.577 53.26C27.819 53.117 28.008 53.007 28.148 52.928L28.293 52.849C28.3152 52.8399 28.3334 52.8231 28.3443 52.8016C28.3551 52.7802 28.3579 52.7556 28.352 52.7323C28.3462 52.709 28.3322 52.6885 28.3125 52.6747C28.2929 52.6609 28.2689 52.6546 28.245 52.657L26.546 52.653Z" fill="#444444"/>
<path d="M75.028 52.653C74.7888 52.6531 74.5585 52.7443 74.384 52.908V52.908C74.2885 52.997 74.184 53.0758 74.072 53.143L70.882 55.148C70.8144 55.1904 70.7356 55.2115 70.6558 55.2087C70.576 55.2059 70.4989 55.1792 70.4344 55.1323C70.3698 55.0853 70.3209 55.02 70.2937 54.945C70.2666 54.8699 70.2625 54.7884 70.282 54.711L71.208 51.064C71.2445 50.922 71.248 50.7735 71.2182 50.6299C71.1884 50.4863 71.1262 50.3514 71.0362 50.2355C70.9462 50.1197 70.831 50.026 70.6992 49.9616C70.5674 49.8972 70.4227 49.8638 70.276 49.864H68.866C68.756 49.8638 68.6499 49.9047 68.5685 49.9787C68.4871 50.0527 68.4363 50.1545 68.426 50.264V50.269C68.412 50.422 68.384 50.604 68.342 50.821C68.3 51.038 68.242 51.296 68.167 51.597L66.386 58.609C66.307 58.909 66.236 59.173 66.166 59.389C66.096 59.605 66.032 59.789 65.966 59.94C65.96 59.955 65.954 59.97 65.947 59.984C65.9302 60.0237 65.9234 60.0669 65.9274 60.1098C65.9313 60.1527 65.9458 60.194 65.9696 60.23C65.9933 60.2659 66.0256 60.2954 66.0636 60.3158C66.1015 60.3363 66.1439 60.347 66.187 60.347H68.759C68.8255 60.3471 68.8894 60.3218 68.9378 60.2762C68.9861 60.2307 69.0152 60.1683 69.019 60.102C69.019 60.05 69.026 59.996 69.03 59.94C69.046 59.788 69.07 59.604 69.112 59.389C69.154 59.174 69.212 58.914 69.291 58.609L69.553 57.577C69.61 57.3474 69.7532 57.1486 69.953 57.022L70.567 56.639C70.6189 56.6066 70.6775 56.5865 70.7384 56.5802C70.7992 56.574 70.8607 56.5818 70.9181 56.603C70.9755 56.6243 71.0272 56.6584 71.0693 56.7028C71.1114 56.7472 71.1428 56.8006 71.161 56.859L72.046 59.679C72.1072 59.8746 72.2292 60.0456 72.3943 60.1671C72.5595 60.2885 72.7591 60.354 72.964 60.354H74.674C74.7688 60.3537 74.862 60.3298 74.9453 60.2846C75.0286 60.2394 75.0993 60.1743 75.1513 60.095C75.2032 60.0157 75.2346 59.9248 75.2428 59.8304C75.251 59.736 75.2356 59.641 75.198 59.554V59.554C75.1472 59.4502 75.1037 59.3429 75.068 59.233L73.76 54.993C73.7335 54.9072 73.7367 54.815 73.769 54.7312C73.8013 54.6474 73.8608 54.5769 73.938 54.531L75.111 53.831C75.501 53.599 75.811 53.41 76.058 53.267C76.305 53.124 76.489 53.014 76.629 52.935L76.774 52.856C76.7963 52.8469 76.8145 52.8301 76.8253 52.8086C76.8361 52.7872 76.8389 52.7626 76.8331 52.7393C76.8272 52.716 76.8132 52.6955 76.7936 52.6817C76.7739 52.6679 76.7499 52.6616 76.726 52.664L75.028 52.653Z" fill="#444444"/>
<path d="M34.657 49.869H32.065C31.8695 49.8692 31.6808 49.9402 31.5337 50.0689C31.3866 50.1976 31.2911 50.3753 31.265 50.569V50.576C31.232 50.8118 31.1855 51.0455 31.126 51.276L29.177 58.944C29.1187 59.1815 29.0462 59.4152 28.96 59.644C28.942 59.693 28.923 59.744 28.902 59.793C28.8754 59.8539 28.8644 59.9205 28.87 59.9867C28.8756 60.0529 28.8976 60.1167 28.934 60.1723C28.9705 60.2278 29.0202 60.2735 29.0786 60.305C29.1371 60.3366 29.2025 60.3531 29.269 60.353H30.046C30.1504 60.353 30.2506 60.3123 30.3254 60.2394C30.4001 60.1665 30.4434 60.0674 30.446 59.963C30.446 59.855 30.459 59.749 30.473 59.644C30.5054 59.4079 30.5528 59.1741 30.615 58.944L32.159 52.971C32.1786 52.8971 32.2231 52.8322 32.285 52.7872C32.3469 52.7422 32.4223 52.7199 32.4987 52.724C32.5751 52.7281 32.6477 52.7583 32.7044 52.8097C32.7611 52.8611 32.7984 52.9304 32.81 53.006L33.76 59.53C33.7934 59.7587 33.908 59.9676 34.0828 60.1188C34.2576 60.2699 34.4809 60.353 34.712 60.353H35.535C35.6935 60.3527 35.8495 60.3131 35.9891 60.2379C36.1287 60.1627 36.2475 60.0542 36.335 59.922L40.978 52.905C41.0191 52.8433 41.0807 52.7981 41.1518 52.7773C41.223 52.7565 41.2992 52.7615 41.367 52.7914C41.4349 52.8212 41.49 52.8741 41.5228 52.9406C41.5555 53.0071 41.5637 53.083 41.546 53.155L40.1 58.944C40.0405 59.1809 39.9688 59.4146 39.885 59.644C39.867 59.693 39.848 59.744 39.827 59.791C39.8001 59.8519 39.7887 59.9185 39.794 59.9848C39.7993 60.0511 39.821 60.1151 39.8573 60.1709C39.8935 60.2267 39.9431 60.2726 40.0016 60.3044C40.06 60.3362 40.1255 60.3529 40.192 60.353H42.572C42.6766 60.353 42.777 60.3121 42.8517 60.2391C42.9265 60.166 42.9697 60.0665 42.972 59.962C42.976 59.8547 42.985 59.7487 42.999 59.644C43.0319 59.408 43.0793 59.1742 43.141 58.944L45.09 51.276C45.1468 51.0385 45.2183 50.8047 45.304 50.576V50.569C45.333 50.4905 45.3426 50.4061 45.332 50.3231C45.3213 50.24 45.2908 50.1608 45.243 50.092C45.1952 50.0233 45.1315 49.9672 45.0574 49.9283C44.9832 49.8895 44.9007 49.8692 44.817 49.869H42.168C42.0094 49.8691 41.8533 49.9085 41.7137 49.9837C41.5741 50.059 41.4553 50.1676 41.368 50.3L37.192 56.61C37.1477 56.6789 37.0834 56.7326 37.0077 56.7637C36.932 56.7949 36.8485 56.8021 36.7686 56.7843C36.6887 56.7665 36.6161 56.7247 36.5608 56.6643C36.5054 56.604 36.4699 56.5282 36.459 56.447L35.608 50.692C35.575 50.4634 35.4607 50.2543 35.286 50.1031C35.1113 49.9519 34.888 49.8688 34.657 49.869V49.869Z" fill="#444444"/>
<path d="M51.663 60.354C52.33 60.354 52.863 60.192 53.278 59.854C53.693 59.516 53.978 58.996 54.161 58.285L55.067 54.714C55.251 54.003 55.223 53.484 54.982 53.145C54.741 52.806 54.289 52.645 53.622 52.645H48.176C47.5093 52.645 46.9723 52.8117 46.565 53.145C46.155 53.484 45.86 54.003 45.682 54.714L44.775 58.292C44.59 59.003 44.622 59.525 44.858 59.861C45.094 60.197 45.551 60.361 46.219 60.361L51.663 60.354ZM47.963 59.143C47.775 59.143 47.652 59.104 47.6 59.017C47.548 58.93 47.549 58.787 47.605 58.584L48.66 54.423C48.6883 54.2613 48.7634 54.1115 48.876 53.992C48.997 53.8978 49.1494 53.8534 49.302 53.868H51.876C52.068 53.868 52.188 53.905 52.24 53.992C52.292 54.079 52.29 54.22 52.24 54.423L51.181 58.584C51.1526 58.7463 51.0776 58.8968 50.965 59.017C50.8439 59.1111 50.6918 59.1561 50.539 59.143H47.963Z" fill="#444444"/>
<path d="M57.186 52.653C57.0762 52.6531 56.9703 52.6941 56.8891 52.7681C56.8079 52.842 56.7572 52.9437 56.747 53.053C56.7286 53.2386 56.7009 53.4232 56.664 53.606C56.623 53.823 56.564 54.082 56.489 54.385L55.414 58.61C55.336 58.91 55.263 59.174 55.194 59.39C55.125 59.606 55.06 59.79 54.994 59.941C54.9769 59.9859 54.9707 60.0342 54.9762 60.0819C54.9816 60.1296 54.9984 60.1754 55.0251 60.2152C55.0519 60.2551 55.0878 60.288 55.1299 60.3111C55.172 60.3342 55.219 60.3469 55.267 60.348H57.619C57.729 60.348 57.835 60.3071 57.9163 60.2331C57.9977 60.1591 58.0486 60.0575 58.059 59.948V59.948C58.0786 59.7613 58.1076 59.5758 58.146 59.392C58.188 59.176 58.246 58.917 58.324 58.612L59.387 54.419C59.4153 54.2567 59.4916 54.1066 59.606 53.988C59.7262 53.8931 59.8786 53.8486 60.031 53.864H62.503C62.695 53.864 62.814 53.901 62.867 53.988C62.92 54.075 62.918 54.216 62.867 54.419L61.801 58.612C61.725 58.912 61.65 59.176 61.582 59.392C61.514 59.608 61.447 59.792 61.382 59.943C61.3634 59.9877 61.3561 60.0362 61.3608 60.0844C61.3654 60.1325 61.3819 60.1787 61.4087 60.219C61.4355 60.2592 61.4718 60.2923 61.5144 60.3151C61.557 60.338 61.6046 60.35 61.653 60.35H64.008C64.1179 60.3498 64.2238 60.3087 64.3051 60.2348C64.3864 60.1609 64.4373 60.0594 64.448 59.95C64.4652 59.7651 64.4923 59.5811 64.529 59.399C64.57 59.183 64.629 58.924 64.706 58.619L65.697 54.719C65.878 54.008 65.852 53.489 65.612 53.15C65.372 52.811 64.919 52.65 64.249 52.65H60.67C60.5259 52.6468 60.3824 52.6706 60.247 52.72C60.1158 52.7751 59.9983 52.8584 59.903 52.964C59.86 53.009 59.794 53.092 59.729 53.176C59.7156 53.1935 59.6977 53.207 59.6772 53.215C59.6567 53.2231 59.6344 53.2254 59.6126 53.2217C59.5909 53.218 59.5706 53.2084 59.554 53.194C59.5373 53.1796 59.5248 53.161 59.518 53.14C59.4783 52.999 59.3936 52.8748 59.2768 52.7863C59.16 52.6979 59.0175 52.65 58.871 52.65L57.186 52.653Z" fill="#444444"/>
<path d="M85.875 56.799C86.162 55.653 85.642 55.079 84.306 55.079H80.732C80.558 55.079 80.432 55.04 80.37 54.966C80.308 54.892 80.289 54.777 80.331 54.621L80.419 54.26C80.4487 54.1218 80.5263 53.9986 80.638 53.912C80.7617 53.8308 80.9083 53.7918 81.056 53.801H84.728C84.996 53.801 85.222 53.801 85.412 53.808C85.602 53.815 85.764 53.822 85.899 53.835C86.0224 53.8461 86.145 53.8651 86.266 53.892H86.281C86.32 53.8999 86.3602 53.8995 86.399 53.8909C86.4378 53.8822 86.4744 53.8656 86.5063 53.8419C86.5383 53.8182 86.5649 53.7881 86.5845 53.7535C86.6041 53.7189 86.6162 53.6806 86.62 53.641V53.641C86.6311 53.5159 86.6161 53.3898 86.5759 53.2708C86.5358 53.1518 86.4714 53.0424 86.3868 52.9495C86.3022 52.8567 86.1993 52.7824 86.0845 52.7313C85.9697 52.6803 85.8456 52.6536 85.72 52.653H79.776C79.176 52.653 78.6857 52.8217 78.305 53.159C77.925 53.5 77.642 54.025 77.461 54.735L77.225 55.67C77.043 56.378 77.058 56.908 77.265 57.252C77.472 57.596 77.874 57.768 78.477 57.766H82.169C82.3217 57.7536 82.4731 57.8021 82.59 57.901C82.6323 57.9522 82.6608 58.0133 82.6727 58.0786C82.6846 58.144 82.6795 58.2112 82.658 58.274L82.546 58.7C82.5089 58.8516 82.4165 58.9839 82.287 59.071C82.1427 59.165 81.9731 59.2125 81.801 59.207H78.261C77.992 59.207 77.768 59.207 77.578 59.199C77.388 59.191 77.229 59.185 77.091 59.172C76.9673 59.1615 76.8444 59.1431 76.723 59.117V59.117C76.6834 59.1075 76.6423 59.1066 76.6023 59.1144C76.5624 59.1221 76.5246 59.1384 76.4914 59.1619C76.4582 59.1855 76.4305 59.216 76.4101 59.2512C76.3897 59.2864 76.377 59.3255 76.373 59.366V59.366C76.3618 59.4912 76.3767 59.6174 76.4168 59.7365C76.4568 59.8557 76.5212 59.9652 76.6058 60.0582C76.6904 60.1511 76.7934 60.2255 76.9083 60.2766C77.0231 60.3277 77.1473 60.3544 77.273 60.355H82.962C84.299 60.355 85.109 59.782 85.405 58.634L85.875 56.799Z" fill="#444444"/>
<path fill-rule="evenodd" clip-rule="evenodd" d="M45.303 45.915L53.703 24.35C53.7648 24.1918 53.8672 24.0528 54.0001 23.947C54.1329 23.8413 54.2914 23.7726 54.4594 23.7479C54.6274 23.7232 54.799 23.7434 54.9566 23.8065C55.1143 23.8696 55.2524 23.9733 55.357 24.107L57.857 27.299C57.9584 27.4285 58.0913 27.5298 58.243 27.5933C58.3947 27.6568 58.5602 27.6804 58.7236 27.6617C58.887 27.643 59.0428 27.5828 59.1763 27.4868C59.3098 27.3907 59.4164 27.262 59.486 27.113L63.214 19.125C63.2918 18.9598 63.4149 18.8201 63.569 18.7223C63.7232 18.6245 63.902 18.5725 64.0845 18.5725C64.2671 18.5725 64.4459 18.6245 64.6001 18.7223C64.7542 18.8201 64.8773 18.9598 64.9551 19.125L70.3871 30.617C70.4493 30.7487 70.4809 30.8929 70.4793 31.0386C70.4778 31.1843 70.4431 31.3277 70.3781 31.458L68.4781 35.258C68.3972 35.4202 68.2721 35.5562 68.1173 35.6503C67.9625 35.7445 67.7842 35.7929 67.6031 35.7901C67.4219 35.7873 67.2452 35.7333 67.0934 35.6344C66.9416 35.5355 66.8208 35.3956 66.745 35.231L63.9801 29.241C63.9022 29.0725 63.7772 28.9301 63.6202 28.831C63.4632 28.7319 63.2809 28.6804 63.0952 28.6826C62.9096 28.6848 62.7286 28.7407 62.574 28.8435C62.4194 28.9463 62.2979 29.0917 62.224 29.262L59.769 34.94C59.7005 35.0988 59.5904 35.2361 59.4503 35.3375C59.3103 35.4389 59.1455 35.5007 58.9732 35.5162C58.801 35.5318 58.6278 35.5006 58.4718 35.4259C58.3159 35.3513 58.1829 35.2359 58.087 35.092L55.274 30.947C55.1782 30.8058 55.0465 30.6926 54.8925 30.619C54.7385 30.5454 54.5677 30.5142 54.3976 30.5284C54.2275 30.5427 54.0643 30.6019 53.9246 30.7001C53.785 30.7983 53.674 30.9318 53.603 31.087L46.58 46.455C46.5048 46.616 46.3712 46.7423 46.2063 46.8084C46.0414 46.8745 45.8576 46.8754 45.692 46.811V46.811C45.5222 46.7431 45.3861 46.6108 45.3132 46.4431C45.2404 46.2753 45.2367 46.0855 45.303 45.915V45.915Z" fill="#444444"/>
<path fill-rule="evenodd" clip-rule="evenodd" d="M70.317 25.052L69.06 22.917C68.9879 22.7948 68.9437 22.6582 68.9305 22.517C68.9174 22.3758 68.9356 22.2333 68.984 22.1L73.836 8.75999L73.046 8.36599C72.9086 8.29722 72.7897 8.19652 72.6992 8.07234C72.6086 7.94816 72.5492 7.80411 72.5258 7.65224C72.5024 7.50037 72.5157 7.3451 72.5646 7.19944C72.6136 7.05377 72.6967 6.92195 72.807 6.815L79.846 0L79.627 9.659C79.6234 9.81253 79.5831 9.96297 79.5095 10.0977C79.4358 10.2325 79.331 10.3477 79.2037 10.4336C79.0764 10.5196 78.9304 10.5738 78.7779 10.5918C78.6254 10.6098 78.4708 10.591 78.327 10.537L77.593 10.262L72.046 24.905C71.9821 25.075 71.8713 25.2234 71.7265 25.333C71.5817 25.4426 71.4089 25.5089 71.2279 25.5243C71.047 25.5397 70.8654 25.5035 70.7041 25.4199C70.5429 25.3363 70.4087 25.2087 70.317 25.052V25.052Z" fill="#444444"/>
<path fill-rule="evenodd" clip-rule="evenodd" d="M14.708 20.992L20.033 35.297C20.3646 36.1879 21.0144 36.9244 21.857 37.3645C22.6996 37.8045 23.6754 37.9169 24.596 37.68L30.007 36.292C30.007 36.292 28.067 33.474 27.753 31.032C27.439 28.59 27.816 24.269 27.753 23.267C27.69 22.265 27.941 21.515 27.503 21.515C27.065 21.515 24.746 21.264 24.746 21.264C24.746 21.264 27.938 17.507 28.001 17.257C28.036 17.116 23.131 16.422 18.825 15.841C15.946 15.452 13.694 18.272 14.708 20.992Z" fill="#444444"/>
<path fill-rule="evenodd" clip-rule="evenodd" d="M30.508 17.507L41.793 19.046C42.3944 19.128 42.9678 19.3511 43.4665 19.6971C43.9652 20.043 44.3749 20.5021 44.6622 21.0367C44.9495 21.5713 45.1062 22.1664 45.1196 22.7732C45.1329 23.3799 45.0025 23.9813 44.739 24.528L40.275 33.786C40.275 33.786 38.96 34.351 38.275 33.286C38.275 33.286 35.144 34.412 33.767 33.786C32.39 33.16 31.701 30.593 31.513 28.026C31.325 25.459 31.013 21.264 31.013 21.264H36.524V18.764H30.508V17.507Z" fill="#444444"/>
</svg>
