<svg width="105" height="19" viewBox="0 0 105 19" fill="none" xmlns="http://www.w3.org/2000/svg">
<path d="M8.28516 0.9375V18H6.05859V0.9375H8.28516ZM13.7695 0.9375V2.78906H0.585938V0.9375H13.7695ZM20.0625 18.2344C19.1797 18.2344 18.3789 18.0859 17.6602 17.7891C16.9492 17.4844 16.3359 17.0586 15.8203 16.5117C15.3125 15.9648 14.9219 15.3164 14.6484 14.5664C14.375 13.8164 14.2383 12.9961 14.2383 12.1055V11.6133C14.2383 10.582 14.3906 9.66406 14.6953 8.85938C15 8.04688 15.4141 7.35938 15.9375 6.79688C16.4609 6.23438 17.0547 5.80859 17.7188 5.51953C18.3828 5.23047 19.0703 5.08594 19.7812 5.08594C20.6875 5.08594 21.4688 5.24219 22.125 5.55469C22.7891 5.86719 23.332 6.30469 23.7539 6.86719C24.1758 7.42188 24.4883 8.07812 24.6914 8.83594C24.8945 9.58594 24.9961 10.4062 24.9961 11.2969V12.2695H15.5273V10.5H22.8281V10.3359C22.7969 9.77344 22.6797 9.22656 22.4766 8.69531C22.2812 8.16406 21.9688 7.72656 21.5391 7.38281C21.1094 7.03906 20.5234 6.86719 19.7812 6.86719C19.2891 6.86719 18.8359 6.97266 18.4219 7.18359C18.0078 7.38672 17.6523 7.69141 17.3555 8.09766C17.0586 8.50391 16.8281 9 16.6641 9.58594C16.5 10.1719 16.418 10.8477 16.418 11.6133V12.1055C16.418 12.707 16.5 13.2734 16.6641 13.8047C16.8359 14.3281 17.082 14.7891 17.4023 15.1875C17.7305 15.5859 18.125 15.8984 18.5859 16.125C19.0547 16.3516 19.5859 16.4648 20.1797 16.4648C20.9453 16.4648 21.5938 16.3086 22.125 15.9961C22.6562 15.6836 23.1211 15.2656 23.5195 14.7422L24.832 15.7852C24.5586 16.1992 24.2109 16.5938 23.7891 16.9688C23.3672 17.3438 22.8477 17.6484 22.2305 17.8828C21.6211 18.1172 20.8984 18.2344 20.0625 18.2344ZM29.8828 0V18H27.7031V0H29.8828ZM38.625 18.2344C37.7422 18.2344 36.9414 18.0859 36.2227 17.7891C35.5117 17.4844 34.8984 17.0586 34.3828 16.5117C33.875 15.9648 33.4844 15.3164 33.2109 14.5664C32.9375 13.8164 32.8008 12.9961 32.8008 12.1055V11.6133C32.8008 10.582 32.9531 9.66406 33.2578 8.85938C33.5625 8.04688 33.9766 7.35938 34.5 6.79688C35.0234 6.23438 35.6172 5.80859 36.2812 5.51953C36.9453 5.23047 37.6328 5.08594 38.3438 5.08594C39.25 5.08594 40.0312 5.24219 40.6875 5.55469C41.3516 5.86719 41.8945 6.30469 42.3164 6.86719C42.7383 7.42188 43.0508 8.07812 43.2539 8.83594C43.457 9.58594 43.5586 10.4062 43.5586 11.2969V12.2695H34.0898V10.5H41.3906V10.3359C41.3594 9.77344 41.2422 9.22656 41.0391 8.69531C40.8438 8.16406 40.5312 7.72656 40.1016 7.38281C39.6719 7.03906 39.0859 6.86719 38.3438 6.86719C37.8516 6.86719 37.3984 6.97266 36.9844 7.18359C36.5703 7.38672 36.2148 7.69141 35.918 8.09766C35.6211 8.50391 35.3906 9 35.2266 9.58594C35.0625 10.1719 34.9805 10.8477 34.9805 11.6133V12.1055C34.9805 12.707 35.0625 13.2734 35.2266 13.8047C35.3984 14.3281 35.6445 14.7891 35.9648 15.1875C36.293 15.5859 36.6875 15.8984 37.1484 16.125C37.6172 16.3516 38.1484 16.4648 38.7422 16.4648C39.5078 16.4648 40.1562 16.3086 40.6875 15.9961C41.2188 15.6836 41.6836 15.2656 42.082 14.7422L43.3945 15.7852C43.1211 16.1992 42.7734 16.5938 42.3516 16.9688C41.9297 17.3438 41.4102 17.6484 40.793 17.8828C40.1836 18.1172 39.4609 18.2344 38.625 18.2344Z" fill="#00C24E"/>
<path d="M49.3008 15.75L52.5586 5.32031H53.9883L53.707 7.39453L50.3906 18H48.9961L49.3008 15.75ZM47.1094 5.32031L49.8867 15.8672L50.0859 18H48.6211L44.9414 5.32031H47.1094ZM57.1055 15.7852L59.7539 5.32031H61.9102L58.2305 18H56.7773L57.1055 15.7852ZM54.3047 5.32031L57.4922 15.5742L57.8555 18H56.4727L53.0625 7.37109L52.7812 5.32031H54.3047ZM63.5625 11.8008V11.5312C63.5625 10.6172 63.6953 9.76953 63.9609 8.98828C64.2266 8.19922 64.6094 7.51562 65.1094 6.9375C65.6094 6.35156 66.2148 5.89844 66.9258 5.57812C67.6367 5.25 68.4336 5.08594 69.3164 5.08594C70.207 5.08594 71.0078 5.25 71.7188 5.57812C72.4375 5.89844 73.0469 6.35156 73.5469 6.9375C74.0547 7.51562 74.4414 8.19922 74.707 8.98828C74.9727 9.76953 75.1055 10.6172 75.1055 11.5312V11.8008C75.1055 12.7148 74.9727 13.5625 74.707 14.3438C74.4414 15.125 74.0547 15.8086 73.5469 16.3945C73.0469 16.9727 72.4414 17.4258 71.7305 17.7539C71.0273 18.0742 70.2305 18.2344 69.3398 18.2344C68.4492 18.2344 67.6484 18.0742 66.9375 17.7539C66.2266 17.4258 65.6172 16.9727 65.1094 16.3945C64.6094 15.8086 64.2266 15.125 63.9609 14.3438C63.6953 13.5625 63.5625 12.7148 63.5625 11.8008ZM65.7305 11.5312V11.8008C65.7305 12.4336 65.8047 13.0312 65.9531 13.5938C66.1016 14.1484 66.3242 14.6406 66.6211 15.0703C66.9258 15.5 67.3047 15.8398 67.7578 16.0898C68.2109 16.332 68.7383 16.4531 69.3398 16.4531C69.9336 16.4531 70.4531 16.332 70.8984 16.0898C71.3516 15.8398 71.7266 15.5 72.0234 15.0703C72.3203 14.6406 72.543 14.1484 72.6914 13.5938C72.8477 13.0312 72.9258 12.4336 72.9258 11.8008V11.5312C72.9258 10.9062 72.8477 10.3164 72.6914 9.76172C72.543 9.19922 72.3164 8.70312 72.0117 8.27344C71.7148 7.83594 71.3398 7.49219 70.8867 7.24219C70.4414 6.99219 69.918 6.86719 69.3164 6.86719C68.7227 6.86719 68.1992 6.99219 67.7461 7.24219C67.3008 7.49219 66.9258 7.83594 66.6211 8.27344C66.3242 8.70312 66.1016 9.19922 65.9531 9.76172C65.8047 10.3164 65.7305 10.9062 65.7305 11.5312ZM79.9922 7.3125V18H77.8242V5.32031H79.9336L79.9922 7.3125ZM83.9531 5.25L83.9414 7.26562C83.7617 7.22656 83.5898 7.20312 83.4258 7.19531C83.2695 7.17969 83.0898 7.17188 82.8867 7.17188C82.3867 7.17188 81.9453 7.25 81.5625 7.40625C81.1797 7.5625 80.8555 7.78125 80.5898 8.0625C80.3242 8.34375 80.1133 8.67969 79.957 9.07031C79.8086 9.45312 79.7109 9.875 79.6641 10.3359L79.0547 10.6875C79.0547 9.92188 79.1289 9.20312 79.2773 8.53125C79.4336 7.85938 79.6719 7.26562 79.9922 6.75C80.3125 6.22656 80.7188 5.82031 81.2109 5.53125C81.7109 5.23438 82.3047 5.08594 82.9922 5.08594C83.1484 5.08594 83.3281 5.10547 83.5312 5.14453C83.7344 5.17578 83.875 5.21094 83.9531 5.25ZM88.1367 0V18H85.957V0H88.1367ZM95.8828 5.32031L90.3516 11.2383L87.2578 14.4492L87.082 12.1406L89.2969 9.49219L93.2344 5.32031H95.8828ZM93.9023 18L89.3789 11.9531L90.5039 10.0195L96.457 18H93.9023ZM100.289 7.3125V18H98.1211V5.32031H100.23L100.289 7.3125ZM104.25 5.25L104.238 7.26562C104.059 7.22656 103.887 7.20312 103.723 7.19531C103.566 7.17969 103.387 7.17188 103.184 7.17188C102.684 7.17188 102.242 7.25 101.859 7.40625C101.477 7.5625 101.152 7.78125 100.887 8.0625C100.621 8.34375 100.41 8.67969 100.254 9.07031C100.105 9.45312 100.008 9.875 99.9609 10.3359L99.3516 10.6875C99.3516 9.92188 99.4258 9.20312 99.5742 8.53125C99.7305 7.85938 99.9688 7.26562 100.289 6.75C100.609 6.22656 101.016 5.82031 101.508 5.53125C102.008 5.23438 102.602 5.08594 103.289 5.08594C103.445 5.08594 103.625 5.10547 103.828 5.14453C104.031 5.17578 104.172 5.21094 104.25 5.25Z" fill="#03B3FF"/>
</svg>
