<svg width="80" height="80" viewBox="0 0 80 80" fill="none" xmlns="http://www.w3.org/2000/svg">
<path d="M23 5.75H57C62.1086 5.75 66.25 9.89137 66.25 15V65C66.25 70.1086 62.1086 74.25 57 74.25H23C17.8914 74.25 13.75 70.1086 13.75 65V15C13.75 9.89137 17.8914 5.75 23 5.75Z" fill="currentColor" filter="brightness(300%)" stroke="currentColor" stroke-width="1.5"/>
<path d="M40 61C36.14 61 33 57.86 33 54C33 52.9 33.708 49.018 34.946 43.35C35.248 41.966 36.452 41 37.876 41H42.126C43.55 41 44.752 41.966 45.056 43.35C46.292 49.018 47 52.9 47 54C47 57.86 43.86 61 40 61Z" fill="white"/>
<path d="M42.126 42C43.074 42 43.878 42.642 44.078 43.564C45.862 51.748 46 53.62 46 54C46 57.308 43.308 60 40 60C36.692 60 34 57.308 34 54C34 53.62 34.138 51.748 35.922 43.564C36.122 42.644 36.926 42 37.874 42H42.126ZM42.126 40H37.876C35.994 40 34.37 41.3 33.97 43.138C33.178 46.762 32 52.432 32 54C32 58.418 35.582 62 40 62C44.418 62 48 58.418 48 54C48 52.432 46.822 46.762 46.032 43.138C45.632 41.3 44.008 40 42.126 40Z" fill="white"/>
<path d="M40 51C39.2044 51 38.4413 51.3161 37.8787 51.8787C37.3161 52.4413 37 53.2044 37 54C37 54.7956 37.3161 55.5587 37.8787 56.1213C38.4413 56.6839 39.2044 57 40 57C40.7956 57 41.5587 56.6839 42.1213 56.1213C42.6839 55.5587 43 54.7956 43 54C43 53.2044 42.6839 52.4413 42.1213 51.8787C41.5587 51.3161 40.7956 51 40 51ZM45 38H40L38 36H45V38Z" fill="white"/>
<path d="M45 36C44.7348 36 44.4804 36.1054 44.2929 36.2929C44.1054 36.4804 44 36.7348 44 37C44 37.2652 44.1054 37.5196 44.2929 37.7071C44.4804 37.8946 44.7348 38 45 38C45.2652 38 45.5196 37.8946 45.7071 37.7071C45.8946 37.5196 46 37.2652 46 37C46 36.7348 45.8946 36.4804 45.7071 36.2929C45.5196 36.1054 45.2652 36 45 36ZM35 40H40L42 38H35V40Z" fill="white"/>
<path d="M35 38C34.7348 38 34.4804 38.1054 34.2929 38.2929C34.1054 38.4804 34 38.7348 34 39C34 39.2652 34.1054 39.5196 34.2929 39.7071C34.4804 39.8946 34.7348 40 35 40C35.2652 40 35.5196 39.8946 35.7071 39.7071C35.8946 39.5196 36 39.2652 36 39C36 38.7348 35.8946 38.4804 35.7071 38.2929C35.5196 38.1054 35.2652 38 35 38ZM45 34H40L38 32H45V34Z" fill="white"/>
<path d="M45 32C44.7348 32 44.4804 32.1054 44.2929 32.2929C44.1054 32.4804 44 32.7348 44 33C44 33.2652 44.1054 33.5196 44.2929 33.7071C44.4804 33.8946 44.7348 34 45 34C45.2652 34 45.5196 33.8946 45.7071 33.7071C45.8946 33.5196 46 33.2652 46 33C46 32.7348 45.8946 32.4804 45.7071 32.2929C45.5196 32.1054 45.2652 32 45 32ZM35 36H40L42 34H35V36Z" fill="white"/>
<path d="M35 34C34.7348 34 34.4804 34.1054 34.2929 34.2929C34.1054 34.4804 34 34.7348 34 35C34 35.2652 34.1054 35.5196 34.2929 35.7071C34.4804 35.8946 34.7348 36 35 36C35.2652 36 35.5196 35.8946 35.7071 35.7071C35.8946 35.5196 36 35.2652 36 35C36 34.7348 35.8946 34.4804 35.7071 34.2929C35.5196 34.1054 35.2652 34 35 34ZM45 30H40L38 28H45V30Z" fill="white"/>
<path d="M45 28C44.7348 28 44.4804 28.1054 44.2929 28.2929C44.1054 28.4804 44 28.7348 44 29C44 29.2652 44.1054 29.5196 44.2929 29.7071C44.4804 29.8946 44.7348 30 45 30C45.2652 30 45.5196 29.8946 45.7071 29.7071C45.8946 29.5196 46 29.2652 46 29C46 28.7348 45.8946 28.4804 45.7071 28.2929C45.5196 28.1054 45.2652 28 45 28ZM35 32H40L42 30H35V32Z" fill="white"/>
<path d="M35 30C34.7348 30 34.4804 30.1054 34.2929 30.2929C34.1054 30.4804 34 30.7348 34 31C34 31.2652 34.1054 31.5196 34.2929 31.7071C34.4804 31.8946 34.7348 32 35 32C35.2652 32 35.5196 31.8946 35.7071 31.7071C35.8946 31.5196 36 31.2652 36 31C36 30.7348 35.8946 30.4804 35.7071 30.2929C35.5196 30.1054 35.2652 30 35 30ZM45 26H40L38 24H45V26Z" fill="white"/>
<path d="M45 24C44.7348 24 44.4804 24.1054 44.2929 24.2929C44.1054 24.4804 44 24.7348 44 25C44 25.2652 44.1054 25.5196 44.2929 25.7071C44.4804 25.8946 44.7348 26 45 26C45.2652 26 45.5196 25.8946 45.7071 25.7071C45.8946 25.5196 46 25.2652 46 25C46 24.7348 45.8946 24.4804 45.7071 24.2929C45.5196 24.1054 45.2652 24 45 24ZM35 28H40L42 26H35V28Z" fill="white"/>
<path d="M35 26C34.7348 26 34.4804 26.1054 34.2929 26.2929C34.1054 26.4804 34 26.7348 34 27C34 27.2652 34.1054 27.5196 34.2929 27.7071C34.4804 27.8946 34.7348 28 35 28C35.2652 28 35.5196 27.8946 35.7071 27.7071C35.8946 27.5196 36 27.2652 36 27C36 26.7348 35.8946 26.4804 35.7071 26.2929C35.5196 26.1054 35.2652 26 35 26ZM45 22H40L38 20H45V22Z" fill="white"/>
<path d="M45 20C44.7348 20 44.4804 20.1054 44.2929 20.2929C44.1054 20.4804 44 20.7348 44 21C44 21.2652 44.1054 21.5196 44.2929 21.7071C44.4804 21.8946 44.7348 22 45 22C45.2652 22 45.5196 21.8946 45.7071 21.7071C45.8946 21.5196 46 21.2652 46 21C46 20.7348 45.8946 20.4804 45.7071 20.2929C45.5196 20.1054 45.2652 20 45 20ZM35 24H40L42 22H35V24Z" fill="white"/>
<path d="M35 22C34.7348 22 34.4804 22.1054 34.2929 22.2929C34.1054 22.4804 34 22.7348 34 23C34 23.2652 34.1054 23.5196 34.2929 23.7071C34.4804 23.8946 34.7348 24 35 24C35.2652 24 35.5196 23.8946 35.7071 23.7071C35.8946 23.5196 36 23.2652 36 23C36 22.7348 35.8946 22.4804 35.7071 22.2929C35.5196 22.1054 35.2652 22 35 22ZM45 18H40L38 16H45V18Z" fill="white"/>
<path d="M45 16C44.7348 16 44.4804 16.1054 44.2929 16.2929C44.1054 16.4804 44 16.7348 44 17C44 17.2652 44.1054 17.5196 44.2929 17.7071C44.4804 17.8946 44.7348 18 45 18C45.2652 18 45.5196 17.8946 45.7071 17.7071C45.8946 17.5196 46 17.2652 46 17C46 16.7348 45.8946 16.4804 45.7071 16.2929C45.5196 16.1054 45.2652 16 45 16ZM35 20H40L42 18H35V20Z" fill="white"/>
<path d="M35 18C34.7348 18 34.4804 18.1054 34.2929 18.2929C34.1054 18.4804 34 18.7348 34 19C34 19.2652 34.1054 19.5196 34.2929 19.7071C34.4804 19.8946 34.7348 20 35 20C35.2652 20 35.5196 19.8946 35.7071 19.7071C35.8946 19.5196 36 19.2652 36 19C36 18.7348 35.8946 18.4804 35.7071 18.2929C35.5196 18.1054 35.2652 18 35 18ZM45 14H40L38 12H45V14Z" fill="white"/>
<path d="M45 12C44.7348 12 44.4804 12.1054 44.2929 12.2929C44.1054 12.4804 44 12.7348 44 13C44 13.2652 44.1054 13.5196 44.2929 13.7071C44.4804 13.8946 44.7348 14 45 14C45.2652 14 45.5196 13.8946 45.7071 13.7071C45.8946 13.5196 46 13.2652 46 13C46 12.7348 45.8946 12.4804 45.7071 12.2929C45.5196 12.1054 45.2652 12 45 12ZM35 16H40L42 14H35V16Z" fill="white"/>
<path d="M35 14C34.7348 14 34.4804 14.1054 34.2929 14.2929C34.1054 14.4804 34 14.7348 34 15C34 15.2652 34.1054 15.5196 34.2929 15.7071C34.4804 15.8946 34.7348 16 35 16C35.2652 16 35.5196 15.8946 35.7071 15.7071C35.8946 15.5196 36 15.2652 36 15C36 14.7348 35.8946 14.4804 35.7071 14.2929C35.5196 14.1054 35.2652 14 35 14ZM45 10H40L38 8H45V10Z" fill="white"/>
<path d="M45 8C44.7348 8 44.4804 8.10536 44.2929 8.29289C44.1054 8.48043 44 8.73478 44 9C44 9.26522 44.1054 9.51957 44.2929 9.70711C44.4804 9.89464 44.7348 10 45 10C45.2652 10 45.5196 9.89464 45.7071 9.70711C45.8946 9.51957 46 9.26522 46 9C46 8.73478 45.8946 8.48043 45.7071 8.29289C45.5196 8.10536 45.2652 8 45 8ZM35 12H40L42 10H35V12Z" fill="white"/>
<path d="M35 10C34.7348 10 34.4804 10.1054 34.2929 10.2929C34.1054 10.4804 34 10.7348 34 11C34 11.2652 34.1054 11.5196 34.2929 11.7071C34.4804 11.8946 34.7348 12 35 12C35.2652 12 35.5196 11.8946 35.7071 11.7071C35.8946 11.5196 36 11.2652 36 11C36 10.7348 35.8946 10.4804 35.7071 10.2929C35.5196 10.1054 35.2652 10 35 10Z" fill="white"/>
<path d="M35 8H40L42 6H35V8Z" fill="white"/>
<path d="M35 6C34.7348 6 34.4804 6.10536 34.2929 6.29289C34.1054 6.48043 34 6.73478 34 7C34 7.26522 34.1054 7.51957 34.2929 7.70711C34.4804 7.89464 34.7348 8 35 8C35.2652 8 35.5196 7.89464 35.7071 7.70711C35.8946 7.51957 36 7.26522 36 7C36 6.73478 35.8946 6.48043 35.7071 6.29289C35.5196 6.10536 35.2652 6 35 6Z" fill="white"/>
</svg>
