<svg width="80" height="80" viewBox="0 0 80 80" fill="none" xmlns="http://www.w3.org/2000/svg">
<path d="M13.75 65V15C13.75 9.89137 17.8914 5.75 23 5.75H45.4439C47.8971 5.75 50.2499 6.72455 51.9846 8.45926L63.5407 20.0154C65.2755 21.7501 66.25 24.1029 66.25 26.5561V65C66.25 70.1086 62.1086 74.25 57 74.25H23C17.8914 74.25 13.75 70.1086 13.75 65Z" fill="white" stroke="#168CD0" stroke-width="1.5"/>
<path d="M49.75 20.25V7.24284L63.6243 20.25H49.75Z" fill="#DFF0FE" stroke="#4788C7" stroke-width="1.5"/>
<path d="M24.5 53C23.121 53 22 51.878 22 50.5V40.5C22 39.122 23.121 38 24.5 38H30V53H24.5Z" fill="#DFF0FE"/>
<path d="M29 38V52H24C22.897 52 22 51.103 22 50V40C22 38.897 22.897 38 24 38H29ZM30 37H24C22.343 37 21 38.343 21 40V50C21 51.657 22.343 53 24 53H30V37Z" fill="#4788C7"/>
<path d="M30 52.9361V37.2316L42 27V63L30 52.9361Z" fill="#DFF0FE"/>
<path d="M41 28.161V61.862L30 52.675V37.501L41 28.161ZM42 26L29 37.038V53.143L42 64V26Z" fill="#4788C7"/>
<path d="M47 61C53.9577 58.8412 59 52.4962 59 45C59 37.5038 53.9577 31.1588 47 29" stroke="#4788C7" stroke-width="2" stroke-miterlimit="10" stroke-linecap="round"/>
<path d="M46 56C50.663 54.366 54 50.0642 54 45C54 39.9358 50.663 35.634 46 34" stroke="#4788C7" stroke-width="2" stroke-miterlimit="10" stroke-linecap="round"/>
<path d="M44 51C46.8988 50.1901 49 47.8106 49 45C49 42.1894 46.8988 39.8099 44 39" stroke="#4788C7" stroke-width="2" stroke-miterlimit="10" stroke-linecap="round"/>
</svg>
