<svg xmlns="http://www.w3.org/2000/svg"  viewBox="0 0 80 80" width="80px" height="80px"><path fill="#f78f8f" d="M24.74 16.334L31.61 14.616 33.461 25.718 30.238 27.329z"/><path fill="#c74343" d="M31.206,15.233l1.701,10.203l-2.445,1.222l-4.995-9.991L31.206,15.233 M32.015,14l-8,2l6,12l4-2 L32.015,14L32.015,14z"/><path fill="#f78f8f" d="M14.631 31.596L16.349 24.726 27.344 30.224 25.732 33.446z"/><path fill="#c74343" d="M16.683,25.452l9.991,4.995l-1.223,2.445l-10.203-1.701L16.683,25.452 M16.015,24l-2,8l12,2l2-4 L16.015,24L16.015,24z"/><path fill="#currentColor" filter="brightness(300%)" d="M17.125,77.5c-3.92,0-7.593-1.515-10.344-4.266S2.515,66.81,2.515,62.89s1.516-7.593,4.267-10.344 l9.779-9.78c2.752-2.751,6.425-4.266,10.344-4.266c2.352,0,4.681,0.575,6.776,1.669l-5.438,5.438 c-0.427-0.071-0.855-0.107-1.278-0.107c-2.05,0-3.965,0.787-5.394,2.216l-9.78,9.78c-1.429,1.428-2.216,3.344-2.216,5.394 c0,2.05,0.787,3.965,2.216,5.394c1.43,1.429,3.345,2.216,5.394,2.216c2.05,0,3.965-0.787,5.395-2.216l9.779-9.78 c1.43-1.429,2.217-3.345,2.217-5.394c0-0.464-0.051-0.947-0.156-1.467l5.387-5.386c3.002,5.664,1.992,12.648-2.557,17.197 l-9.779,9.78C24.718,75.985,21.045,77.5,17.125,77.5z"/><path fill="currentColor" d="M26.905,39c2.043,0,4.068,0.45,5.928,1.309l-4.766,4.766C27.698,45.025,27.328,45,26.964,45 c-2.183,0-4.224,0.839-5.747,2.362l-9.78,9.78c-1.523,1.523-2.362,3.565-2.362,5.748c0,2.183,0.839,4.224,2.362,5.748 C12.96,70.161,15.001,71,17.184,71c2.183,0,4.224-0.839,5.748-2.362l9.78-9.78c1.523-1.523,2.362-3.565,2.362-5.748 c0-0.416-0.038-0.845-0.116-1.299l4.71-4.71c2.518,5.355,1.458,11.769-2.773,15.999l-9.78,9.78C24.458,75.537,20.91,77,17.125,77 c-3.786,0-7.333-1.463-9.99-4.12c-2.657-2.657-4.12-6.205-4.12-9.99c0-3.786,1.463-7.334,4.12-9.99l9.78-9.78 C19.571,40.463,23.119,39,26.905,39 M26.905,38c-3.878,0-7.756,1.471-10.697,4.413l-9.78,9.78c-5.884,5.883-5.884,15.511,0,21.395 C9.369,76.529,13.247,78,17.125,78c3.878,0,7.756-1.471,10.698-4.413l9.78-9.78c4.961-4.961,5.722-12.576,2.317-18.372 l-6.047,6.047c0.121,0.528,0.202,1.07,0.202,1.628c0,1.916-0.735,3.706-2.07,5.041l-9.78,9.78C20.89,69.265,19.1,70,17.184,70 c-1.916,0-3.706-0.735-5.041-2.07c-1.334-1.335-2.069-3.125-2.069-5.04c0-1.916,0.735-3.706,2.07-5.041l9.78-9.78 C23.258,46.735,25.048,46,26.964,46c0.493,0,0.975,0.052,1.446,0.147l6.095-6.095C32.164,38.695,29.538,38,26.905,38L26.905,38z"/><g><path fill="#currentColor" filter="brightness(300%)" d="M53.049,41.5c-2.345,0-4.67-0.57-6.764-1.653l5.502-5.503c0.448,0.078,0.891,0.117,1.32,0.117 c2.06,0,3.983-0.791,5.419-2.226l9.766-9.631c1.438-1.439,2.229-3.363,2.229-5.421s-0.791-3.982-2.227-5.418 c-1.435-1.436-3.359-2.226-5.418-2.226c-2.06,0-3.984,0.791-5.419,2.226l-9.766,9.631c-1.438,1.438-2.228,3.362-2.228,5.421 c0,0.459,0.049,0.932,0.147,1.439l-5.5,5.5c-3.053-5.703-2.049-12.745,2.542-17.335l9.766-9.631 c2.767-2.768,6.458-4.29,10.397-4.29s7.631,1.522,10.396,4.288c2.765,2.765,4.287,6.457,4.287,10.396 c0,3.938-1.522,7.63-4.287,10.396l-9.766,9.631C60.68,39.977,56.988,41.5,53.049,41.5z"/><path fill="currentColor" d="M62.817,3c3.805,0,7.372,1.471,10.042,4.141C75.529,9.812,77,13.378,77,17.183 c0,3.805-1.471,7.372-4.136,10.037l-9.773,9.639C60.421,39.529,56.854,41,53.049,41c-2.036,0-4.057-0.445-5.914-1.295l4.827-4.827 c0.388,0.056,0.772,0.084,1.147,0.084c2.192,0,4.242-0.843,5.767-2.368l9.773-9.639c1.53-1.53,2.372-3.58,2.372-5.772 c0-2.192-0.843-4.242-2.372-5.772c-1.53-1.53-3.58-2.372-5.772-2.372c-2.192,0-4.242,0.842-5.767,2.367l-9.773,9.639 c-1.53,1.53-2.372,3.58-2.372,5.772c0,0.409,0.036,0.829,0.109,1.271l-4.827,4.827c-2.568-5.395-1.512-11.867,2.756-16.134 l9.773-9.639C55.445,4.471,59.011,3,62.817,3 M62.817,2c-3.897,0-7.793,1.478-10.749,4.434L42.3,16.068 c-4.998,4.998-5.754,12.678-2.3,18.507l6.157-6.157c-0.117-0.52-0.192-1.053-0.192-1.602c0-1.925,0.739-3.724,2.08-5.065 l9.768-9.634c1.341-1.341,3.14-2.079,5.065-2.079c1.925,0,3.724,0.738,5.065,2.08c1.341,1.341,2.079,3.14,2.079,5.065 c0,1.925-0.739,3.724-2.08,5.065l-9.768,9.634c-1.341,1.341-3.14,2.079-5.065,2.079c-0.507,0-1.003-0.058-1.487-0.158l-6.162,6.162 C47.799,41.311,50.421,42,53.049,42c3.897,0,7.793-1.478,10.749-4.434l9.768-9.634c5.912-5.912,5.912-15.586,0-21.498 C70.61,3.478,66.713,2,62.817,2L62.817,2z"/></g><g><path fill="#f78f8f" d="M52.656 49.747L54.268 46.524 65.369 48.375 63.651 55.245z"/><path fill="#c74343" d="M54.549,47.078l10.203,1.701l-1.435,5.74l-9.991-4.995L54.549,47.078 M53.985,45.97l-2,4l12,6l2-8 L53.985,45.97L53.985,45.97z"/></g><g><path fill="#f78f8f" d="M46.539 54.253L49.762 52.642 55.26 63.637 48.39 65.354z"/><path fill="#c74343" d="M49.538,53.312l4.995,9.991l-5.74,1.435l-1.701-10.203L49.538,53.312 M49.985,51.97l-4,2l2,12l8-2 L49.985,51.97L49.985,51.97z"/></g></svg>