<svg fill="#168cd0" xmlns="http://www.w3.org/2000/svg"  viewBox="0 0 100 100" width="100px" height="100px"><path d="M 84.058594 7.9902344 C 82.880752 7.9818467 81.927426 8.3889806 81.357422 8.9589844 L 81.115234 9.1777344 L 79.710938 10.582031 A 0.50005 0.50005 0 0 0 79.585938 10.707031 L 77.710938 12.582031 A 0.50005 0.50005 0 0 0 77.585938 12.707031 L 75.710938 14.582031 A 0.50005 0.50005 0 0 0 75.585938 14.707031 L 49.591797 40.701172 C 49.25053 41.042439 48.982706 41.450317 48.806641 41.900391 C 48.325084 43.134035 47.160568 46.117792 46.111328 48.806641 C 45.586708 50.151065 45.09199 51.422362 44.724609 52.363281 C 44.540919 52.833741 44.388204 53.220551 44.28125 53.494141 C 44.174296 53.76773 44.087748 53.988671 44.111328 53.931641 L 44.109375 53.933594 L 44.109375 53.935547 C 43.890129 54.477654 44.003093 55.122672 44.439453 55.558594 C 44.875644 55.994785 45.520155 56.108013 46.0625 55.888672 L 46.0625 55.890625 C 46.02904 55.904005 46.69562 55.642646 47.636719 55.275391 C 48.577817 54.908135 49.848863 54.41128 51.193359 53.886719 C 53.882353 52.837596 56.865965 51.674916 58.099609 51.193359 C 58.5511 51.017196 58.957964 50.749068 59.298828 50.408203 L 85.287109 24.421875 A 0.50005 0.50005 0 0 0 85.425781 24.279297 L 87.279297 22.425781 A 0.50005 0.50005 0 0 0 87.425781 22.279297 L 89.28125 20.425781 A 0.50005 0.50005 0 0 0 89.425781 20.279297 L 90.822266 18.884766 L 91.041016 18.642578 C 92.343928 17.339571 92.79498 14.037167 89.378906 10.621094 C 87.67087 8.9130567 85.992081 8.1708805 84.576172 8.0195312 C 84.399183 8.0006127 84.226857 7.9914326 84.058594 7.9902344 z M 83.652344 9.0292969 C 83.902582 9.0045017 84.173946 9.0025873 84.464844 9.03125 C 85.628434 9.1459009 87.092912 9.7491617 88.671875 11.328125 C 91.829802 14.486052 91.085119 17.184413 90.333984 17.935547 L 90.326172 17.945312 L 90.097656 18.195312 L 89 19.292969 L 87.853516 18.146484 A 0.50005 0.50005 0 0 0 87.494141 17.994141 A 0.50005 0.50005 0 0 0 87.146484 18.853516 L 88.292969 20 L 87 21.292969 L 78.707031 13 L 80 11.707031 L 85.146484 16.853516 A 0.50005 0.50005 0 1 0 85.853516 16.146484 L 80.707031 11 L 81.804688 9.9023438 L 82.054688 9.6738281 L 82.064453 9.6660156 C 82.346093 9.3842769 82.90163 9.1036823 83.652344 9.0292969 z M 78 13.707031 L 86.292969 22 L 85 23.292969 L 82.404297 20.697266 A 0.50005 0.50005 0 0 0 82.300781 20.59375 L 79.404297 17.697266 A 0.50005 0.50005 0 0 0 79.300781 17.59375 L 76.707031 15 L 78 13.707031 z M 76 15.707031 L 78.292969 18 L 58.146484 38.146484 A 0.50005 0.50005 0 1 0 58.853516 38.853516 L 79 18.707031 L 81.292969 21 L 78.146484 24.146484 A 0.50005 0.50005 0 1 0 78.853516 24.853516 L 82 21.707031 L 84.292969 24 L 58.591797 49.701172 C 58.560646 49.732322 58.522747 49.753864 58.490234 49.783203 L 56.207031 47.5 L 76.853516 26.853516 A 0.50005 0.50005 0 0 0 76.490234 25.996094 A 0.50005 0.50005 0 0 0 76.146484 26.146484 L 55.5 46.792969 L 50.216797 41.509766 C 50.246106 41.477265 50.267729 41.439302 50.298828 41.408203 L 76 15.707031 z M 30 18 C 23.384534 18 18 23.384534 18 30 L 18 70 C 18 76.615466 23.384534 82 30 82 L 70 82 C 76.615466 82 82 76.615466 82 70 L 82 35 A 1.0001 1.0001 0 1 0 80 35 L 80 70 C 80 75.534534 75.534534 80 70 80 L 30 80 C 24.465466 80 20 75.534534 20 70 L 20 30 C 20 24.465466 24.465466 20 30 20 L 65 20 A 1.0001 1.0001 0 1 0 65 18 L 30 18 z M 33.5 23 C 27.706797 23 23 27.706797 23 33.5 L 23 66.5 C 23 72.293203 27.706797 77 33.5 77 L 66.5 77 C 72.293203 77 77 72.293203 77 66.5 L 77 49.5 A 0.50005 0.50005 0 1 0 76 49.5 L 76 66.5 C 76 71.752797 71.752797 76 66.5 76 L 33.5 76 C 28.247203 76 24 71.752797 24 66.5 L 24 33.5 C 24 28.247203 28.247203 24 33.5 24 L 61.5 24 A 0.50005 0.50005 0 1 0 61.5 23 L 33.5 23 z M 76.492188 37.992188 A 0.50005 0.50005 0 0 0 76 38.5 L 76 41.5 A 0.50005 0.50005 0 1 0 77 41.5 L 77 38.5 A 0.50005 0.50005 0 0 0 76.492188 37.992188 z M 56.490234 39.996094 A 0.50005 0.50005 0 0 0 56.146484 40.146484 L 54.146484 42.146484 A 0.50005 0.50005 0 1 0 54.853516 42.853516 L 56.853516 40.853516 A 0.50005 0.50005 0 0 0 56.490234 39.996094 z M 49.6875 42.394531 L 55.076172 47.783203 A 0.50005 0.50005 0 0 0 55.078125 47.787109 A 0.50005 0.50005 0 0 0 55.214844 47.921875 A 0.50005 0.50005 0 0 0 55.220703 47.925781 L 57.605469 50.3125 C 56.331151 50.809931 53.468172 51.927768 50.830078 52.957031 C 50.512759 53.080835 50.295994 53.163994 49.990234 53.283203 L 49.978516 53.271484 L 46.728516 50.021484 L 46.716797 50.009766 C 46.835998 49.704002 46.91915 49.487229 47.042969 49.169922 C 48.072362 46.531932 49.190073 43.668853 49.6875 42.394531 z M 76.492188 42.992188 A 0.50005 0.50005 0 0 0 76 43.5 L 76 47.5 A 0.50005 0.50005 0 1 0 77 47.5 L 77 43.5 A 0.50005 0.50005 0 0 0 76.492188 42.992188 z M 46.318359 51.025391 L 48.974609 53.681641 C 48.401734 53.904922 47.723493 54.16812 47.273438 54.34375 C 46.332285 54.711026 45.775416 54.926551 45.689453 54.960938 L 45.689453 54.962891 C 45.509798 55.035551 45.296293 55.001371 45.146484 54.851562 C 44.997915 54.703502 44.964571 54.489905 45.037109 54.310547 C 45.071189 54.227977 45.106789 54.130782 45.212891 53.859375 C 45.319944 53.585531 45.472534 53.197088 45.65625 52.726562 C 45.831955 52.276556 46.095103 51.598284 46.318359 51.025391 z"/></svg>