<svg width="20" height="20" viewBox="0 0 20 20" fill="none" xmlns="http://www.w3.org/2000/svg">
<path d="M3.45312 3.19218C2.65193 3.19218 2 3.85512 2 4.66992L2.01875 15.6C2.01875 16.2998 2.10787 16.9474 2.72656 16.9953C2.73463 16.9963 2.74167 17 2.75 17H16.9836C17.4338 17 17.8 16.6338 17.8 16.1836V7.4C17.8 7.2896 17.7106 7.2 17.6 7.2H16.8004V6.08437C16.8004 5.70277 16.4894 5.39218 16.1078 5.39218H10.6926C10.5314 5.39218 10.4004 5.2612 10.4004 5.1V4.63906C10.4004 3.84126 9.74847 3.19218 8.94727 3.19218H3.45312ZM3.45312 3.59218H8.94688C9.52768 3.59218 10 4.06186 10 4.63906V5.1C10 5.4816 10.3106 5.79218 10.6922 5.79218H16.1078C16.269 5.79218 16.4004 5.92317 16.4004 6.08437V7.2H3.2C3.0894 7.2 3 7.2896 3 7.4V14.95L3.00078 15.2078C3.00298 15.7966 3.00587 16.4054 2.84727 16.5648C2.83022 16.5819 2.80534 16.5965 2.75781 16.5984C2.60891 16.5914 2.41875 16.5123 2.41875 15.5996L2.4 5.96484V4.66992C2.4 4.07572 2.87252 3.59218 3.45312 3.59218ZM4.06992 4.19218C3.47992 4.19218 3 4.68977 3 5.30117V6.29218C3 6.34738 3.0448 6.39218 3.1 6.39218C3.1552 6.39218 3.2 6.34738 3.2 6.29218V5.30117C3.2 4.80017 3.59032 4.39218 4.06992 4.39218H7.7C7.7552 4.39218 7.8 4.34738 7.8 4.29218C7.8 4.23698 7.7552 4.19218 7.7 4.19218H4.06992ZM8.33867 4.20039C8.28347 4.20039 8.23867 4.24519 8.23867 4.30039C8.23867 4.35559 8.28347 4.40039 8.33867 4.40039C8.81827 4.40039 9.20859 4.80817 9.20859 5.30937C9.20859 5.36457 9.25339 5.40937 9.30859 5.40937C9.36379 5.40937 9.40859 5.36457 9.40859 5.30937C9.40859 4.69777 8.92847 4.20039 8.33867 4.20039ZM3.4 7.6H17.4V16.1836C17.4 16.4132 17.2132 16.6 16.9836 16.6H3.28398C3.40518 16.2852 3.40338 15.8094 3.40078 15.2062L3.4 7.6ZM5.1 8.4C5.0448 8.4 5 8.4448 5 8.5V10.5C5 10.5552 5.0448 10.6 5.1 10.6H9.9C9.9552 10.6 10 10.5552 10 10.5V8.5C10 8.4448 9.9552 8.4 9.9 8.4H5.1ZM5.2 8.6H9.8V10.4H5.2V8.6Z" fill="white"/>
</svg>
