<svg width="80" height="80" viewBox="0 0 80 80" fill="none" xmlns="http://www.w3.org/2000/svg">
<path d="M13.75 65V15C13.75 9.89137 17.8914 5.75 23 5.75H45.4439C47.8971 5.75 50.2499 6.72455 51.9846 8.45926L63.5407 20.0154C65.2755 21.7501 66.25 24.1029 66.25 26.5561V65C66.25 70.1086 62.1086 74.25 57 74.25H23C17.8914 74.25 13.75 70.1086 13.75 65Z" fill="white" stroke="#168CD0" stroke-width="1.5"/>
<path d="M49.75 20.25V7.24284L63.6243 20.25H49.75Z" fill="#DFF0FE" stroke="#4788C7" stroke-width="1.5"/>
<path d="M30.2969 44.9297C31.8385 44.9297 32.9974 44.1667 33.7734 42.6406L34.9922 43.25C34.5391 44.1979 33.901 44.9193 33.0781 45.4141C32.2604 45.9089 31.3099 46.1562 30.2266 46.1562C29.112 46.1562 28.1536 45.9245 27.3516 45.4609C26.5495 44.9974 25.9323 44.3385 25.5 43.4844C25.0729 42.625 24.8594 41.612 24.8594 40.4453C24.8594 39.2734 25.0729 38.2682 25.5 37.4297C25.9271 36.5911 26.5417 35.9479 27.3438 35.5C28.1458 35.0521 29.1042 34.8281 30.2188 34.8281C31.3906 34.8281 32.3698 35.0573 33.1562 35.5156C33.9427 35.974 34.5208 36.6536 34.8906 37.5547L33.4766 38.0234C33.2214 37.3828 32.8099 36.8932 32.2422 36.5547C31.6797 36.2161 31.0104 36.0469 30.2344 36.0469C29.0156 36.0469 28.0677 36.4401 27.3906 37.2266C26.7135 38.0078 26.375 39.0807 26.375 40.4453C26.375 41.3411 26.5339 42.1276 26.8516 42.8047C27.1745 43.4766 27.6276 44 28.2109 44.375C28.7995 44.7448 29.4948 44.9297 30.2969 44.9297ZM45.5469 42.9609C45.5469 43.9766 45.1484 44.763 44.3516 45.3203C43.5599 45.8776 42.4427 46.1562 41 46.1562C38.3177 46.1562 36.763 45.224 36.3359 43.3594L37.7812 43.0703C37.9479 43.7318 38.3021 44.2188 38.8438 44.5312C39.3854 44.8385 40.1224 44.9922 41.0547 44.9922C42.0182 44.9922 42.7604 44.8281 43.2812 44.5C43.8073 44.1667 44.0703 43.6797 44.0703 43.0391C44.0703 42.6797 43.987 42.388 43.8203 42.1641C43.6589 41.9401 43.4297 41.7552 43.1328 41.6094C42.8359 41.4635 42.4818 41.3411 42.0703 41.2422C41.6589 41.1432 41.2031 41.0365 40.7031 40.9219C40.125 40.7917 39.6406 40.6641 39.25 40.5391C38.8646 40.4141 38.5469 40.2839 38.2969 40.1484C38.0469 40.0078 37.8333 39.8594 37.6562 39.7031C37.3958 39.4635 37.1953 39.1849 37.0547 38.8672C36.9193 38.5495 36.8516 38.1849 36.8516 37.7734C36.8516 36.8307 37.2109 36.1042 37.9297 35.5938C38.6536 35.0833 39.6875 34.8281 41.0312 34.8281C42.2812 34.8281 43.237 35.0208 43.8984 35.4062C44.5599 35.7865 45.0234 36.4375 45.2891 37.3594L43.8203 37.6172C43.6589 37.0339 43.3516 36.612 42.8984 36.3516C42.4453 36.0859 41.8177 35.9531 41.0156 35.9531C40.1354 35.9531 39.4635 36.099 39 36.3906C38.5365 36.6823 38.3047 37.1172 38.3047 37.6953C38.3047 38.0339 38.3932 38.3151 38.5703 38.5391C38.7526 38.7578 39.013 38.9427 39.3516 39.0938C39.6693 39.2448 40.3438 39.4349 41.375 39.6641C41.7969 39.763 42.2135 39.8672 42.625 39.9766C43.0365 40.0807 43.4245 40.2135 43.7891 40.375C44.0026 40.4635 44.2057 40.5729 44.3984 40.7031C44.5964 40.8281 44.7682 40.974 44.9141 41.1406C45.112 41.3594 45.2656 41.6172 45.375 41.9141C45.4896 42.2109 45.5469 42.5599 45.5469 42.9609ZM56.2188 42.9609C56.2188 43.9766 55.8203 44.763 55.0234 45.3203C54.2318 45.8776 53.1146 46.1562 51.6719 46.1562C48.9896 46.1562 47.4349 45.224 47.0078 43.3594L48.4531 43.0703C48.6198 43.7318 48.974 44.2188 49.5156 44.5312C50.0573 44.8385 50.7943 44.9922 51.7266 44.9922C52.6901 44.9922 53.4323 44.8281 53.9531 44.5C54.4792 44.1667 54.7422 43.6797 54.7422 43.0391C54.7422 42.6797 54.6589 42.388 54.4922 42.1641C54.3307 41.9401 54.1016 41.7552 53.8047 41.6094C53.5078 41.4635 53.1536 41.3411 52.7422 41.2422C52.3307 41.1432 51.875 41.0365 51.375 40.9219C50.7969 40.7917 50.3125 40.6641 49.9219 40.5391C49.5365 40.4141 49.2188 40.2839 48.9688 40.1484C48.7188 40.0078 48.5052 39.8594 48.3281 39.7031C48.0677 39.4635 47.8672 39.1849 47.7266 38.8672C47.5911 38.5495 47.5234 38.1849 47.5234 37.7734C47.5234 36.8307 47.8828 36.1042 48.6016 35.5938C49.3255 35.0833 50.3594 34.8281 51.7031 34.8281C52.9531 34.8281 53.9089 35.0208 54.5703 35.4062C55.2318 35.7865 55.6953 36.4375 55.9609 37.3594L54.4922 37.6172C54.3307 37.0339 54.0234 36.612 53.5703 36.3516C53.1172 36.0859 52.4896 35.9531 51.6875 35.9531C50.8073 35.9531 50.1354 36.099 49.6719 36.3906C49.2083 36.6823 48.9766 37.1172 48.9766 37.6953C48.9766 38.0339 49.0651 38.3151 49.2422 38.5391C49.4245 38.7578 49.6849 38.9427 50.0234 39.0938C50.3411 39.2448 51.0156 39.4349 52.0469 39.6641C52.4688 39.763 52.8854 39.8672 53.2969 39.9766C53.7083 40.0807 54.0964 40.2135 54.4609 40.375C54.6745 40.4635 54.8776 40.5729 55.0703 40.7031C55.2682 40.8281 55.4401 40.974 55.5859 41.1406C55.7839 41.3594 55.9375 41.6172 56.0469 41.9141C56.1615 42.2109 56.2188 42.5599 56.2188 42.9609Z" fill="#168CD0"/>
</svg>
