<svg width="100" height="100" viewBox="0 0 100 100" fill="none" xmlns="http://www.w3.org/2000/svg">
<mask id="path-1-inside-1_306_6" fill="white">
<path d="M34.1797 10.1641C32.1037 10.1641 30.6152 11.4263 30.6152 13.6973L30.6484 25.8066C30.6484 28.8466 32.7702 30.7129 35.6152 30.7129C38.4602 30.7129 40.6152 29.0029 40.6152 25.9629V14.3066H39.6133L39.5234 25.8691C39.5234 28.0791 37.5994 29.8086 35.6484 29.8086C33.6974 29.8086 31.6152 28.0498 31.6152 25.8398L31.6445 13.6113C31.6445 12.3043 33.0775 11.127 34.2715 11.127C35.4655 11.127 36.6152 12.275 36.6152 13.582V24.0566C36.6152 24.0566 36.1398 25.0566 35.6328 25.0566C35.1258 25.0566 34.4862 24.7004 34.6152 24.1504V14.3086H33.6152L33.582 23.9648C33.582 25.3448 34.3223 25.9648 35.6562 25.9648C36.9902 25.9648 37.6152 25.2491 37.6152 23.8691V13.6641C37.6152 11.3931 36.2557 10.1641 34.1797 10.1641ZM41.6133 11.3066C41.0613 11.3066 40.6133 11.7546 40.6133 12.3066C40.6133 12.8586 41.0613 13.3066 41.6133 13.3066H59.6133V23.793C59.6133 29.04 63.8819 33.3066 69.1289 33.3066H79.6133V82.5742C79.6133 86.8372 76.1468 90.3066 71.8828 90.3066H28.3477C24.0847 90.3066 20.6152 86.8382 20.6152 82.5742V21.0391C20.6152 16.7761 24.0837 13.3086 28.3477 13.3086H29.6152C30.1672 13.3086 30.6152 12.8606 30.6152 12.3086C30.6152 11.7566 30.1672 11.3086 29.6152 11.3086H28.3477C22.9817 11.3086 18.6152 15.6721 18.6152 21.0391V82.5742C18.6152 87.9402 22.9807 92.3066 28.3477 92.3066H71.8828C77.2488 92.3066 81.6133 87.9402 81.6133 82.5742V32.5547C81.6133 32.2897 81.5083 32.0357 81.3203 31.8477L61.0723 11.5996C60.8853 11.4116 60.6302 11.3066 60.3652 11.3066H41.6133ZM60.6133 13.9668L78.9512 32.3066H69.1289C64.4339 32.3066 60.6133 28.488 60.6133 23.793V13.9668ZM28.3711 19.5059C28.2452 19.4817 28.1101 19.506 27.9961 19.584C25.8781 21.024 24.6133 23.4061 24.6133 25.9551V78.6172C24.6133 82.8562 28.0485 86.3066 32.2715 86.3066H67.9551C72.1781 86.3066 75.6132 82.8562 75.6152 78.6172V60.8066C75.6152 60.5306 75.3912 60.3066 75.1152 60.3066C74.8392 60.3066 74.6152 60.5306 74.6152 60.8066V78.6172C74.6152 82.3052 71.628 85.3066 67.957 85.3066H32.2734C28.6024 85.3066 25.6152 82.3052 25.6152 78.6172V25.9551C25.6152 23.7371 26.7146 21.6642 28.5586 20.4102C28.7866 20.2552 28.8464 19.9458 28.6914 19.7168C28.6139 19.6033 28.497 19.53 28.3711 19.5059ZM75.1133 47.3066C74.8373 47.3066 74.6133 47.5306 74.6133 47.8066V50.8066C74.6133 51.0826 74.8373 51.3066 75.1133 51.3066C75.3903 51.3066 75.6133 51.0826 75.6133 50.8066V47.8066C75.6133 47.5306 75.3893 47.3066 75.1133 47.3066ZM30.1133 51.3066C29.8373 51.3066 29.6133 51.5306 29.6133 51.8066C29.6133 52.0826 29.8373 52.3066 30.1133 52.3066H53.1133C53.3903 52.3066 53.6133 52.0826 53.6133 51.8066C53.6133 51.5306 53.3893 51.3066 53.1133 51.3066H30.1133ZM75.1133 52.3066C74.8373 52.3066 74.6133 52.5306 74.6133 52.8066V58.8066C74.6133 59.0826 74.8373 59.3066 75.1133 59.3066C75.3903 59.3066 75.6133 59.0826 75.6133 58.8066V52.8066C75.6133 52.5306 75.3893 52.3066 75.1133 52.3066ZM30.1133 58.3066C29.8373 58.3066 29.6133 58.5306 29.6133 58.8066C29.6133 59.0826 29.8373 59.3066 30.1133 59.3066H44.1133C44.3903 59.3066 44.6133 59.0826 44.6133 58.8066C44.6133 58.5306 44.3893 58.3066 44.1133 58.3066H30.1133ZM46.1133 58.3066C45.8373 58.3066 45.6133 58.5306 45.6133 58.8066C45.6133 59.0826 45.8373 59.3066 46.1133 59.3066H70.1133C70.3903 59.3066 70.6133 59.0826 70.6133 58.8066C70.6133 58.5306 70.3893 58.3066 70.1133 58.3066H46.1133ZM30.1133 65.3066C29.8373 65.3066 29.6133 65.5306 29.6133 65.8066C29.6133 66.0826 29.8373 66.3066 30.1133 66.3066H48.1133C48.3903 66.3066 48.6133 66.0826 48.6133 65.8066C48.6133 65.5306 48.3893 65.3066 48.1133 65.3066H30.1133ZM50.1133 65.3066C49.8373 65.3066 49.6133 65.5306 49.6133 65.8066C49.6133 66.0826 49.8373 66.3066 50.1133 66.3066H61.1133C61.3903 66.3066 61.6133 66.0826 61.6133 65.8066C61.6133 65.5306 61.3893 65.3066 61.1133 65.3066H50.1133ZM63.1133 65.3066C62.8373 65.3066 62.6133 65.5306 62.6133 65.8066C62.6133 66.0826 62.8373 66.3066 63.1133 66.3066H71.1133C71.3903 66.3066 71.6133 66.0826 71.6133 65.8066C71.6133 65.5306 71.3893 65.3066 71.1133 65.3066H63.1133ZM30.1133 72.3066C29.8373 72.3066 29.6133 72.5306 29.6133 72.8066C29.6133 73.0826 29.8373 73.3066 30.1133 73.3066H54.1133C54.3903 73.3066 54.6133 73.0826 54.6133 72.8066C54.6133 72.5306 54.3893 72.3066 54.1133 72.3066H30.1133ZM57.1133 72.3066C56.8373 72.3066 56.6133 72.5306 56.6133 72.8066C56.6133 73.0826 56.8373 73.3066 57.1133 73.3066H70.1133C70.3903 73.3066 70.6133 73.0826 70.6133 72.8066C70.6133 72.5306 70.3893 72.3066 70.1133 72.3066H57.1133Z"/>
</mask>
<path d="M34.1797 10.1641C32.1037 10.1641 30.6152 11.4263 30.6152 13.6973L30.6484 25.8066C30.6484 28.8466 32.7702 30.7129 35.6152 30.7129C38.4602 30.7129 40.6152 29.0029 40.6152 25.9629V14.3066H39.6133L39.5234 25.8691C39.5234 28.0791 37.5994 29.8086 35.6484 29.8086C33.6974 29.8086 31.6152 28.0498 31.6152 25.8398L31.6445 13.6113C31.6445 12.3043 33.0775 11.127 34.2715 11.127C35.4655 11.127 36.6152 12.275 36.6152 13.582V24.0566C36.6152 24.0566 36.1398 25.0566 35.6328 25.0566C35.1258 25.0566 34.4862 24.7004 34.6152 24.1504V14.3086H33.6152L33.582 23.9648C33.582 25.3448 34.3223 25.9648 35.6562 25.9648C36.9902 25.9648 37.6152 25.2491 37.6152 23.8691V13.6641C37.6152 11.3931 36.2557 10.1641 34.1797 10.1641ZM41.6133 11.3066C41.0613 11.3066 40.6133 11.7546 40.6133 12.3066C40.6133 12.8586 41.0613 13.3066 41.6133 13.3066H59.6133V23.793C59.6133 29.04 63.8819 33.3066 69.1289 33.3066H79.6133V82.5742C79.6133 86.8372 76.1468 90.3066 71.8828 90.3066H28.3477C24.0847 90.3066 20.6152 86.8382 20.6152 82.5742V21.0391C20.6152 16.7761 24.0837 13.3086 28.3477 13.3086H29.6152C30.1672 13.3086 30.6152 12.8606 30.6152 12.3086C30.6152 11.7566 30.1672 11.3086 29.6152 11.3086H28.3477C22.9817 11.3086 18.6152 15.6721 18.6152 21.0391V82.5742C18.6152 87.9402 22.9807 92.3066 28.3477 92.3066H71.8828C77.2488 92.3066 81.6133 87.9402 81.6133 82.5742V32.5547C81.6133 32.2897 81.5083 32.0357 81.3203 31.8477L61.0723 11.5996C60.8853 11.4116 60.6302 11.3066 60.3652 11.3066H41.6133ZM60.6133 13.9668L78.9512 32.3066H69.1289C64.4339 32.3066 60.6133 28.488 60.6133 23.793V13.9668ZM28.3711 19.5059C28.2452 19.4817 28.1101 19.506 27.9961 19.584C25.8781 21.024 24.6133 23.4061 24.6133 25.9551V78.6172C24.6133 82.8562 28.0485 86.3066 32.2715 86.3066H67.9551C72.1781 86.3066 75.6132 82.8562 75.6152 78.6172V60.8066C75.6152 60.5306 75.3912 60.3066 75.1152 60.3066C74.8392 60.3066 74.6152 60.5306 74.6152 60.8066V78.6172C74.6152 82.3052 71.628 85.3066 67.957 85.3066H32.2734C28.6024 85.3066 25.6152 82.3052 25.6152 78.6172V25.9551C25.6152 23.7371 26.7146 21.6642 28.5586 20.4102C28.7866 20.2552 28.8464 19.9458 28.6914 19.7168C28.6139 19.6033 28.497 19.53 28.3711 19.5059ZM75.1133 47.3066C74.8373 47.3066 74.6133 47.5306 74.6133 47.8066V50.8066C74.6133 51.0826 74.8373 51.3066 75.1133 51.3066C75.3903 51.3066 75.6133 51.0826 75.6133 50.8066V47.8066C75.6133 47.5306 75.3893 47.3066 75.1133 47.3066ZM30.1133 51.3066C29.8373 51.3066 29.6133 51.5306 29.6133 51.8066C29.6133 52.0826 29.8373 52.3066 30.1133 52.3066H53.1133C53.3903 52.3066 53.6133 52.0826 53.6133 51.8066C53.6133 51.5306 53.3893 51.3066 53.1133 51.3066H30.1133ZM75.1133 52.3066C74.8373 52.3066 74.6133 52.5306 74.6133 52.8066V58.8066C74.6133 59.0826 74.8373 59.3066 75.1133 59.3066C75.3903 59.3066 75.6133 59.0826 75.6133 58.8066V52.8066C75.6133 52.5306 75.3893 52.3066 75.1133 52.3066ZM30.1133 58.3066C29.8373 58.3066 29.6133 58.5306 29.6133 58.8066C29.6133 59.0826 29.8373 59.3066 30.1133 59.3066H44.1133C44.3903 59.3066 44.6133 59.0826 44.6133 58.8066C44.6133 58.5306 44.3893 58.3066 44.1133 58.3066H30.1133ZM46.1133 58.3066C45.8373 58.3066 45.6133 58.5306 45.6133 58.8066C45.6133 59.0826 45.8373 59.3066 46.1133 59.3066H70.1133C70.3903 59.3066 70.6133 59.0826 70.6133 58.8066C70.6133 58.5306 70.3893 58.3066 70.1133 58.3066H46.1133ZM30.1133 65.3066C29.8373 65.3066 29.6133 65.5306 29.6133 65.8066C29.6133 66.0826 29.8373 66.3066 30.1133 66.3066H48.1133C48.3903 66.3066 48.6133 66.0826 48.6133 65.8066C48.6133 65.5306 48.3893 65.3066 48.1133 65.3066H30.1133ZM50.1133 65.3066C49.8373 65.3066 49.6133 65.5306 49.6133 65.8066C49.6133 66.0826 49.8373 66.3066 50.1133 66.3066H61.1133C61.3903 66.3066 61.6133 66.0826 61.6133 65.8066C61.6133 65.5306 61.3893 65.3066 61.1133 65.3066H50.1133ZM63.1133 65.3066C62.8373 65.3066 62.6133 65.5306 62.6133 65.8066C62.6133 66.0826 62.8373 66.3066 63.1133 66.3066H71.1133C71.3903 66.3066 71.6133 66.0826 71.6133 65.8066C71.6133 65.5306 71.3893 65.3066 71.1133 65.3066H63.1133ZM30.1133 72.3066C29.8373 72.3066 29.6133 72.5306 29.6133 72.8066C29.6133 73.0826 29.8373 73.3066 30.1133 73.3066H54.1133C54.3903 73.3066 54.6133 73.0826 54.6133 72.8066C54.6133 72.5306 54.3893 72.3066 54.1133 72.3066H30.1133ZM57.1133 72.3066C56.8373 72.3066 56.6133 72.5306 56.6133 72.8066C56.6133 73.0826 56.8373 73.3066 57.1133 73.3066H70.1133C70.3903 73.3066 70.6133 73.0826 70.6133 72.8066C70.6133 72.5306 70.3893 72.3066 70.1133 72.3066H57.1133Z" stroke="#168CD0" stroke-dasharray="1 1" mask="url(#path-1-inside-1_306_6)"/>
</svg>
