<svg width="100" height="100" viewBox="0 0 100 100" fill="none" xmlns="http://www.w3.org/2000/svg">
<path d="M10.0017 24.3255L10.005 26.2773L10.255 26.2769L10.2584 28.2287L10.0084 28.2291L10.0117 30.1809L10.2617 30.1805L10.2651 32.1323L10.0151 32.1327L10.0184 34.0845L10.2684 34.0841L10.2718 36.0359L10.0218 36.0363L10.0251 37.9881L10.2751 37.9877L10.2785 39.9395L10.0285 39.9399L10.0318 41.8917L10.2818 41.8913L10.2852 43.8431L10.0352 43.8435L10.0385 45.7953L10.2885 45.7949L10.2919 47.7467L10.0419 47.7471L10.0452 49.6989L10.2952 49.6985L10.2985 51.6503L10.0485 51.6507L10.0519 53.6025L10.3019 53.6021L10.3052 55.5539L10.0552 55.5543L10.0586 57.5061L10.3086 57.5057L10.3119 59.4575L10.0619 59.4579L10.0653 61.4097L10.3153 61.4093L10.3186 63.3611L10.0686 63.3615L10.072 65.3133L10.322 65.3129L10.3253 67.2647L10.0753 67.2651L10.0787 69.2169L10.3287 69.2165L10.332 71.1683L10.082 71.1687L10.0854 73.1205L10.3354 73.1201L10.3387 75.0719L10.0887 75.0723L10.0921 77.0241L10.3421 77.0237L10.3437 77.9996L10.3438 78C10.3438 78.3648 10.3486 78.7259 10.3608 79.0805L10.111 79.0891C10.1372 79.8486 10.1968 80.581 10.3142 81.2561L10.5605 81.2133C10.693 81.9752 10.8982 82.6473 11.2054 83.1939L10.9874 83.3164C11.3541 83.9689 11.8649 84.4666 12.5726 84.7438L12.6638 84.511C12.9517 84.6238 13.2791 84.6984 13.6521 84.7273L13.6632 84.7282L13.6632 84.7284C13.6873 84.7314 13.708 84.736 13.7233 84.7399L13.6622 84.9823C13.669 84.984 13.6756 84.9859 13.6823 84.9877C13.6948 84.9912 13.7073 84.9948 13.7202 84.9971L13.75 84.8343L13.7652 84.7512C13.7636 84.7509 13.7581 84.75 13.75 84.75H14.7384V85H16.7153V84.75H18.6922V85H20.6691V84.75H22.646V85H24.6229V84.75H26.5998V85H28.5767V84.75H30.5535V85H32.5304V84.75H34.5073V85H36.4842V84.75H38.4611V85H40.438V84.75H42.4149V85H44.3918V84.75H46.3687V85H48.3455V84.75H50.3224V85H52.2993V84.75H54.2762V85H56.2531V84.75H58.23V85H60.2069V84.75H62.1838V85H64.1606V84.75H66.1375V85H68.1144V84.75H70.0913V85H72.0682V84.75H74.0451V85H76.022V84.75H77.9988V85H79.9757V84.75H81.9526V85H83.9295V84.75H84.918C85.174 84.75 85.424 84.7248 85.6657 84.6768L85.7144 84.922C86.2494 84.8158 86.747 84.6048 87.185 84.3112L87.0458 84.1035C87.4636 83.8235 87.8235 83.4636 88.1035 83.0458L88.3112 83.185C88.6048 82.747 88.8158 82.2494 88.922 81.7144L88.6768 81.6657C88.7248 81.424 88.75 81.174 88.75 80.918V79.9198H89V77.9236H88.75V75.9273H89V73.931H88.75V71.9347H89V69.9385H88.75V67.9422H89V65.9459H88.75V63.9497H89V61.9534H88.75V59.9571H89V57.9608H88.75V55.9646H89V53.9683H88.75V51.972H89V49.9758H88.75V47.9795H89V45.9832H88.75V43.9869H89V41.9907H88.75V39.9944H89V37.9981H88.75V37C88.75 36.8978 88.7297 36.801 88.6932 36.7129L88.9242 36.6172C88.8229 36.3728 88.6274 36.1772 88.3828 36.0758L88.2871 36.3068C88.1991 36.2703 88.1023 36.25 88 36.25H87.0005V36H85.0015V36.25H84.002H83.752V36V34.6055H84.002V31.8164H83.752V30.4219C83.752 29.9867 83.6648 29.5719 83.5073 29.1935L83.7381 29.0974C83.3864 28.2526 82.7089 27.5757 81.8636 27.2244L81.7677 27.4552C81.3891 27.2979 80.9742 27.2109 80.5391 27.2109H79.5721V26.9609H77.638V27.2109H75.704V26.9609H73.77V27.2109H71.836V26.9609H69.902V27.2109H67.968V26.9609H66.034V27.2109H64.1V26.9609H62.1659V27.2109H60.2319V26.9609H58.2979V27.2109H56.3639V26.9609H54.4299V27.2109H53.4629C53.2314 27.2109 53.01 27.1647 52.8079 27.0808L52.9038 26.8499C52.547 26.7017 52.2612 26.4159 52.113 26.0591L51.8821 26.155C51.7982 25.9529 51.752 25.7315 51.752 25.5V24.9238H52.002V23.7715H51.752V23.1953C51.752 22.8855 51.7316 22.5804 51.6922 22.2814L51.94 22.2487C51.8558 21.6101 51.6877 20.9974 51.4469 20.4221L51.2163 20.5186C50.9789 19.9511 50.6682 19.4211 50.2961 18.9404L50.4938 18.7873C50.1064 18.2869 49.6548 17.8381 49.1514 17.4535L48.9996 17.6521C48.517 17.2833 47.9852 16.9756 47.4159 16.7404L47.5113 16.5094C46.9352 16.2714 46.3221 16.1052 45.683 16.0221L45.6508 16.27C45.3515 16.231 45.0463 16.2109 44.7363 16.2109H43.7552V15.9609H41.793V16.2109H39.8308V15.9609H37.8687V16.2109H35.9065V15.9609H33.9443V16.2109H31.9821V15.9609H30.0199V16.2109H28.0577V15.9609H26.0955V16.2109H24.1333V15.9609H22.1711V16.2109H20.2089V15.9609H18.2467V16.2109H17.2656C16.9526 16.2109 16.6444 16.2319 16.3423 16.2725L16.309 16.0247C15.6643 16.1113 15.0459 16.2843 14.4656 16.5317L14.5636 16.7617C13.9926 17.0051 13.4594 17.3234 12.9761 17.7046L12.8213 17.5083C12.3199 17.9037 11.8706 18.3643 11.4857 18.8774L11.6857 19.0274C11.3178 19.518 11.0108 20.0583 10.7764 20.6365L10.5447 20.5425C10.3083 21.1258 10.1432 21.7463 10.0607 22.3927L10.3086 22.4244C10.27 22.7272 10.25 23.0359 10.25 23.3494C10.25 23.3495 10.25 23.3495 10.25 23.3496L10.2517 24.3251L10.0017 24.3255ZM15.001 75.0723L15.0029 75.7168L15.2529 75.716L15.2539 76.0381L15.2539 76.0383L15.254 76.0712C15.2551 76.3482 15.2561 76.6264 15.2565 76.9035L15.0065 76.9038C15.0073 77.4918 15.005 78.0746 14.9932 78.6335L15.2432 78.6388C15.2302 79.2545 15.2057 79.8442 15.1608 80.3819L14.9117 80.3611C14.8557 81.0309 14.7679 81.6154 14.6311 82.0649L14.8702 82.1377C14.7636 82.4878 14.6195 82.7936 14.4135 83.0005L14.4131 83.001C14.3744 83.0397 14.3281 83.0785 14.2715 83.1132L14.1407 82.9002C14.0824 82.936 14.0088 82.9648 13.9109 82.9804L13.9503 83.2273C13.9028 83.2349 13.8526 83.2398 13.7993 83.242L13.7883 83.2424L13.7773 83.2419C13.5749 83.2324 13.3343 83.1978 13.0947 83.0608C12.8532 82.9228 12.6359 82.6943 12.4541 82.3361L12.677 82.2229C12.4164 81.7095 12.2113 80.8546 12.1307 79.4312L11.8811 79.4453C11.8568 79.015 11.8438 78.5346 11.8438 77.9983L11.8438 77.9985L12.0938 77.998H11.8438L11.8418 76.9949L12.0918 76.9944L12.0879 74.9872L11.8379 74.9877L11.834 72.9804L12.084 72.9799L12.0801 70.9727L11.8301 70.9732L11.8262 68.9659L12.0762 68.9655L12.0723 66.9582L11.8223 66.9587L11.8184 64.9515L12.0684 64.951L12.0645 62.9437L11.8145 62.9442L11.8105 60.937L12.0605 60.9365L12.0566 58.9292L11.8066 58.9297L11.8027 56.9225L12.0527 56.922L12.0488 54.9148L11.7988 54.9152L11.7949 52.908L12.0449 52.9075L12.041 50.9003L11.791 50.9008L11.7871 48.8935L12.0371 48.893L12.0332 46.8858L11.7832 46.8863L11.7793 44.879L12.0293 44.8785L12.0254 42.8713L11.7754 42.8718L11.7715 40.8645L12.0215 40.8641L12.0176 38.8568L11.7676 38.8573L11.7637 36.8501L12.0137 36.8496L12.0098 34.8423L11.7598 34.8428L11.7559 32.8356L12.0059 32.8351L12.002 30.8278L11.752 30.8283L11.75 29.8247L11.75 29.8242L11.75 29.0149H12V27.3962H11.75V25.7776H12V24.1589H11.75V23.3496C11.75 22.9781 11.7854 22.6147 11.8529 22.2627L12.0984 22.3098C12.2329 21.6089 12.5006 20.9563 12.8733 20.3808L12.6634 20.2449C13.0626 19.6286 13.5771 19.0965 14.1755 18.6812L14.3181 18.8866C14.8855 18.4928 15.5316 18.2092 16.2268 18.0663L16.1764 17.8214C16.5288 17.7489 16.8931 17.7109 17.2656 17.7109H18.2467V17.9609H20.2087V17.7109H22.1708V17.9609H24.1328V17.7109H26.0949V17.9609H28.0569V17.7109H30.019V17.9609H31.981V17.7109H33.9431V17.9609H35.9051V17.7109H37.8672V17.9609H39.8292V17.7109H41.7913V17.9609H43.7533V17.7109H44.7344C45.1011 17.7109 45.4598 17.7467 45.8071 17.8151L45.7588 18.0603C46.4476 18.1959 47.0885 18.4653 47.6527 18.8402L47.7911 18.632C48.3925 19.0315 48.9109 19.5454 49.3145 20.1423L49.1074 20.2824C49.4876 20.8446 49.7611 21.4838 49.8988 22.1711L50.1439 22.122C50.2135 22.4694 50.25 22.8283 50.25 23.1953V23.7715H50V24.9238H50.25V25.5C50.25 25.9352 50.337 26.3499 50.4943 26.7282L50.2634 26.8242C50.6148 27.6692 51.2918 28.3462 52.1367 28.6975L52.2327 28.4667C52.611 28.624 53.0258 28.7109 53.4609 28.7109H54.428V28.9609H56.3622V28.7109H58.2963V28.9609H60.2305V28.7109H62.1646V28.9609H64.0988V28.7109H66.0329V28.9609H67.9671V28.7109H69.9012V28.9609H71.8354V28.7109H73.7695V28.9609H75.7037V28.7109H77.6378V28.9609H79.572V28.7109H80.5391C80.7706 28.7109 80.9921 28.7572 81.1943 28.8411L81.0985 29.072C81.4556 29.2202 81.7419 29.5058 81.8905 29.8626L82.1213 29.7664C82.2055 29.9686 82.252 30.1902 82.252 30.4219V31.8164H82.002V34.6055H82.252V36V36.25H82.002H81.0313V36H79.0901V36.25H77.1489V36H75.2076V36.25H73.2664V36H71.3252V36.25H69.3839V36H67.4427V36.25H65.5015V36H63.5602V36.25H61.619V36H59.6778V36.25H57.7365V36H55.7953V36.25H53.8541V36H51.9128V36.25H49.9716V36H48.0304V36.25H46.0891V36H44.1479V36.25H42.2067V36H40.2654V36.25H38.3242V36H36.383V36.25H34.4417V36H32.5005V36.25H30.5593V36H28.618V36.25H26.6768V36H24.7356V36.25H22.7943V36H20.8531V36.25H18.9119V36H16.9706V36.25H16C15.8977 36.25 15.8009 36.2703 15.7129 36.3068L15.6172 36.0758C15.3726 36.1772 15.1772 36.3728 15.0758 36.6172L15.3068 36.7129C15.2703 36.801 15.25 36.8978 15.25 37V38.0486H15V40.1458H15.25V42.2431H15V44.3403H15.25V46.4375H15V48.5347H15.25V50.6319H15V52.7292H15.25V54.8264H15V56.9236H15.25V59.0208H15V61.1181H15.25V63.2153H15V65.3125H15.25V67.4097H15V69.5069H15.25V71.6042H15V73.7014H15.25V74.7496V74.75L15.251 75.0715L15.001 75.0723ZM16.75 37.75L16.75 38L16.7501 38.9508L17.0001 38.9508L17.0003 40.8523L16.7503 40.8524L16.7505 42.7539L17.0005 42.7539L17.0007 44.6555L16.7507 44.6555L16.7509 46.5571L17.0009 46.557L17.0011 48.4586L16.7511 48.4586L16.7513 50.3602L17.0013 50.3602L17.0015 52.2617L16.7515 52.2617L16.7517 54.1633L17.0017 54.1633L17.0019 56.0648L16.7519 56.0649L16.7521 57.9664L17.0021 57.9664L17.0022 59.868L16.7522 59.868L16.7524 61.7696L17.0024 61.7695L17.0026 63.6711L16.7526 63.6711L16.7528 65.5727L17.0028 65.5727L17.003 67.4742L16.753 67.4742L16.7532 69.3758L17.0032 69.3758L17.0034 71.2773L16.7534 71.2774L16.7536 73.1789L17.0036 73.1789L17.0038 75.0805L16.7538 75.0805L16.7539 76.0313L16.7539 76.0323C16.7552 76.3316 16.7564 76.6243 16.7571 76.9105L17.0071 76.9099C17.0084 77.5257 17.0068 78.1118 16.9963 78.6664L16.7463 78.6617C16.7346 79.2846 16.7116 79.8651 16.6693 80.4021L16.9185 80.4217C16.8681 81.0606 16.7904 81.6411 16.6716 82.1595L16.4279 82.1037C16.361 82.3957 16.2812 82.6644 16.1866 82.9102L16.0558 83.25H16.4199H17.4272V83H19.4419V83.25H21.4565V83H23.4712V83.25H25.4858V83H27.5005V83.25H29.5151V83H31.5298V83.25H33.5444V83H35.5591V83.25H37.5737V83H39.5884V83.25H41.603V83H43.6177V83.25H45.6323V83H47.647V83.25H49.6616V83H51.6763V83.25H53.6909V83H55.7056V83.25H57.7202V83H59.7349V83.25H61.7495V83H63.7642V83.25H65.7788V83H67.7935V83.25H69.8081V83H71.8228V83.25H73.8374V83H75.8521V83.25H77.8667V83H79.8813V83.25H81.896V83H83.9106V83.25H84.918C85.2336 83.25 85.5353 83.1869 85.8106 83.0724L85.7146 82.8416C86.223 82.6302 86.6302 82.223 86.8416 81.7146L87.0724 81.8106C87.1869 81.5353 87.25 81.2336 87.25 80.918V79.9426H87V77.9917H87.25V76.0409H87V74.0901H87.25V72.1393H87V70.1885H87.25V68.2377H87V66.2868H87.25V64.336H87V62.3852H87.25V60.4344H87V58.4836H87.25V56.5328H87V54.5819H87.25V52.6311H87V50.6803H87.25V48.7295H87V46.7787H87.25V44.8279H87V42.877H87.25V40.9262H87V38.9754H87.25V38V37.75H87H86.0278V38H84.0833V37.75H82.1389V38H80.1944V37.75H78.25V38H76.3056V37.75H74.3611V38H72.4167V37.75H70.4722V38H68.5278V37.75H66.5833V38H64.6389V37.75H62.6944V38H60.75V37.75H58.8056V38H56.8611V37.75H54.9167V38H52.9722V37.75H51.0278V38H49.0833V37.75H47.1389V38H45.1945V37.75H43.25V38H41.3056V37.75H39.3611V38H37.4167V37.75H35.4722V38H33.5278V37.75H31.5834V38H29.6389V37.75H27.6945V38H25.75V37.75H23.8056V38H21.8611V37.75H19.9167V38H17.9723V37.75H17H16.75ZM19.2876 21.0707C18.5784 21.2193 17.9196 21.5139 17.3418 21.9226L17.4861 22.1267C16.9338 22.5174 16.4583 23.018 16.0896 23.5984L15.8786 23.4643C15.5033 24.055 15.2339 24.7241 15.0988 25.4423L15.3444 25.4885C15.2825 25.8177 15.25 26.1578 15.25 26.5059V27.7446H15V30.2222H15.25V31.4609C15.25 31.4952 15.2568 31.5273 15.2689 31.5565L15.038 31.6523C15.0887 31.7745 15.1865 31.8723 15.3086 31.923L15.4045 31.6921C15.4336 31.7041 15.4657 31.7109 15.5 31.7109C15.5343 31.7109 15.5664 31.7041 15.5955 31.6921L15.6914 31.923C15.8135 31.8723 15.9113 31.7745 15.962 31.6523L15.7311 31.5565C15.7432 31.5273 15.75 31.4952 15.75 31.4609V30.2222H16V27.7446H15.75V26.5059C15.75 26.1935 15.7788 25.8879 15.834 25.5917L16.0797 25.6374C16.189 25.0504 16.4067 24.5033 16.7102 24.0199L16.4985 23.887C16.8284 23.3616 17.2548 22.9069 17.7519 22.551L17.8974 22.7542C18.3679 22.4173 18.9047 22.1744 19.4827 22.0517L19.4308 21.8071C19.7279 21.744 20.0353 21.7109 20.3496 21.7109H21.2571V21.9609H23.0722V21.7109H24.8872V21.9609H26.7022V21.7109H28.5173V21.9609H30.3323V21.7109H32.1474V21.9609H33.9624V21.7109H35.7774V21.9609H37.5925V21.7109H38.5C38.5343 21.7109 38.5664 21.7041 38.5955 21.6921L38.6914 21.923C38.8135 21.8723 38.9113 21.7745 38.962 21.6523L38.7311 21.5565C38.7432 21.5273 38.75 21.4952 38.75 21.4609C38.75 21.4266 38.7432 21.3945 38.7311 21.3654L38.962 21.2696C38.9113 21.1474 38.8135 21.0496 38.6914 20.9989L38.5955 21.2298C38.5664 21.2177 38.5343 21.2109 38.5 21.2109H37.5925V20.9609H35.7774V21.2109H33.9624V20.9609H32.1474V21.2109H30.3323V20.9609H28.5173V21.2109H26.7022V20.9609H24.8872V21.2109H23.0722V20.9609H21.2571V21.2109H20.3496C20.0035 21.2109 19.6655 21.2469 19.3389 21.3154L19.2876 21.0707ZM41.502 21.0399C41.3798 21.0906 41.282 21.1884 41.2313 21.3106L41.4622 21.4064C41.4501 21.4355 41.4434 21.4677 41.4434 21.502C41.4434 21.5362 41.4501 21.5684 41.4622 21.5975L41.2313 21.6933C41.282 21.8155 41.3798 21.9133 41.502 21.964L41.5978 21.7331C41.627 21.7452 41.6591 21.752 41.6934 21.752C42.0077 21.752 42.315 21.785 42.6122 21.8481L42.5603 22.0927C43.1383 22.2153 43.6752 22.4582 44.1457 22.7951L44.2912 22.5918C44.7884 22.9477 45.2148 23.4024 45.5447 23.9279L45.3329 24.0608C45.6364 24.5441 45.8541 25.0913 45.9633 25.6784L46.2091 25.6327C46.2641 25.9289 46.293 26.2345 46.293 26.5469C46.293 26.5812 46.2998 26.6133 46.3118 26.6424L46.0809 26.7382C46.1316 26.8604 46.2294 26.9582 46.3516 27.0089L46.4474 26.778C46.4766 26.7901 46.5087 26.7969 46.543 26.7969C46.5773 26.7969 46.6094 26.7901 46.6385 26.778L46.7343 27.0089C46.8565 26.9582 46.9543 26.8604 47.005 26.7382L46.7741 26.6424C46.7862 26.6133 46.793 26.5812 46.793 26.5469C46.793 26.1988 46.7605 25.8586 46.6985 25.5295L46.9442 25.4833C46.8091 24.765 46.5397 24.096 46.1644 23.5053L45.9534 23.6394C45.5847 23.059 45.1092 22.5584 44.5568 22.1677L44.7012 21.9636C44.1233 21.5549 43.4645 21.2604 42.7554 21.1117L42.7041 21.3564C42.3775 21.2879 42.0395 21.252 41.6934 21.252C41.6591 21.252 41.627 21.2587 41.5978 21.2708L41.502 21.0399ZM25.3086 42.038C25.1865 42.0887 25.0887 42.1865 25.038 42.3086L25.2689 42.4045C25.2568 42.4336 25.25 42.4657 25.25 42.5V43.3333H25V45H25.25V46.6667H25V48.3333H25.25V50H25V51.6667H25.25V52.5C25.25 52.5343 25.2568 52.5664 25.2689 52.5955L25.038 52.6914C25.0887 52.8135 25.1865 52.9113 25.3086 52.962L25.4045 52.7311C25.4336 52.7432 25.4657 52.75 25.5 52.75H26.5V53H28.5V52.75H30.5V53H32.5V52.75H34.5V53H36.5V52.75H38.5V53H40.5V52.75H42.5V53H44.5V52.75H46.5V53H48.5V52.75H49.5C49.5343 52.75 49.5664 52.7432 49.5955 52.7311L49.6914 52.962C49.8135 52.9113 49.9113 52.8135 49.962 52.6914L49.7311 52.5955C49.7432 52.5664 49.75 52.5343 49.75 52.5V51.6667H50V50H49.75V48.3333H50V46.6667H49.75V45H50V43.3333H49.75V42.5C49.75 42.4657 49.7432 42.4336 49.7311 42.4045L49.962 42.3086C49.9113 42.1865 49.8135 42.0887 49.6914 42.038L49.5955 42.2689C49.5664 42.2568 49.5343 42.25 49.5 42.25H48.5V42H46.5V42.25H44.5V42H42.5V42.25H40.5V42H38.5V42.25H36.5V42H34.5V42.25H32.5V42H30.5V42.25H28.5V42H26.5V42.25H25.5C25.4657 42.25 25.4336 42.2568 25.4045 42.2689L25.3086 42.038ZM26 42.75H25.75V43V44.125H26V46.375H25.75V48.625H26V50.875H25.75V52V52.25H26H26.9583V52H28.875V52.25H30.7917V52H32.7083V52.25H34.625V52H36.5417V52.25H38.4583V52H40.375V52.25H42.2917V52H44.2083V52.25H46.125V52H48.0417V52.25H49H49.25V52V50.875H49V48.625H49.25V46.375H49V44.125H49.25V43V42.75H49H48.0417V43H46.125V42.75H44.2083V43H42.2917V42.75H40.375V43H38.4583V42.75H36.5417V43H34.625V42.75H32.7083V43H30.7917V42.75H28.875V43H26.9583V42.75H26Z" stroke="currentColor" stroke-width="0.5" stroke-dasharray="2 2"/>
</svg>
