<?xml version="1.0"?><svg fill="#168cd0" xmlns="http://www.w3.org/2000/svg"  viewBox="0 0 100 100" width="100px" height="100px">    <path d="M 50 13.998047 C 49.79 13.998047 49.580391 14.064219 49.400391 14.199219 L 14.400391 40.199219 C 14.150391 40.389219 14 40.68 14 41 L 14 51 C 14 51.38 14.210781 51.720625 14.550781 51.890625 C 14.890781 52.060625 15.289609 52.030781 15.599609 51.800781 L 18 50.017578 L 18 83 C 18 83.552 18.447 84 19 84 L 81 84 C 81.553 84 82 83.552 82 83 L 82 50.017578 L 84.400391 51.800781 C 84.580391 51.930781 84.79 52 85 52 C 85.15 52 85.309219 51.960625 85.449219 51.890625 C 85.789219 51.720625 86 51.38 86 51 L 86 41 C 86 40.68 85.849609 40.389219 85.599609 40.199219 L 77 33.8125 L 77 22 L 78.5 22 C 78.776 22 79 21.776 79 21.5 L 79 17.5 C 79 17.224 78.776 17 78.5 17 L 68.5 17 C 68.224 17 68 17.224 68 17.5 L 68 21.5 C 68 21.776 68.224 22 68.5 22 L 70 22 L 70 28.607422 L 50.599609 14.199219 C 50.419609 14.064219 50.21 13.998047 50 13.998047 z M 50 16.25 L 70 31.107422 L 70 34 C 70 34.157 70.073219 34.306391 70.199219 34.400391 L 73.199219 36.650391 C 73.419219 36.816391 73.734391 36.772781 73.900391 36.550781 C 74.065391 36.329781 74.019828 36.015609 73.798828 35.849609 L 70.998047 33.75 L 70.998047 31.849609 L 70.998047 29.349609 L 70.998047 21.5 C 70.998047 21.224 70.774047 21 70.498047 21 L 69 21 L 69 18 L 78 18 L 78 21 L 76.5 21 C 76.224 21 76 21.224 76 21.5 L 76 33.070312 L 76 35.560547 L 76 37.5 L 75.800781 37.349609 C 75.581781 37.185609 75.266609 37.227219 75.099609 37.449219 C 74.934609 37.670219 74.980172 37.984391 75.201172 38.150391 L 76.201172 38.900391 C 76.289172 38.966391 76.394953 39 76.501953 39 C 76.577953 39 76.653609 38.982266 76.724609 38.947266 C 76.892609 38.862266 77 38.689 77 38.5 L 77 36.302734 L 84 41.5 L 84 49.009766 L 50.599609 24.199219 C 50.419609 24.069219 50.21 24 50 24 C 49.79 24 49.580391 24.069219 49.400391 24.199219 L 16 49.009766 L 16 41.5 L 50 16.25 z M 50 26.25 L 80 48.53125 L 80 82 L 60 82 L 60 56.5 C 60 56.224 59.776 56 59.5 56 L 40.5 56 C 40.224 56 40 56.224 40 56.5 L 40 82 L 20 82 L 20 48.53125 L 50 26.25 z M 41 57 L 59 57 L 59 82 L 41 82 L 41 57 z M 54.5 69 C 54.224 69 54 69.224 54 69.5 C 54 69.776 54.224 70 54.5 70 L 56.5 70 C 56.776 70 57 69.776 57 69.5 C 57 69.224 56.776 69 56.5 69 L 54.5 69 z"/></svg>