<svg width="80" height="80" viewBox="0 0 80 80" fill="none" xmlns="http://www.w3.org/2000/svg">
<path d="M13.75 65V15C13.75 9.89137 17.8914 5.75 23 5.75H45.4439C47.8971 5.75 50.2499 6.72455 51.9846 8.45926L63.5407 20.0154C65.2755 21.7501 66.25 24.1029 66.25 26.5561V65C66.25 70.1086 62.1086 74.25 57 74.25H23C17.8914 74.25 13.75 70.1086 13.75 65Z" fill="white" stroke="#168CD0" stroke-width="1.5"/>
<path d="M49.75 20.25V7.24284L63.6243 20.25H49.75Z" fill="#DFF0FE" stroke="#4788C7" stroke-width="1.5"/>
<path d="M21.0156 42.8984V48H19.5234V36.9922H21.0156V41.6484H26.9688V36.9922H28.4609V48H26.9688V42.8984H21.0156ZM35.3984 38.2109V48H33.9141V38.2109H30.1328V36.9922H39.1797V38.2109H35.3984ZM42.1953 40.6562V48H40.8672V36.9922H42.8281L45.7578 44.625C45.862 44.9323 45.9609 45.263 46.0547 45.6172C46.1536 45.9661 46.2188 46.2188 46.25 46.375C46.2812 46.2344 46.3333 46.0417 46.4062 45.7969C46.4792 45.5469 46.5521 45.3073 46.625 45.0781C46.6979 44.849 46.75 44.6979 46.7812 44.625L49.6562 36.9922H51.5703V48H50.2266V40.6562C50.2266 40.25 50.2318 39.8516 50.2422 39.4609C50.2578 39.0703 50.276 38.6875 50.2969 38.3125C50.1667 38.776 50.0443 39.1927 49.9297 39.5625C49.8203 39.9271 49.7135 40.2396 49.6094 40.5L46.7656 48H45.7188L42.8359 40.5L42.1406 38.3125C42.151 38.7031 42.1615 39.0938 42.1719 39.4844C42.1875 39.875 42.1953 40.2656 42.1953 40.6562ZM61.25 46.7812V48H54.1953V36.9922H55.6875V46.7812H61.25Z" fill="#168CD0"/>
</svg>
