<svg width="80" height="80" viewBox="0 0 80 80" fill="none" xmlns="http://www.w3.org/2000/svg">
<path d="M13.75 65V15C13.75 9.89137 17.8914 5.75 23 5.75H45.4439C47.8971 5.75 50.2499 6.72455 51.9846 8.45926L63.5407 20.0154C65.2755 21.7501 66.25 24.1029 66.25 26.5561V65C66.25 70.1086 62.1086 74.25 57 74.25H23C17.8914 74.25 13.75 70.1086 13.75 65Z" fill="white" stroke="currentColor" stroke-width="1.5"/>
<path d="M49.75 20.25V7.24284L63.6243 20.25H49.75Z" fill="currentColor" filter="brightness(300%)" stroke="currentColor" stroke-width="1.5"/>
<path d="M22.5 27.5H58.5V71.5H22.5V27.5Z" fill="currentColor" filter="brightness(300%)" stroke="currentColor"/>
<path d="M51.5023 71.5L41.6371 57.8742L48.4225 50.0222L58.5 63.4525V71.5H51.5023ZM49.293 36.5804C49.7902 35.8445 50.4142 35.5 51 35.5C51.5858 35.5 52.2098 35.8445 52.707 36.5804C53.2047 37.3169 53.5 38.3447 53.5 39.44C53.5 40.5353 53.2047 41.5631 52.707 42.2996C52.2098 43.0355 51.5858 43.38 51 43.38C50.4142 43.38 49.7902 43.0355 49.293 42.2996C48.7953 41.5631 48.5 40.5353 48.5 39.44C48.5 38.3447 48.7953 37.3169 49.293 36.5804Z" fill="white" stroke="currentColor"/>
<path d="M22.5 61.036L34.1841 46.8184L52.0217 71.5H22.5V61.036Z" fill="white" stroke="currentColor"/>
</svg>
