<svg width="80" height="80" viewBox="0 0 80 80" fill="none" xmlns="http://www.w3.org/2000/svg">
<path d="M13.75 65V15C13.75 9.89137 17.8914 5.75 23 5.75H45.4439C47.8971 5.75 50.2499 6.72455 51.9846 8.45926L63.5407 20.0154C65.2755 21.7501 66.25 24.1029 66.25 26.5561V65C66.25 70.1086 62.1086 74.25 57 74.25H23C17.8914 74.25 13.75 70.1086 13.75 65Z" fill="white" stroke="#168CD0" stroke-width="1.5"/>
<path d="M49.75 20.25V7.24284L63.6243 20.25H49.75Z" fill="#DFF0FE" stroke="#4788C7" stroke-width="1.5"/>
<path d="M55 51.746C55 46.346 25 51.426 25 57.918C25 58.442 25.506 59 26.324 59C32.606 59 44.244 29 38.548 29C32.852 29 41.77 53.608 52.272 53.608C53.804 53.608 55 53.154 55 51.746Z" stroke="#4788C7" stroke-width="2" stroke-miterlimit="10"/>
</svg>
