<svg width="80" height="80" viewBox="0 0 80 80" fill="none" xmlns="http://www.w3.org/2000/svg">
<path d="M13.75 65V15C13.75 9.89137 17.8914 5.75 23 5.75H45.4439C47.8971 5.75 50.2499 6.72455 51.9846 8.45926L63.5407 20.0154C65.2755 21.7501 66.25 24.1029 66.25 26.5561V65C66.25 70.1086 62.1086 74.25 57 74.25H23C17.8914 74.25 13.75 70.1086 13.75 65Z" fill="white" stroke="#168CD0" stroke-width="1.5"/>
<path d="M49.75 20.25V7.24284L63.6243 20.25H49.75Z" fill="#DFF0FE" stroke="#4788C7" stroke-width="1.5"/>
<path d="M28.5 39C25.45 39 22.5249 40.2643 20.3683 42.5147C18.2116 44.7652 17 47.8174 17 51C17 54.1826 18.2116 57.2348 20.3683 59.4853C22.5249 61.7357 25.45 63 28.5 63C31.55 63 34.4751 61.7357 36.6317 59.4853C38.7884 57.2348 40 54.1826 40 51C40 47.8174 38.7884 44.7652 36.6317 42.5147C34.4751 40.2643 31.55 39 28.5 39Z" fill="#98CCFD"/>
<path d="M28.5 39.8571C34.4071 39.8571 39.2143 44.8566 39.2143 51C39.2143 57.1434 34.4071 62.1429 28.5 62.1429C22.5929 62.1429 17.7857 57.1434 17.7857 51C17.7857 44.8566 22.5929 39.8571 28.5 39.8571ZM28.5 38C21.5964 38 16 43.8203 16 51C16 58.1797 21.5964 64 28.5 64C35.4036 64 41 58.1797 41 51C41 43.8203 35.4036 38 28.5 38Z" fill="#4788C7"/>
<path d="M30 50V39C35.3285 39.4488 39.592 44.1404 40 50H30Z" fill="#DFF0FE"/>
<path d="M30.7895 40.0113C35.2793 40.7969 38.8314 44.4833 39.5883 49.1429H30.7895V40.0113ZM29 38V51H41.5263C41.5263 43.8203 35.9181 38 29 38ZM62.1053 41.7143H46C45.5079 41.7143 45.1053 41.2964 45.1053 40.7857C45.1053 40.275 45.5079 39.8571 46 39.8571H62.1053C62.5974 39.8571 63 40.275 63 40.7857C63 41.2964 62.5974 41.7143 62.1053 41.7143ZM62.1053 49.1429H46C45.5079 49.1429 45.1053 48.725 45.1053 48.2143C45.1053 47.7036 45.5079 47.2857 46 47.2857H62.1053C62.5974 47.2857 63 47.7036 63 48.2143C63 48.725 62.5974 49.1429 62.1053 49.1429ZM62.1053 56.5714H46C45.5079 56.5714 45.1053 56.1536 45.1053 55.6429C45.1053 55.1321 45.5079 54.7143 46 54.7143H62.1053C62.5974 54.7143 63 55.1321 63 55.6429C63 56.1536 62.5974 56.5714 62.1053 56.5714ZM54.9474 64H46C45.5079 64 45.1053 63.5821 45.1053 63.0714C45.1053 62.5607 45.5079 62.1429 46 62.1429H54.9474C55.4395 62.1429 55.8421 62.5607 55.8421 63.0714C55.8421 63.5821 55.4395 64 54.9474 64Z" fill="#4788C7"/>
</svg>
