<svg width="80" height="80" viewBox="0 0 80 80" fill="none" xmlns="http://www.w3.org/2000/svg">
<path d="M13.75 65V15C13.75 9.89137 17.8914 5.75 23 5.75H45.4439C47.8971 5.75 50.2499 6.72455 51.9846 8.45926L63.5407 20.0154C65.2755 21.7501 66.25 24.1029 66.25 26.5561V65C66.25 70.1086 62.1086 74.25 57 74.25H23C17.8914 74.25 13.75 70.1086 13.75 65Z" fill="white" stroke="currentColor" stroke-width="1.5"/>
<path d="M49.75 20.25V7.24284L63.6243 20.25H49.75Z" fill="currentColor" filter="brightness(300%)" stroke="currentColor" stroke-width="1.5"/>
<path d="M21 35H59V65H21V35Z" fill="none"/>
<path d="M58 36V64H22V36H58ZM60 34H20V66H60V34Z" fill="currentColor"/>
<path d="M22 46H58V64H22V46Z" fill="white"/>
<path d="M20 44H60V46H20V44Z" fill="currentColor"/>
<path d="M22 54H58V56H22V54Z" fill="currentColor"/>
<path d="M32 34H34V66H32V34Z" fill="currentColor"/>
</svg>
