<svg fill="currentColor" xmlns="http://www.w3.org/2000/svg"  viewBox="0 0 80 80" width="100px" height="100px">    <path d="M 40 13 C 32.083 13 25.244031 18.470328 23.457031 26.111328 C 18.584031 26.736328 14.597766 30.263672 13.384766 35.013672 C 5.9497656 35.337672 -1.1842379e-15 41.486 0 49 C 0 56.72 6.28 63 14 63 L 36 63 L 36 61 L 14 61 C 7.383 61 2 55.617 2 49 C 2 42.385 7.3804844 37.001953 14.021484 37.001953 L 14.025391 37.001953 L 15.019531 37.023438 L 15.023438 36.998047 A 1 1 0 0 0 16 36 A 1 1 0 0 0 15.443359 35.105469 C 16.632728 31.156432 20.148551 28.305867 24.349609 28.035156 L 24.925781 27.998047 A 1 1 0 0 0 25 28 A 1 1 0 0 0 26 27 A 1 1 0 0 0 25.519531 26.146484 C 27.244817 19.627517 33.163004 15 40 15 C 46.2 15 51.835391 18.907609 54.025391 24.724609 L 54.033203 24.746094 A 1 1 0 0 0 54 25 A 1 1 0 0 0 55 26 A 1 1 0 0 0 55.978516 25.201172 C 56.663906 25.081028 57.343434 25 58 25 C 64.617 25 70 30.383 70 37 C 70 37.997 69.862797 39.024641 69.591797 40.056641 L 69.330078 41.046875 L 70.326172 41.283203 C 74.843172 42.361203 78 46.357 78 51 C 78 56.514 73.514 61 68 61 L 46 61 L 46 63 L 68 63 C 74.617 63 80 57.617 80 51 C 80 45.761 76.652141 41.208422 71.744141 39.607422 C 71.914141 38.730422 72 37.857 72 37 C 72 29.28 65.72 23 58 23 C 57.208 23 56.395219 23.074656 55.574219 23.222656 C 52.893219 17.074656 46.74 13 40 13 z M 29 26 A 1 1 0 0 0 28 27 A 1 1 0 0 0 29 28 A 1 1 0 0 0 30 27 A 1 1 0 0 0 29 26 z M 33 28 A 1 1 0 0 0 32 29 A 1 1 0 0 0 33 30 A 1 1 0 0 0 34 29 A 1 1 0 0 0 33 28 z M 56 28 A 1 1 0 0 0 55 29 A 1 1 0 0 0 56 30 A 1 1 0 0 0 57 29 A 1 1 0 0 0 56 28 z M 36 31 A 1 1 0 0 0 35 32 A 1 1 0 0 0 36 33 A 1 1 0 0 0 37 32 A 1 1 0 0 0 36 31 z M 56 32 A 1 1 0 0 0 55 33 A 1 1 0 0 0 56 34 A 1 1 0 0 0 57 33 A 1 1 0 0 0 56 32 z M 19 35 A 1 1 0 0 0 18 36 A 1 1 0 0 0 19 37 A 1 1 0 0 0 20 36 A 1 1 0 0 0 19 35 z M 23 37 A 1 1 0 0 0 22 38 A 1 1 0 0 0 23 39 A 1 1 0 0 0 24 38 A 1 1 0 0 0 23 37 z M 26 40 A 1 1 0 0 0 25 41 A 1 1 0 0 0 26 42 A 1 1 0 0 0 27 41 A 1 1 0 0 0 26 40 z M 41 42.6875 L 32.34375 51.34375 L 33.757812 52.757812 L 40 46.515625 L 40 72 L 42 72 L 42 46.515625 L 48.242188 52.757812 L 49.65625 51.34375 L 41 42.6875 z M 69 43 A 1 1 0 0 0 68 44 A 1 1 0 0 0 69 45 A 1 1 0 0 0 70 44 A 1 1 0 0 0 69 43 z M 67 46 A 1 1 0 0 0 66 47 A 1 1 0 0 0 67 48 A 1 1 0 0 0 68 47 A 1 1 0 0 0 67 46 z M 41 74 A 1 1 0 0 0 40 75 A 1 1 0 0 0 41 76 A 1 1 0 0 0 42 75 A 1 1 0 0 0 41 74 z M 41 78 A 1 1 0 0 0 40 79 A 1 1 0 0 0 41 80 A 1 1 0 0 0 42 79 A 1 1 0 0 0 41 78 z"/></svg>