<svg width="80" height="80" viewBox="0 0 80 80" fill="none" xmlns="http://www.w3.org/2000/svg">
<path d="M13.75 65V15C13.75 9.89137 17.8914 5.75 23 5.75H45.4439C47.8971 5.75 50.2499 6.72455 51.9846 8.45926L63.5407 20.0154C65.2755 21.7501 66.25 24.1029 66.25 26.5561V65C66.25 70.1086 62.1086 74.25 57 74.25H23C17.8914 74.25 13.75 70.1086 13.75 65Z" fill="white" stroke="#168CD0" stroke-width="1.5"/>
<path d="M49.75 20.25V7.24284L63.6243 20.25H49.75Z" fill="#DFF0FE" stroke="#4788C7" stroke-width="1.5"/>
<path d="M40 63C30.6267 63 23 55.3733 23 46C23 36.6267 30.6267 29 40 29C49.3733 29 57 36.6267 57 46C57 55.3733 49.3733 63 40 63Z" fill="#98CCFD"/>
<path d="M40 29C49.374 29 57 36.626 57 46C57 55.374 49.374 63 40 63C30.626 63 23 55.374 23 46C23 36.626 30.626 29 40 29ZM40 28C30.059 28 22 36.059 22 46C22 55.941 30.059 64 40 64C49.941 64 58 55.941 58 46C58 36.059 49.941 28 40 28Z" fill="#4788C7"/>
<path d="M35 38V54L49 46L35 38Z" fill="white"/>
</svg>
