<svg width="80" height="80" viewBox="0 0 80 80" fill="none" xmlns="http://www.w3.org/2000/svg">
<path d="M13.75 65V15C13.75 9.89137 17.8914 5.75 23 5.75H45.4439C47.8971 5.75 50.2499 6.72455 51.9846 8.45926L63.5407 20.0154C65.2755 21.7501 66.25 24.1029 66.25 26.5561V65C66.25 70.1086 62.1086 74.25 57 74.25H23C17.8914 74.25 13.75 70.1086 13.75 65Z" fill="white" stroke="#168CD0" stroke-width="1.5"/>
<path d="M49.75 20.25V7.24284L63.6243 20.25H49.75Z" fill="#DFF0FE" stroke="#4788C7" stroke-width="1.5"/>
<path d="M25.375 43.4375V48H23.8906V43.4375L19.6562 36.9922H21.2969L24.6484 42.2344L27.9844 36.9922H29.625L25.375 43.4375ZM31.6328 44.7812L30.3672 48H28.8203L33.3125 36.9922H35.0078L39.4297 48H37.9062L36.6484 44.7812H31.6328ZM34.1406 38.1172C34.0521 38.4089 33.9453 38.7344 33.8203 39.0938C33.7005 39.4479 33.5885 39.7604 33.4844 40.0312L32.0859 43.6172H36.2031L34.7891 39.9844C34.7161 39.8021 34.6198 39.5443 34.5 39.2109C34.3802 38.8776 34.2604 38.513 34.1406 38.1172ZM42.1016 40.6562V48H40.7734V36.9922H42.7344L45.6641 44.625C45.7682 44.9323 45.8672 45.263 45.9609 45.6172C46.0599 45.9661 46.125 46.2188 46.1562 46.375C46.1875 46.2344 46.2396 46.0417 46.3125 45.7969C46.3854 45.5469 46.4583 45.3073 46.5312 45.0781C46.6042 44.849 46.6562 44.6979 46.6875 44.625L49.5625 36.9922H51.4766V48H50.1328V40.6562C50.1328 40.25 50.138 39.8516 50.1484 39.4609C50.1641 39.0703 50.1823 38.6875 50.2031 38.3125C50.0729 38.776 49.9505 39.1927 49.8359 39.5625C49.7266 39.9271 49.6198 40.2396 49.5156 40.5L46.6719 48H45.625L42.7422 40.5L42.0469 38.3125C42.0573 38.7031 42.0677 39.0938 42.0781 39.4844C42.0938 39.875 42.1016 40.2656 42.1016 40.6562ZM61.1562 46.7812V48H54.1016V36.9922H55.5938V46.7812H61.1562Z" fill="#168CD0"/>
</svg>
