<?xml version="1.0" encoding="iso-8859-1"?>
<!-- Generator: Adobe Illustrator 16.0.0, SVG Export Plug-In . SVG Version: 6.00 Build 0)  -->
<!DOCTYPE svg PUBLIC "-//W3C//DTD SVG 1.1//EN" "http://www.w3.org/Graphics/SVG/1.1/DTD/svg11.dtd">
<svg version="1.1" id="Capa_1" xmlns="http://www.w3.org/2000/svg" xmlns:xlink="http://www.w3.org/1999/xlink" x="0px" y="0px"
	 width="412.062px" height="412.062px" viewBox="0 0 412.062 412.062" style="enable-background:new 0 0 412.062 412.062;"
	 xml:space="preserve">
<g>
	<g>
		<path stroke="#606060" fill="#606060" d="M402.321,173.233c-18.051-7.623-35.327-14.316-52.302-19.883c1.479-4.97-0.163-12.596-1.597-17.222
			c-0.562-2.08-1.945-5.014-3.395-7.182c0.928,8.287-2.429,15.178-7.844,20.396c-4.183-1.236-8.353-2.395-12.519-3.481
			c4.539-5.004,2.152-16.64,0.01-23.555c-0.768-2.362-2.387-6.151-4.165-8.813c1.341,11.977-4.607,21.577-13.392,28.247
			c-3.892-0.811-7.787-1.552-11.693-2.219c7.855-10.99,1.568-28.631,1.568-28.631s-2.15-7.047-5.387-11.397
			c1.771,15.818-6.285,28.437-18.044,37.081c-3.619-0.355-7.262-0.638-10.921-0.861c4.641-5.453,3.19-16.092,0.841-23.675
			c-1.016-3.272-2.785-7.18-4.862-10.285c1.597,14.243-5.639,25.612-16.212,33.412c-4.063,0.026-8.16,0.133-12.3,0.326
			c1.623-4.296,0.355-12.019-0.703-15.116c-1.06-3.097-2.164-5.325-3.705-7.631c1.119,9.994-3.621,18.079-10.771,23.824
			c-4.176,0.395-8.396,0.872-12.667,1.438c0.729-2.996,0.065-6.892-0.864-9.89c-0.51-1.926-1.482-3.821-2.588-5.475
			c0.798,7.122-2.555,12.891-7.627,17.006c-33.152,5.443-69.521,16.019-111.433,32.759c-43.232,17.269-69.532,35.661-70.642,36.408
			L0,214.812l7.785,7.853c59.984,59.647,122.235,89.896,185.021,89.904c0.011,0,0.013,0,0.022,0
			c52.58,0,106.084-21.902,154.716-63.333c36.441-31.046,57.188-61.744,58.053-63.035l6.465-9.086L402.321,173.233z
			 M166.838,182.506l10.496,14.447c-3.411,3.583-6.16,7.798-8.052,12.457l-16.835-5.471
			C155.58,195.73,160.544,188.419,166.838,182.506z M167.531,233.923l-16.838,5.471c-1.303-4.793-2.002-9.834-2.002-15.034
			c0-3.324,0.289-6.583,0.834-9.754l17.063,5.543c-0.146,1.384-0.223,2.788-0.223,4.21
			C166.365,227.657,166.776,230.858,167.531,233.923z M171.67,244.191c2.149,3.727,4.882,7.071,8.079,9.909l-10.41,14.328
			c-6.118-5.117-11.157-11.479-14.727-18.695L171.67,244.191z M28.695,217.868c20.063-11.832,70.084-38.614,134.057-53.412
			c-18.539,13.461-30.627,35.291-30.627,59.902c0,32.262,20.76,59.751,49.615,69.854C130.363,290.985,78.973,265.359,28.695,217.868
			z M200.606,281.527c-7.969-0.765-15.465-3.162-22.151-6.854l10.496-14.445c3.616,1.734,7.535,2.932,11.655,3.504V281.527z
			 M200.606,184.986c-5.274,0.733-10.215,2.499-14.616,5.09l-10.411-14.332c7.384-4.657,15.896-7.679,25.027-8.554V184.986z
			 M211.65,263.729c19.347-2.688,34.24-19.285,34.24-39.371c0-2.454-0.232-4.854-0.66-7.186c-3.207,2.098-7.039,3.319-11.156,3.319
			c-11.286,0-20.435-9.147-20.435-20.434c0-5.144,1.903-9.838,5.04-13.43c-2.26-0.752-4.609-1.302-7.029-1.642v-17.798
			c29.088,2.788,51.913,27.361,51.913,57.168c0,29.808-22.825,54.381-51.913,57.169V263.729z M335.873,235.536
			c-21.773,18.551-52.495,39.553-89.426,50.828c20.258-13.219,33.684-36.066,33.684-62.006c0-32.107-20.561-59.493-49.2-69.714
			c6.116-0.323,12.294-0.498,18.526-0.498c48.192,0,93.604,10.186,135.138,30.291C376.223,195.327,359.429,215.47,335.873,235.536z"
			/>
	</g>
</g>
<g>
</g>
<g>
</g>
<g>
</g>
<g>
</g>
<g>
</g>
<g>
</g>
<g>
</g>
<g>
</g>
<g>
</g>
<g>
</g>
<g>
</g>
<g>
</g>
<g>
</g>
<g>
</g>
<g>
</g>
</svg>
