<svg width="100" height="100" viewBox="0 0 100 100" fill="none" xmlns="http://www.w3.org/2000/svg">
<path d="M23.25 93.75C19.384 93.75 16.25 90.616 16.25 86.75V13.25C16.25 9.38401 19.384 6.25 23.25 6.25H59.083C60.9395 6.25 62.72 6.9875 64.0328 8.30025L81.6997 25.9672C83.0125 27.28 83.75 29.0605 83.75 30.917V86.75C83.75 90.616 80.616 93.75 76.75 93.75H23.25Z" fill="white"/>
<path d="M59.3939 7.5C60.72 7.5 61.9918 8.02678 62.9295 8.96447L81.0355 27.0705C81.9732 28.0082 82.5 29.28 82.5 30.6061V87.5C82.5 90.2614 80.2614 92.5 77.5 92.5H22.5C19.7386 92.5 17.5 90.2614 17.5 87.5V12.5C17.5 9.73858 19.7386 7.5 22.5 7.5H59.3939ZM63.9645 6.46446C63.0268 5.52678 61.755 5 60.4289 5H20C17.2386 5 15 7.23858 15 10V90C15 92.7614 17.2386 95 20 95H80C82.7614 95 85 92.7614 85 90V29.5711C85 28.245 84.4732 26.9732 83.5355 26.0355L63.9645 6.46446Z" fill="#4788C7"/>
<path d="M61.25 28.75V6.25H61.9825L83.75 28.0175V28.75H61.25Z" fill="#DFF0FE"/>
<path d="M62.5 8.535L81.465 27.5H62.5V8.535ZM62.5 5H60V30H85V27.5L62.5 5ZM60 30H32.5C31.12 30 30 28.88 30 27.5C30 26.12 31.12 25 32.5 25H60V30ZM36.25 45H31.25C30.56 45 30 44.44 30 43.75C30 43.06 30.56 42.5 31.25 42.5H36.25C36.94 42.5 37.5 43.06 37.5 43.75C37.5 44.44 36.94 45 36.25 45ZM68.75 45H43.75C43.06 45 42.5 44.44 42.5 43.75C42.5 43.06 43.06 42.5 43.75 42.5H68.75C69.44 42.5 70 43.06 70 43.75C70 44.44 69.44 45 68.75 45ZM36.25 55H31.25C30.56 55 30 54.44 30 53.75C30 53.06 30.56 52.5 31.25 52.5H36.25C36.94 52.5 37.5 53.06 37.5 53.75C37.5 54.44 36.94 55 36.25 55ZM68.75 55H43.75C43.06 55 42.5 54.44 42.5 53.75C42.5 53.06 43.06 52.5 43.75 52.5H68.75C69.44 52.5 70 53.06 70 53.75C70 54.44 69.44 55 68.75 55ZM36.25 65H31.25C30.56 65 30 64.44 30 63.75C30 63.06 30.56 62.5 31.25 62.5H36.25C36.94 62.5 37.5 63.06 37.5 63.75C37.5 64.44 36.94 65 36.25 65ZM68.75 65H43.75C43.06 65 42.5 64.44 42.5 63.75C42.5 63.06 43.06 62.5 43.75 62.5H68.75C69.44 62.5 70 63.06 70 63.75C70 64.44 69.44 65 68.75 65ZM36.25 75H31.25C30.56 75 30 74.44 30 73.75C30 73.06 30.56 72.5 31.25 72.5H36.25C36.94 72.5 37.5 73.06 37.5 73.75C37.5 74.44 36.94 75 36.25 75ZM68.75 75H43.75C43.06 75 42.5 74.44 42.5 73.75C42.5 73.06 43.06 72.5 43.75 72.5H68.75C69.44 72.5 70 73.06 70 73.75C70 74.44 69.44 75 68.75 75Z" fill="#4788C7"/>
</svg>
