<svg width="50" height="50" viewBox="0 0 50 50" fill="none" xmlns="http://www.w3.org/2000/svg">
<path d="M3.125 41.875V5.625H8.125V3.125H26.875V5.625H31.875V41.875H3.125Z" fill="#DFF0FE"/>
<path d="M26.25 3.75V5V6.25H27.5H31.25V41.25H3.75V6.25H7.5H8.75V5V3.75H26.25ZM27.5 2.5H7.5V5H2.5V42.5H32.5V5H27.5V2.5Z" fill="#4788C7"/>
<path d="M21.25 42.5H28.75V40H21.25V42.5ZM30 13.75V21.5388H32.5V13.75H30Z" fill="#DFF0FE"/>
<path d="M25.625 48.125V20.625H29.375V18.125H43.125V20.625H46.875V48.125H25.625Z" fill="#B6DCFE"/>
<path d="M42.5 18.75V20V21.25H43.75H46.25V47.5H26.25V21.25H28.75H30V20V18.75H42.5ZM43.75 17.5H28.75V20H25V48.75H47.5V20H43.75V17.5Z" fill="#4788C7"/>
<path d="M37.5 25V27.5H42.5V25H37.5ZM30 27.5H35V25H30V27.5ZM37.5 30V32.5H42.5V30H37.5ZM30 32.5H35V30H30V32.5ZM37.5 35V37.5H42.5V35H37.5ZM30 37.5H35V35H30V37.5ZM37.5 40V42.5H42.5V40H37.5ZM30 42.5H35V40H30V42.5Z" fill="#4788C7"/>
<path d="M7.5 12.5H12.5V10H7.5V12.5ZM15 12.5H20V10H15V12.5ZM22.5 10V12.5H27.5V10H22.5ZM7.5 17.5H12.5V15H7.5V17.5ZM15 17.5H20V15H15V17.5ZM22.5 15V17.5H26.25V15H22.5ZM7.5 22.5H12.5V20H7.5V22.5ZM15 22.5H20V20H15V22.5ZM7.5 27.5H12.5V25H7.5V27.5ZM15 27.5H20V25H15V27.5ZM7.5 32.5H12.5V30H7.5V32.5ZM15 32.5H20V30H15V32.5ZM7.5 37.5H12.5V35H7.5V37.5ZM15 37.5H20V35H15V37.5Z" fill="#98CCFD"/>
<path d="M20.625 41.25H21.875C22.2188 41.25 22.5 41.5312 22.5 41.875C22.5 42.2188 22.2188 42.5 21.875 42.5H20.625C20.2812 42.5 20 42.2188 20 41.875C20 41.5312 20.2812 41.25 20.625 41.25ZM31.875 12.5C32.2188 12.5 32.5 12.7812 32.5 13.125V14.375C32.5 14.7188 32.2188 15 31.875 15C31.5312 15 31.25 14.7188 31.25 14.375V13.125C31.25 12.7812 31.5312 12.5 31.875 12.5Z" fill="#4788C7"/>
</svg>
