<svg width="30" height="30" viewBox="0 0 30 30" fill="none" xmlns="http://www.w3.org/2000/svg">
<path d="M12.8125 3.75C7.81852 3.75 3.75 7.81853 3.75 12.8125C3.75 17.8065 7.81852 21.875 12.8125 21.875C14.9727 21.875 16.9586 21.1119 18.5181 19.8438L24.6497 25.9753C24.736 26.0653 24.8395 26.1371 24.954 26.1866C25.0685 26.2361 25.1917 26.2623 25.3165 26.2635C25.4412 26.2648 25.5649 26.2412 25.6804 26.194C25.7959 26.1469 25.9008 26.0772 25.989 25.989C26.0772 25.9008 26.1469 25.7959 26.194 25.6804C26.2412 25.5649 26.2648 25.4412 26.2635 25.3165C26.2623 25.1917 26.2361 25.0685 26.1866 24.954C26.1371 24.8395 26.0653 24.736 25.9753 24.6497L19.8438 18.5181C21.1119 16.9586 21.875 14.9727 21.875 12.8125C21.875 7.81853 17.8065 3.75 12.8125 3.75ZM12.8125 5.625C16.7932 5.625 20 8.83185 20 12.8125C20 14.7516 19.2351 16.5036 17.9944 17.7942C17.9179 17.8504 17.8504 17.9179 17.7942 17.9944C16.5036 19.2351 14.7516 20 12.8125 20C8.83185 20 5.625 16.7932 5.625 12.8125C5.625 8.83185 8.83185 5.625 12.8125 5.625Z" fill="#989C9E"/>
</svg>
