<svg width="50" height="50" viewBox="0 0 50 50" fill="none" xmlns="http://www.w3.org/2000/svg">
<path d="M30 33.75H20C11.7163 33.75 5 40.4663 5 48.75H45C45 40.4663 38.2837 33.75 30 33.75Z" fill="#8BB7F0"/>
<path d="M30 35C37.1613 35 43.06 40.5013 43.6938 47.5H6.30625C6.94 40.5013 12.8387 35 20 35H30ZM30 33.75H20C11.7163 33.75 5 40.4663 5 48.75H45C45 40.4663 38.2837 33.75 30 33.75Z" fill="#4E7AB5"/>
<path d="M18.75 35.0775V27.5H31.25V35.0775C31.25 35.0775 29.9175 38.75 25 38.75C20.0825 38.75 18.75 35.0775 18.75 35.0775Z" fill="#F5CE85"/>
<path d="M30 28.75V34.8137C29.6875 35.4412 28.4025 37.5 25 37.5C21.5875 37.5 20.305 35.4288 20 34.8163V28.75H30ZM31.25 27.5H18.75V35.0775C18.75 35.0775 20.0825 38.75 25 38.75C29.9175 38.75 31.25 35.0775 31.25 35.0775V27.5Z" fill="#967A44"/>
<path d="M33.9287 24.0175C32.9475 24.0175 32.0338 23.5312 31.4837 22.7175C31.2675 22.3962 31.1187 22.0425 31.0413 21.665C31.0012 21.4713 30.9813 21.2713 30.9813 21.07C30.9813 19.445 32.3038 18.1237 33.9275 18.1237C36.3813 18.1237 36.8738 18.7962 36.8738 19.88C36.875 21.6487 35.4187 24.0175 33.9287 24.0175ZM16.0713 24.0175C14.5813 24.0175 13.125 21.6487 13.125 19.88C13.125 18.7962 13.6175 18.1237 16.0713 18.1237C17.6963 18.1237 19.0175 19.445 19.0175 21.07C19.0175 21.27 18.9975 21.47 18.9575 21.665C18.88 22.0425 18.7313 22.3962 18.515 22.7175C17.9663 23.5325 17.0525 24.0175 16.0713 24.0175Z" fill="#F5CE85"/>
<path d="M33.9287 18.75C36.25 18.75 36.25 19.3512 36.25 19.8812C36.25 21.4237 34.9487 23.3938 33.9287 23.3938C33.1562 23.3938 32.4362 23.0113 32.0025 22.3688C31.8325 22.1163 31.715 21.8375 31.6537 21.54C31.6225 21.3875 31.6063 21.23 31.6063 21.0713C31.6075 19.7913 32.6488 18.75 33.9287 18.75ZM16.0713 18.75C17.3513 18.75 18.3925 19.7913 18.3925 21.0713C18.3925 21.23 18.3762 21.3875 18.345 21.54C18.2837 21.8375 18.1675 22.115 17.9963 22.3675C17.5625 23.0087 16.8425 23.3925 16.07 23.3925C15.05 23.3925 13.7487 21.4238 13.7487 19.88C13.75 19.3513 13.75 18.75 16.0713 18.75ZM33.9287 17.5C31.9562 17.5 30.3575 19.0988 30.3575 21.0713C30.3575 21.3175 30.3825 21.5588 30.43 21.7913C30.525 22.2563 30.7113 22.6887 30.9675 23.0687C31.6087 24.0187 32.6962 24.6438 33.9287 24.6438C35.9012 24.6438 37.5 21.8537 37.5 19.8812C37.5 17.9087 35.9012 17.5 33.9287 17.5ZM16.0713 17.5C14.0988 17.5 12.5 17.9087 12.5 19.8812C12.5 21.8537 14.0988 24.6438 16.0713 24.6438C17.3038 24.6438 18.3912 24.0187 19.0325 23.0687C19.2887 22.6887 19.475 22.2563 19.57 21.7913C19.6175 21.5588 19.6425 21.3175 19.6425 21.0713C19.6425 19.0988 18.0438 17.5 16.0713 17.5Z" fill="#967A44"/>
<path d="M25 33.125C24.245 33.125 23.535 32.8525 22.9487 32.3375L22.8362 32.2375L22.69 32.2013C18.53 31.145 15.625 27.4125 15.625 23.125V16.25C15.625 11.08 19.83 6.875 25 6.875C30.17 6.875 34.375 11.08 34.375 16.25V23.125C34.375 27.4125 31.47 31.145 27.31 32.2013L27.1638 32.2375L27.0513 32.3375C26.465 32.8525 25.755 33.125 25 33.125Z" fill="#FFDEA3"/>
<path d="M25 7.5C29.825 7.5 33.75 11.425 33.75 16.25V23.125C33.75 27.1262 31.0387 30.6087 27.1562 31.595L26.865 31.6687L26.6388 31.8675C26.31 32.1562 25.76 32.5 25 32.5C24.24 32.5 23.69 32.1562 23.3612 31.8675L23.135 31.6687L22.8437 31.595C18.9612 30.6087 16.25 27.1262 16.25 23.125V16.25C16.25 11.425 20.175 7.5 25 7.5ZM25 6.25C19.4775 6.25 15 10.7275 15 16.25V23.125C15 27.7962 18.2075 31.7075 22.5362 32.8063C23.1962 33.3863 24.0525 33.75 25 33.75C25.9475 33.75 26.8038 33.3863 27.4638 32.8063C31.7925 31.7075 35 27.7962 35 23.125V16.25C35 10.7275 30.5225 6.25 25 6.25Z" fill="#967A44"/>
</svg>
